<?xml version="1.0" encoding="utf-8"?>
<!-- Generator: Adobe Illustrator 18.1.1, SVG Export Plug-In . SVG Version: 6.00 Build 0)  -->
<svg version="1.1" id="Layer_1" xmlns="http://www.w3.org/2000/svg" xmlns:xlink="http://www.w3.org/1999/xlink" x="0px" y="0px"
	 viewBox="0 0 53 57" enable-background="new 0 0 53 57" xml:space="preserve">
<g>
	<g opacity="0.75">
		<path fill="#FFFFFF" d="M35,41.9c2.2,1.8,4.6,3.5,7.1,5c0.3,0.2,0.4,0.6,0.2,0.9l-0.6,1.1c-0.2,0.3-0.6,0.4-0.9,0.2
			c-2.4-1.5-4.7-3.2-6.9-4.9c-0.3-0.2-0.6-0.2-0.9,0c-2.5,2.3-6.2,4.2-10.9,4.2c-9.2,0-11.7-6.5-11.7-9.9c0-4,1-6.1,5-9.4
			c0.3-0.2,0.7-0.2,1,0.1l0.7,1c0.2,0.3,0.1,0.7-0.1,0.9c-3.8,3.1-4,4.4-4,7.3c0,0.3,0.1,7.3,9.1,7.3c3.7,0,6.6-1.5,8.7-3.2
			c0.3-0.3,0.3-0.7,0-1c-4.9-4.3-8.9-8.7-11.6-12.1l-1.6-2.1c-0.5-0.6-0.8-1.2-1.2-1.7c-2.6-4.1-3.1-8.9-1.2-12.2
			c1.3-2.4,3.7-3.7,6.6-3.7c3.6,0,6.3,1.8,7.3,4.9c1.2,3.9-0.8,8.5-4.8,11.2c-0.9,0.6-1.7,1.1-2.4,1.6c-0.3,0.2-0.4,0.7-0.1,1
			c2.7,3.3,6.6,7.6,11.3,11.7L35,41.9z M36.5,29.3c2-0.5,7.7-3.6,7.9-3.4c0.2,0.1,0.2,1.8,0.1,2.6c0,0.2-0.2,0.4-0.3,0.5
			c-2.6,1.4-4.8,2.3-6.7,2.8c-0.3,0.1-0.5,0.4-0.5,0.7c0.2,2.1,0.2,3.2-0.2,5c-0.1,0.4-0.2,0.9-0.5,1.4c-0.2,0.4-0.6,0.5-1,0.3
			l-1.1-0.7c-0.3-0.2-0.3-0.5-0.2-0.8c0.1-0.2,0.2-0.4,0.2-0.6c0.3-1.6,0.2-2.4,0.1-4c0-0.4-0.3-0.6-0.7-0.6c-2,0.1-3.5-0.3-4.4-0.7
			c-1.4-0.6-2.3-1.7-2.5-2.7c-0.3-1.5,0.2-2.5,0.7-3.1c0.7-0.9,1.9-1.3,3.5-1.3c1.6,0,2.6,0.3,3.6,1.6c0.2,0.3,0.4,0.6,0.6,0.9
			c0.2,0.4,0,0.9-0.4,1l-1.3,0.3c-0.3,0.1-0.6,0-0.7-0.3c-0.1-0.1-0.1-0.2-0.2-0.3c-0.5-0.7-0.9-0.6-1.6-0.6c-0.7,0-1.3,0.1-1.5,0.4
			c-0.2,0.2-0.2,0.5-0.1,0.8c0,0.1,0.1,0.2,0.1,0.3c0.2,0.2,0.5,0.5,1.1,0.7c0.6,0.2,1.6,0.5,3.2,0.4C35.5,29.6,36.5,29.3,36.5,29.3
			z M21.8,12.4c-2,0-3.5,0.8-4.3,2.4c-1.4,2.5-0.9,6.3,1.2,9.6c0.2,0.3,0.4,0.6,0.7,1c0.2,0.3,0.6,0.4,0.9,0.2
			c0.8-0.6,1.6-1.1,2.5-1.7c3.6-2.4,4.5-6,3.8-8.3C26,13.5,24.3,12.4,21.8,12.4z"/>
	</g>
	<g>
		<g>
			<path fill="#444444" d="M34,40.9c2.2,1.8,4.6,3.5,7.1,5c0.3,0.2,0.4,0.6,0.2,0.9l-0.6,1.1c-0.2,0.3-0.6,0.4-0.9,0.2
				c-2.4-1.5-4.7-3.2-6.9-4.9c-0.3-0.2-0.6-0.2-0.9,0c-2.5,2.3-6.2,4.2-10.9,4.2c-9.2,0-11.7-6.5-11.7-9.9c0-4,1-6.1,5-9.4
				c0.3-0.2,0.7-0.2,1,0.1l0.7,1c0.2,0.3,0.1,0.7-0.1,0.9c-3.8,3.1-4,4.4-4,7.3c0,0.3,0.1,7.3,9.1,7.3c3.7,0,6.6-1.5,8.7-3.2
				c0.3-0.3,0.3-0.7,0-1c-4.9-4.3-8.9-8.7-11.6-12.1l-1.6-2.1c-0.5-0.6-0.8-1.2-1.2-1.7c-2.6-4.1-3.1-8.9-1.2-12.2
				c1.3-2.4,3.7-3.7,6.6-3.7c3.6,0,6.3,1.8,7.3,4.9c1.2,3.9-0.8,8.5-4.8,11.2c-0.9,0.6-1.7,1.1-2.4,1.6c-0.3,0.2-0.4,0.7-0.1,1
				c2.7,3.3,6.6,7.6,11.3,11.7L34,40.9z M35.5,28.3c2-0.5,7.7-3.6,7.9-3.4c0.2,0.1,0.2,1.8,0.1,2.6c0,0.2-0.2,0.4-0.3,0.5
				c-2.6,1.4-4.8,2.3-6.7,2.8c-0.3,0.1-0.5,0.4-0.5,0.7c0.2,2.1,0.2,3.2-0.2,5c-0.1,0.4-0.2,0.9-0.5,1.4c-0.2,0.4-0.6,0.5-1,0.3
				l-1.1-0.7c-0.3-0.2-0.3-0.5-0.2-0.8c0.1-0.2,0.2-0.4,0.2-0.6c0.3-1.6,0.2-2.4,0.1-4c0-0.4-0.3-0.6-0.7-0.6
				c-2,0.1-3.5-0.3-4.4-0.7c-1.4-0.6-2.3-1.7-2.5-2.7c-0.3-1.5,0.2-2.5,0.7-3.1c0.7-0.9,1.9-1.3,3.5-1.3c1.6,0,2.6,0.3,3.6,1.6
				c0.2,0.3,0.4,0.6,0.6,0.9c0.2,0.4,0,0.9-0.4,1l-1.3,0.3c-0.3,0.1-0.6,0-0.7-0.3c-0.1-0.1-0.1-0.2-0.2-0.3
				c-0.5-0.7-0.9-0.6-1.6-0.6c-0.7,0-1.3,0.1-1.5,0.4c-0.2,0.2-0.2,0.5-0.1,0.8c0,0.1,0.1,0.2,0.1,0.3c0.2,0.2,0.5,0.5,1.1,0.7
				c0.6,0.2,1.6,0.5,3.2,0.4C34.5,28.6,35.5,28.3,35.5,28.3z M20.8,11.4c-2,0-3.5,0.8-4.3,2.4c-1.4,2.5-0.9,6.3,1.2,9.6
				c0.2,0.3,0.4,0.6,0.7,1c0.2,0.3,0.6,0.4,0.9,0.2c0.8-0.6,1.6-1.1,2.5-1.7c3.6-2.4,4.5-6,3.8-8.3C25,12.5,23.3,11.4,20.8,11.4z"/>
		</g>
	</g>
</g>
</svg>
