<?xml version="1.0" encoding="utf-8"?>
<!-- Generator: Adobe Illustrator 18.1.1, SVG Export Plug-In . SVG Version: 6.00 Build 0)  -->
<svg version="1.1" id="Layer_1" xmlns="http://www.w3.org/2000/svg" xmlns:xlink="http://www.w3.org/1999/xlink" x="0px" y="0px"
	 viewBox="0 0 356.3 380.3" enable-background="new 0 0 356.3 380.3" xml:space="preserve">
<g>
	<g opacity="0.5">
		<g>
			<path fill="#F9F1E9" d="M287.5,81.3C287.5,81.3,287.4,81.3,287.5,81.3C287.5,81.3,287.5,81.3,287.5,81.3L287.5,81.3z"/>
		</g>
		<g>
			<path fill="#F9F1E9" d="M122.2,83C122.2,82.9,122.2,82.9,122.2,83c0-0.1,0-0.1,0-0.1C122.2,82.9,122.2,82.9,122.2,83
				C122.2,82.9,122.2,83,122.2,83z"/>
		</g>
		<g>
			<path fill="#F9F1E9" d="M122.2,83c-2.5,0.9-3.1,3.4-4.7,5.1c-1.4,1.6-2.8,3.1-5.1,3.9c0-2.3,0.3-3.9,1.9-5.7
				c2.8-3.1,5.8-6,7.7-10c1.3-2.7,1.9-4.8,0.5-7.5c-0.8-1.6-0.9-3.4-0.8-5.3c0.1-1.7-0.5-3-2.8-1.7c-2.8,1.6-5.7,3-8.2,5
				c-3.3,2.6-4.1,5.7-3.4,9.8c0.7,4,1.7,7.8,3,11.6c1.5,4.5-1.4,7.9-4.5,10.6c-7.1,6.3-12.8,13.7-17.5,21.9
				c-3.4,5.9-7.3,11.6-11.2,17.2c-4.8,6.9-8.1,14.4-10.2,22.5c-1.5,5.8-3,11.6-1.6,17.4c1.1,4.6,0.2,8.9,0.5,13.9
				c-1.9-1.8-2.4-3.7-3-5.6c-1.9-6.1-3.9-12.2-3.8-18.7c0.1-6,2.2-11.6,3.6-17.3c2.5-10.1,3.8-20.4,3.7-30.8c-0.1-6-0.5-12.1,0.7-18
				c1.1-5.6,4.1-10.4,7.7-14.8c1-1.2,2.1-2.4,1.7-4.4c-4.7,4.8-8,10.3-10.3,16.5c-0.2-0.1-0.5-0.1-0.7-0.2
				c0.1-10.3,0.1-20.6,0.2-30.9c-0.2,0-0.4,0-0.5,0c-0.3,4-0.9,8-0.7,12c0.4,8.1-1,16.1-0.2,24.2c0.7,8,0.2,15.9,0.3,23.9
				c0,9.3-2.1,18.1-4.6,26.9c-1.6,5.6-2.6,11.3-2.8,17.1c-2.1-4.4-1.9-9.1-2.1-13.7c-0.1-3.1-0.3-6.1,1.4-9.1c0.7-1.2,0.5-3,0.4-4.4
				c-0.2-3.1-0.6-6.1-0.4-9.3c-3.4,5.2-1.3,11.3-3,16.8c-1.7,5.6-0.6,11.3,0.4,17c-2.9-2.7-5.3-5.4-4.6-9.7
				c0.6-3.6-0.6-7.2-1.1-10.7c-0.3-2.3-2.2-3.6-3.9-4.8c-3.3-2.4-6.8-4.7-9.3-8.1c-0.5-0.7-1.3-1.5-2.3-1.2c-1,0.3-1,1.4-0.9,2.3
				c0.2,3.4-0.3,6.8-1,10.1c-0.7,3.4-0.4,6.8,0.2,10.2c0.7,3.6,3,6.1,6.7,7c2.9,0.7,5.8,1.6,8.4,3.3c0.3,0.2,0.7,0.5,1.1,0.5
				c6-0.5,6.9,4.4,8.9,8.3c3.5,6.8,3.2,14.9,7,21.5c2.6,4.5,5.1,9,7.6,13.5c2.5,4.5,3.7,9.5,5.8,14.1c7.4,15.9,10.4,33.2,16.1,49.7
				c0.5,1.4,1,2.8,1.7,4.5c-8.8-7-17.9-13.1-25-21.6c-1-1.2-2.3-2.3-3.6-3.2c-2.8-1.9-4.9-4.3-6.3-7.4c-2.7-6.3-6.1-12.3-9.6-18.3
				c-2.8-4.8-4.4-10-5-15.5c-1,10.6,6.1,18.2,10.3,27.4c-4.6-0.7-7.9-2.3-10.4-6.1c-2.7-4.2-4.5-9.2-9-12.2
				c-0.8-0.6-2.7-2.1-1.1-3.9c0.2-0.2,0.2-0.3,0-0.6c-4.9-8-5.4-17.5-8.7-26c-1.3-3.2-2.4-6.6-2.5-10.1c0-0.4-0.8-0.7-1.6-1.4
				c1.2,11.5,6.9,21.5,8.1,32.9c-1.7-0.9-1.9-2.5-2.8-3.4c3,10.9,12.3,17.9,18.4,27.8c-10.9-0.9-18.2-8.9-27.9-11.3
				c0,1.4,1.1,1.5,1.7,1.7c5.8,1.8,10.7,5.5,16.2,8c1.9,0.9,3.9,1.9,5.9,2.1c4.4,0.5,7.1,3.2,9.6,6.4c4.4,5.6,8.9,11.1,15,15
				c-4.7,2.4-9.3,1.7-12.5-1.7c-2.2-2.3-6.8-2.7-10.4-0.8c-2,1.1-4.1,2.1-6,3.4c-3.8,2.6-7.9,4.2-12.5,4.1c-0.8,0-2.3-0.4-2.2,1.2
				c0.1,1.4,1.4,1.3,2.3,1.5c2.6,0.4,5.2,0.6,7.5,1.8c0.5,0.3,1.1,0.5,1.6,0.9c3,2.9,5.9,3.3,10.2,1.7c5.2-1.9,10-4.6,14.4-8.1
				c1.3-1,2.7-0.5,4-0.9c6.8-2,11.2,1.7,15.9,5.8c5.2,4.3,8.4,10.4,13.8,14.4c5.8,4.3,8.7,10.6,12.1,16.6
				c5.1,8.9,12.5,14.2,22.2,17.2c6.2,1.9,12.2,4.4,18.9,6.9c-4.6,1.4-8.8,1.2-13,1.3c-2.1,0-4.3-0.3-6.3,0.1
				c-6.1,1.2-11.4-1.1-17.2-2.5c-7.1-1.7-14.7-2.4-22-0.3c-1.7,0.5-4.2-0.2-5.3,2.5c7.8-2,15.4-2.4,22.8-0.3c4.1,1.2,8.5,1.3,12.5,3
				c2.7,1.1,5.9-0.4,8.9-0.2c1,0.1,2,0,3.2,0.1c-0.9,1.7-2.3,2.4-3.9,2.7c-2.2,0.5-4.3,1-6.5,1.2c-9,0.5-17.9,2.2-26.9,3.5
				c-2.2,0.3-4.5,0.7-6.5,2c8.6-1.5,17.2-2.2,25.8-3.4c4.4-0.6,8.8,0,13.2-1.3c2.1-0.7,4-1.8,6-2.8c5.7-3,11.9-2.3,17.9-2.4
				c9.8-0.1,19,3.8,28.8,4.7c12.7,1.1,24.6-1.2,35.9-6.8c3.2-1.6,6.6-1.8,9.8-2.9c6.5-2.1,13-4,19.1-7.1c6.4-3.2,12-7.7,17.3-12.5
				c4.5-4.1,9-8.1,13.6-12.1c4.3-3.7,8-7.9,11.4-12.3c4.8-6.2,9.7-12.2,15.5-17.5c-0.8,2.9-2.7,5.2-3.4,8.1
				c-1.4,6-3.9,11.5-6.8,16.9c-1.6,3-4.4,4.9-6.4,7.6c-4.6,6.2-10,11.8-15.5,17.2c-6.5,6.3-13.3,12.2-20,18.2
				c-2.7,2.4-9.7,1.6-13.3-1.5c-1.7-1.5-3.5-2.7-5.8-3c-3.3-0.4-6.7,1.6-8.1,5.4c-1.6,4.2-3.6,8.3-5.9,12.2c-1.4,2.4-1,3.3,1.8,3.5
				c4.9,0.3,10.1,1.3,14.2-2.8c1.5-1.5,2.3-3.3,3.5-4.9c2.3-3,4.7-5.8,9.4-5.4c-2.2,3.2-4.2,6.2-6.2,9.2c2.1-0.7,3.3-2.3,4.4-3.9
				c2.8-3.9,6.5-6.7,10.2-9.6c4.1-3.1,7.9-6.8,11.6-10.5c5.8-5.7,11.3-11.6,16.9-17.5c3.2-3.4,6.3-7,9.8-11
				c-0.7,4.7-2.3,8.4-5.1,11.6c-1.7,2-3.5,3.9-5.2,5.8c4-1.8,6.3-5.3,8.6-8.8c1.5-2.3,2.2-5,3.3-7.5c1.4,7.5-1.4,13.8-5.4,19.9
				c-3.2,4.9-8.2,8.6-9.8,14.5c0.9,0.4,1-0.5,1.2-0.9c2.8-5.2,7.1-9.2,10.3-14.1c3.5-5.3,6.5-10.9,5.8-17.6
				c-0.7-7.5,0.7-14.4,4.6-21c1.1-1.9,2.6-4.1,2.7-6.8c0.1-2.4,2.3-4.1,3.7-6.1c2.2-3.3,4.5-6.6,6.2-10.3c0.4-0.9,1.2-1.8,2.4-2.4
				c0.9,1.5-0.3,2.4-0.9,3.4c-2.9,4.2-5,8.6-5.5,13.8c-0.3,3.3,0.8,6.1,2.2,8.8c1.4,2.6,2.9,5,4,7.7c0.8,2,1.7,1.8,2.7,0.5
				c1.3-1.6,2.7-3.3,3.7-5.1c2.3-4.4,4.5-9,7.2-13.2c1.7-2.7,1-5-1.3-7.1c-2.4-2.2-4.6-4.8-7.2-6.9c-3.8-2.9-3.9-6.8-2.9-10.7
				c1.5-6.4,4.2-12.5,5.4-19c1.9-10.3,4.2-20.5,4.9-31c0.3-3.7-0.5-7.4-1.5-10.9c-3.1-10.7-5.3-21.7-12.2-30.9
				c-3.6-4.7-8.1-8.4-12.7-11.9c-1.9-1.5-3-3.1-3.2-5.5c-1-12.1-6-22.6-13.9-31.7c-7.1-8.1-15.3-14.8-25.7-18.3
				c-1.5-0.5-2.9-1.2-4.3-2.1c4.1-0.9,8.2-0.5,12.3-0.2c7.4,0.5,14.1,3.1,20.7,6.2c0.8,0.4,1.7,0.5,2.5,0.8c0-1.4-1.8-0.7-2.2-2.1
				c2-0.5,3.7-1.4,5.6,0.4c1.5,1.4,3.5,2.3,5.2,3.6c1.6,1.2,3,1.1,4.3-0.3c1.9-2,3.8-4.2,5-6.7c0.5-1,1-2,1.7-2.8
				c2-2.7,1.8-4.6-1.1-6.3c-2.4-1.3-4.9-2.2-7.6-2.7c-1.5-0.2-2.5,0.3-3.3,1.5c-1.7,2.3-3.4,4.6-4.6,7.3c-1.6,3.6-6.1,5.8-9.2,4.3
				c-9.7-4.5-19.8-5.2-30.4-4.1c-5,0.5-10.2-0.4-15.3-0.5c-7.4-0.1-14.8-0.1-22.3,0c-2.4,0-4.6-0.5-6.5-1.8c-5-3.4-10.5-6-16-8.3
				c-3.7-1.6-7.9-1-11.9-0.8c-6.4,0.2-12.3,2.8-18.7,3.2c-8.9,0.7-16.2,5.4-23.4,10.2c-4.4,2.9-8.9,5.7-13.4,8.4
				C122.5,84.3,122.4,83.4,122.2,83z M301.1,67.7c-0.9,0.7-1.1,2.1-2.3,2.7c-0.6-0.8,0.3-1.7-0.5-2.6c-0.9,2.1-1.7,3.9-2.6,5.7
				c-0.6,1.2-1.4,2.2-2.9,2.5c-1.3,0.3-1.9,0.2-1.4-1.5c0.7-2.3,2.3-4,3.6-5.9C296.8,66,298,65.9,301.1,67.7z M306.2,70.2
				c-2.5,0.4-4,2-6.3,2.2C301.6,67,302.2,66.7,306.2,70.2z M301.5,76.9c-1.4-3.2-0.2-4.3,5.4-5.8c-1.4,2.3-2.8,4.7-4.3,6.9
				c-3.3,4.7-3.3,4.7-7.9,1.4c-0.4-0.3-1.2-0.3-1.2-1.3C295.9,76.7,298.3,75.2,301.5,76.9z M316.1,275.2c-1.3-6-0.3-11.9-0.2-17.8
				c3.7,0,3.7,4.9,7,5.4c-0.2,1.6-1.4,2.8-2.1,4.2c-0.4,0.9-0.8,1.8-1.2,2.7C318.6,271.7,317.9,273.8,316.1,275.2z M313.5,264.7
				c-0.7,3.4,1.4,6.8,0.3,10.4C309.7,271,309.7,270.2,313.5,264.7z M313.2,250.5c0.7,5.1,2.2,10.3-2.1,14.6
				c-0.5,0.5-0.4,1.8-1.4,1.7c-1-0.2-1.2-1.4-1.3-2.2C307.7,259.2,310.2,254.8,313.2,250.5z M315.7,246.7c3.6,2.7,6.4,5.8,9.2,8.9
				c0.5,0.5,0.8,1.2,0.6,1.9c-0.1,0.5-0.3,1.1-0.6,1.3c-0.5,0.3-0.9-0.2-1.2-0.6c-1.2-1.9-3.3-2.8-5.1-4.2
				C316.3,252.5,313.6,250.7,315.7,246.7z M233.5,334c-5.1,8.5-6.4,9.4-12.3,8.8C222.5,336.2,228.5,336.4,233.5,334z M224.6,335.5
				c-2.6,0.8-4.3,2.8-6.7,4.5c-0.1-1.8,1.1-2.7,1.6-3.8C220.7,333.2,222.1,333,224.6,335.5z M234.7,331.3c-1.8-0.3-3,1.3-4.7,1.5
				c-1.6,0.1-3.1-0.6-4.5-1.7c-0.9-0.7-2.6-0.9-2.5-2.2c0.1-1.4,1.8-2,2.9-2.8c0.3-0.2,1-0.1,1.4-0.1c3.6-0.5,5,2.8,7.5,4.4
				C235.3,330.6,234.9,331.3,234.7,331.3z M53.5,261.6c-2.6,0-3-0.2-4.8-3C51.2,258.7,51.4,258.8,53.5,261.6z M37.8,263.3
				c6.2-4.8,9.1-5,11.4-1.2C45.6,262.5,42,262.9,37.8,263.3z M67.8,259.3c-7.8-4.3-12.7-11.5-18.8-18.7c3.6,0.5,5.9,1.5,7.5,4
				c1.2,1.9,2.1,3.9,3.3,5.7C62.1,253.8,65.4,256,67.8,259.3z M41.8,265c-4.2,4.8-5.2,5.2-8.4,3c-0.5-0.3-1.2-0.7-1-1.3
				c0.1-0.4,0.8-0.9,1.3-1C36.3,265.2,38.9,264.8,41.8,265z M54.7,264.3c-4.7,3.8-10,5.8-16.2,7C41.7,265.3,48.7,262.4,54.7,264.3z
				 M33.7,141.4c0.6,1.3,1,2,1.2,2.7c1.6,4.5,3.9,8.7,6.8,12.6c0.8,1,2.1,2.2,1.8,3.3c-0.4,1.4-2.3,0.8-3.5,0.9
				c-4.2,0.6-7.1-2-7.8-6.1C31.6,150.3,32.8,146.2,33.7,141.4z M38.6,147.2c-1.9-2.5-2.9-5.2-3.8-8.4
				C39.5,141.9,39.7,142.2,38.6,147.2z M43.2,148.4c-0.3,1-0.5,1.9-0.9,2.8c-0.3,0.6-0.1,2-1.3,1.6c-0.8-0.3-1.8-1.3-1.3-2.3
				c1-2,0.2-4.1,1-6.2C43.5,144.6,43.8,146.3,43.2,148.4z M46.2,160c-4.9-3.9-2.4-8.6-1.8-13.4c0.6,0.4,1,0.6,1.2,0.9
				c2.8,3.7,2.1,8.2,2.3,12.4C48,161.5,46.9,160.6,46.2,160z M46.7,165.8c-1.9-0.9-3.8-1.8-6-2.9c0.9-0.4,1.3-0.6,1.7-0.8
				c2.9-1.2,4.4-0.5,5.5,2.3c0.2,0.5,0.4,1-0.1,1.4C47.5,166.1,47,166,46.7,165.8z M111.7,69c1-0.1,1.2,1.2,1.8,1.8
				c1.6,1.8,0.1,3.4-0.3,5c-0.2,0.7-0.3,1.9-1.1,1.9c-1.1,0.1-1.8-0.8-2.2-1.8c-0.3-0.6-0.5-1.3-0.9-2.3c0.2-0.7,0.5-1.7,0.8-2.6
				C110.1,70.1,110.7,69.2,111.7,69z M117.2,65.6c-0.7,1.4-0.3,3.5-2,4.1c-0.7,0.2-1.3-0.9-1.3-1.7C114,66.1,115.8,66.1,117.2,65.6z
				 M115.4,76c-0.2-0.2-0.2-0.6-0.1-0.8c1.2-3.2,1.6-6.8,4.2-9.8c0.2,1.2,0.3,2.1,0.6,2.9c1.8,5.6,1,4.9-3.5,7.7
				C116.3,76.3,115.8,76.5,115.4,76z M113.7,84.6c0.2-5,1.4-6.6,6.2-8.2C119,80,116.3,81.9,113.7,84.6z M225.9,86.8
				c-13.6-3.9-27.1-6.4-40.4-9.8c0.5-0.9,1.1-0.7,1.7-0.7c4.5-0.4,8.9,0.3,13.4,0.3C210.2,76.5,218.9,78.7,225.9,86.8z M123.8,280.5
				c-9-7.1-16.5-15.7-23.2-24.8c-6.3-8.6-9.9-18.8-13.7-28.7c-2.4-6.1-3.9-12.4-5.3-18.8c-2.3-10.1-4.6-20-2.7-30.6
				c1.8-9.9,4.3-19.6,9.5-28.3c3.7-6.2,8.5-11.5,13.4-16.8c6.9-7.4,12-16.3,17.9-24.5c4-5.6,7.9-11.3,13.8-15.2
				c11.3-7.5,23.8-11.7,37-14c7.3-1.2,14.2,0.3,21,2.5c8,2.6,15.6,6.2,23.3,9.6c9.8,4.3,19.3,8.9,27.7,15.5
				c8.7,6.8,18.9,11.3,27.9,17.4c7.8,5.3,14.7,11,18.4,20.3c3.1,7.7,5.3,15.7,8.4,23.4c2.5,6.1,4.1,12.6,4.8,19.2
				c0.5,4.5,1.1,8.9,2.1,13.3c0.6,2.9,0.9,6,0.7,8.9c-0.8,10.8-5,20.7-9.2,30.5c-2.7,6.3-5,12.7-7.3,19c-1.6,4.2-3.6,7.9-6.9,10.6
				c-7.8,6.4-15.6,12.8-25,16.9c-9.9,4.4-19.1,10.2-29.7,13.4c-9,2.7-17.7,6-27.3,5.3c-3.6-0.3-7.3,1-10.8,0.4
				c-5.7-1-11.4-0.8-17-1.6c-5.4-0.8-11.1-0.5-16.3-2.3c-6.9-2.3-12.5-7.3-18.9-10.8C131.6,287.8,128,283.8,123.8,280.5z M137.9,296
				c-0.2,0.3-0.3,0.6-0.5,0.8c-3.5-2.2-7.8-2.9-10.1-7.1C130.9,291.9,134.4,294,137.9,296z M216.5,304.2c4-0.8,7.9-2.2,12.1-1.6
				c-12.7,6.2-25.7,11.4-40.3,10.8c-8.1-0.3-16.1-1.6-23.7-6.2c1.9-0.5,3-0.1,4.2,0c4.9,0.6,9.7,1.9,14.8,1
				c3.9-0.7,7.8-2.2,11.9-1.5C202.8,308,209.6,305.5,216.5,304.2z M163.5,304.5c7.1,0.7,14.3,0.6,21.4,1.6
				C177.6,308.4,170.7,304.6,163.5,304.5z M306,220.6c-1,12.3-3.1,24.3-11.8,33.9C298.6,243.4,301.8,231.9,306,220.6z M303,168
				c5.6,9.3,4.4,19.6,4.3,29.7C304.1,188.1,303.7,178,303,168z M300.2,168.6c-1.1-2.2-2-3.9-2.1-6.3
				C300.8,163.8,301,165.7,300.2,168.6z M293.5,144.4c5.5,3.9,4.8,9.5,5.6,14.6C296.2,154.7,294.8,149.9,293.5,144.4z M245.4,93.2
				c-10.2-2.2-17.7-8.4-25.8-14.4c10.3-0.8,18.4,4.7,27.1,8.1c10.3,4,17.9,11.9,25.5,19.6c3.7,3.8,7.1,7.9,9.6,12.6
				c0.4,0.7,0.9,1.4,0.4,2.4c-2.5-0.8-5.4-1.9-6.5-4c-3.2-6.1-8-10.4-13.2-14.6C257.4,98.7,251.9,94.6,245.4,93.2z M270,113.4
				c-9-5.1-17.4-11-25.2-17.7C255.2,98.8,263,105.6,270,113.4z M277.5,124.3c0.7,1.4,3,1.6,2.5,4.1c-2.7-2.4-5.3-4.2-8-5.9
				c-8.2-4.9-16.7-9.5-24.6-15c-9.3-6.5-18.7-12.8-29.3-17.1c-3.9-1.6-7.6-3.6-11.5-5.3c5.4,0.3,10.5,1.7,15.6,3.1
				c5.1,1.4,10,3.5,14.6,5.7c5.7,2.7,10.9,6.8,15.9,10.8c3.8,3.1,8,5.6,11.9,8.4C269.3,116.4,274.7,118.9,277.5,124.3z M280.5,123.1
				c5,2.8,5,2.8,6.9,12.2C285.2,131.5,283,127.6,280.5,123.1z M293.3,127.5c-2.6-1.4-6.2-2-7.5-4.7c-3.8-7.6-8.8-14.1-14.8-19.9
				c-7.1-7-14.5-13.5-23.7-17.8c-2.1-1-4.4-1.4-6.5-2.4c-6-2.9-12.1-5.1-18.8-5.5c-2.3-0.1-4.7,0-7-1.2c1-0.9,2-0.8,3-0.7
				c5.7,0.4,11.5,0.3,17.1,0c12.4-0.7,22.9,3.7,32.8,10c7.2,4.6,12.8,11,17.7,18.2c4.6,6.9,6.9,14.4,8.4,22.3
				C294.2,126.4,294.6,128.2,293.3,127.5z M296.1,143.3c-5.7-3.8-6.6-10-8.5-15.9C294.1,128.3,297,133.9,296.1,143.3z M321.3,201.9
				c-0.1,0-0.3,0-0.4,0c-0.5-3.1-0.9-6.3-1.6-9.3c-1.2-5.2-2.2-10.3-3.8-15.4c-2.6-8.2-5.1-16.5-10.9-23.1
				c-4.7-5.4-7.1-11.4-7.4-18.5c0-0.6-0.6-1.4,0.3-1.9c0.3-0.1,0.8,0,1.1,0.3c7.1,5.6,13.4,11.9,17.2,20.4
				c2.4,5.5,3.4,11.5,5.4,17.1c2.1,5.9,2.5,11.9,2.4,18c0,0.8,0.2,2.2-0.4,2.2c-2.8,0.2-1.3,2-1.4,3.2
				C321.8,197.3,321.6,199.6,321.3,201.9z M94.4,283.7c-3.4-1.8-5.1-4.3-6.4-7.2C90.5,278.3,93,280.1,94.4,283.7z M84.3,240.1
				c2.7,1,2.8,3.4,3.7,5.1c3.7,7.5,8.8,14,13.9,20.6c7.1,9.2,13.6,18.7,22.1,26.8c7.3,6.9,15.2,12.5,24.6,16
				c8.5,3.1,17,6.1,25.4,9.3c5.9,2.2,12,2.8,18.2,2.8c-7-1-13.9-2.6-20.5-5.1c-9.9-3.7-20.2-6.5-29.6-11.5
				c-4.8-2.5-9.1-5.5-12.9-9.4c4.3,1.9,8.6,3.9,13.2,4.9c2.3,0.5,4.8,0.9,6.8,2.2c4.4,2.7,9.1,4.5,13.8,6.7c9.5,4.5,19.5,6.6,30,6.2
				c12.7-0.5,24.3-5.1,35.5-10.4c7.1-3.3,14.5-6.1,21.2-10.4c4.5-2.9,10.2-4,14.5-7c11.6-8.1,21.9-17.6,30.6-29.1
				c8.8-11.7,12.8-24.8,13.7-38.7c0.8-13.2,1.9-26.4,0.5-39.6c-0.5-5.1-1.6-10-4.9-14c-3.3-4-2.2-8.8-3.6-13.2
				c3.1,2.7,5.4,6,7.1,9.6c4.3,8.9,7.2,18.2,9.1,27.9c1.4,7.1,2.3,14.1,1.7,21.2c-1.6,17.5-10,32.1-20.3,45.8
				c-4.7,6.3-10.5,11.5-15.8,17.3c-7.1,7.9-14.4,15.6-22.8,22.1c-5.6,4.3-11.5,8.3-18.2,10.8c-1.1,0.4-2.3,0.7-3.4,1.9
				c7.8-1.8,14.1-6.1,20.7-9.8c-10.5,12-24.2,18.1-39.4,22.3c1.2-3.8,4.7-4.5,7.6-6.8c-3.4,0.5-5.5,1.9-7.7,3.1
				c-5.1,2.9-10.1,5.6-16.4,3.3c-2.5-0.9-5.4-0.4-8.2-0.6c4.2,1.6,8.6,1.1,13.2,2.5c-6.3,3.5-12.7,4.8-19.1,6.1
				c-8,1.7-15.6-0.5-23.3-1.4c-3.4-0.4-6.6-1.3-9.9-2.2c-10.3-3-20.4-6.6-30.5-10.1c-5-1.7-6.6-6.8-3.5-11c0.8-1.1,1.5-2.2,2.1-3.3
				c0.4-0.7,0.8-1.4,0-2.2c-3.3-3.3-5.5-7.7-10.2-9.6c-0.7-0.3-1.7-0.9-2.2-0.2c-1.4,1.8-3,3.7-3.7,5.8c-0.6,1.5-1.7,3.4-0.5,5.2
				c2.5,3.4,5.2,6.8,9.3,8.3c2.2,0.8,2.5,1.8,2.4,3.8c-2.5-0.8-4.3-2.4-6-4c-7.3-6.9-11.4-16-15.4-24.9c-4.7-10.6-7-22.1-10.8-33
				C85.5,247.1,85.1,243.7,84.3,240.1z M117.5,305.8c-0.1,0.9-0.5,1-1.2,0.5c-2.7-1.9-5.2-4.1-6.9-7c-0.7-1.2-0.2-2.1,0.5-3
				c0.4,0.1,0.5,0.1,0.6,0.1C112.9,296.9,117.7,303.2,117.5,305.8z M118.2,303.9c-0.1-0.3,0-0.9,0.2-1.1c1-1.1,1.9-2.3,2.5-3.9
				c1,2.1,0,4.7-1.7,5.2C118.8,304.2,118.4,304.4,118.2,303.9z M115.9,297.6c0.4-1.8-1.5-3-1.4-5.2c2,1.3,4.1,2.2,3.3,5
				c-0.2,0.5-0.6,1.1-1.3,1.1C116.3,298.4,115.8,297.8,115.9,297.6z M82.6,222.3c1.6,4.4,3.2,8.8,4.8,13.2
				C83.9,231.7,83,227.1,82.6,222.3z M63.9,195.4c-2.3-3.1-2.4-3.4-1.9-6.3C63.4,190.9,64,192.8,63.9,195.4z M69.4,158.5
				c0.3,0.1,0.5,0.1,0.7,0.2c-0.9,4.2-1.8,8.4-2.7,12.6C66.7,166.7,68.4,162.7,69.4,158.5z M81.6,138c-1.3,4.9-2.8,9.7-4.4,14.5
				c-2.4,6.9-4.3,13.7-3.4,21.1c0.4,3.1,0.4,6.2,0.2,9.3c-0.6,8.6,1.1,17,2.7,25.4c0.8,4.5,1.7,9,2.9,13.4
				C63.5,187.2,66.9,162.9,81.6,138z M98.3,116.6c-8.9,19.7-17.5,39.4-21.8,61c-0.9-1.7-0.2-3.1-0.2-4.5c0-8.5,1.3-16.7,4.5-24.6
				c2.7-7,6.4-13.6,8.7-20.7C90.9,123.1,94.6,119.9,98.3,116.6z M124.2,97.2c0.5-0.5,1.3-1.2,2.3-0.6c-12.5,16-22.7,33.7-37.2,48
				c-0.4-0.7-0.1-1.2,0.1-1.8c2-6.8,5.1-13.2,8-19.7c1.4-3.3,3.1-6.4,5.4-9.3C108.6,106.6,117.3,103.1,124.2,97.2z M141.6,84.1
				c-10.1,7.9-21.3,13.9-31.8,20.9C115.9,90.9,128.7,87.4,141.6,84.1z M150.4,69.5c5.1-2.4,10.8-2.7,16.3-3.8
				c9.8-1.8,19.6-3.4,29,1.4c3,1.5,6.3,2.8,9,5.3c-5.5,1.2-10.7,0.5-15.9,1.2c-7.7,1-15.3,2.3-23,2.5c-7.1,0.1-14.2,1.3-21,3.4
				c-7.9,2.5-15.6,5.7-23.7,9.5c0.5-0.9,0.6-1.2,0.8-1.3C130.5,80.4,140,74.3,150.4,69.5z"/>
		</g>
		<g>
			<path fill="#F9F1E9" d="M193.3,34c-3,0.5-6,0.8-8.8,1.9c-3.9,1.5-6.9,4.1-7,8.2c-0.3,8.7-7,10.9-13,13.8c-3.5,1.7-7.4,2.5-11,4.1
				c-10,4.4-19.5,9.7-27.7,17c-1.3,1.2-3.6,1.5-3.5,3.9c3.5-2.6,7.4-4.8,10.5-7.8c5.5-5.3,12.7-7.5,19.1-11.1
				c5.8-3.2,12.3-4.4,18.6-6.1c4.4-1.2,9-0.5,13.4,0.4c7.4,1.5,14.9,1.2,22.3,0.8c4-0.3,8,0.5,12,0.2c7.9-0.6,15.6-2.1,23.3-3.9
				c-6.8,0.7-13.7,1.6-20.5,2.1c-7,0.6-14.1,0.4-21.1,0.6c-7,0.2-14.1,0.2-20.9-2.3c13.5-1.6,27.2-0.1,40.7-2.7
				c13.4-2.5,26.7-5.1,40.4-5.9c0-0.3-0.1-0.7-0.1-1c-7.3,0.8-14.5,1.5-21.8,2.3c-0.1-0.3-0.1-0.5-0.2-0.8
				c6.5-4.1,14.8-5.5,19.7-12.1c-3,0.2-4.7,2.7-7.2,3.9c-12.9,6.5-25.9,12.6-40.7,13.5c-7.6,0.4-15.2,0.8-22.8,0.4
				c-4.2-0.2-8.1,1.3-12.3,1.3c2.6-2,4.9-4.8,8.2-4.8c7.3-0.1,10.8-4.9,14.2-10.2c1.2-1.9,3.4-4.2,2.1-6.2
				C197.9,31.7,195.3,33.6,193.3,34z M184.4,47.6c1.5-2.7,3.9-1.9,6.6-2.4C188.9,47.5,186.8,47.7,184.4,47.6z M182.7,39
				c-0.3,1.4-0.5,2.7-0.9,3.9c-0.4,1.3-0.2,2.5-0.3,3.8c-0.1,1.4-1.3,1.6-2.4,1.6c-0.5,0-0.9-0.1-1-0.7
				C177.7,45.1,179.9,40.7,182.7,39z M188.2,36.9c1.4-0.1,1.3,0.3,1.3,1.5c0,4.1-3.4,5.2-6.4,7.7c0.3-2.2,0.6-3.6,0.6-5.1
				C183.8,37.9,185.6,37.1,188.2,36.9z M196.9,35.4c0.5,0,0.5,0.4,0.4,0.9c-0.3,2.7-4.9,6.9-8,6.9c2.3-2.6,4.4-5,6.5-7.5
				C196,35.5,196.5,35.4,196.9,35.4z"/>
		</g>
		<g>
			<path fill="#F9F1E9" d="M302,94.8c2.7,5.3,4.3,10.9,5.6,16.7c0.8,3.6,1.7,7,3.5,10.2c2.9,5.3,4.7,11.1,6.1,16.8
				c1.4,5.6,4.8,9.8,8.7,13.8c-5.7-7-8.6-15.2-9.6-24.1c0.8,2,1.5,4.1,2.5,5.9c3.4,5.9,7.9,11.5,10.3,17.8c3.2,8.6,11,13,15.7,20.1
				c1.9,2.8,3.8,5.7,6,8.4c-2.1-5.5-5.1-10.4-9.3-14.6c-4.7-4.7-9.8-9.2-11.4-16.4c3.7,1.5,6.5,4,9.2,6.6c-0.9-3.3-3.6-5-6.1-6.5
				c-4.8-2.9-8.1-6.9-10-12c-0.7-2-2.5-2.4-3.6-3.7c-1.7-2.1-2.2-4.7-3.2-7.1c-1.1-2.5-1.6-5.3-2.4-8c2.3,0,3,1.5,3.7,3.2
				c1.2,3,2.2,6.2,4.3,8.9c2.9,3.7,6,4.6,10.5,2.8c2.1-0.8,3.8-2.4,6.3-2.4c0.8,0,1.3-1.6,0.7-2.1c-2.2-2-1.9-4.8-2.3-7.3
				c-1.1-6.9-7.1-10-13.3-6.7c-0.9,0.5-1.8,0.8-2.7,1.3c-4.2,2.2-7.9,0.9-9.8-3.4c-0.5-1.2-1.1-2.3-1.8-3.4c1.3,4.9,3.8,9.5,5,15.2
				c-3.6-5.6-6-10.9-7.1-16.8c-0.8-4-2-7.9-3.6-11.6C303.8,95.5,303.5,93.9,302,94.8z M330.9,125.7c1.9,1.4,3.5,2.6,5.2,3.8
				C332.6,131.8,332.1,131.4,330.9,125.7z M320.5,121.6c5.3,0.3,7.4,3.8,9.3,7.6c0.4,0.9,1.5,1.7,0.6,2.7c-0.7,0.8-1.8,0.6-2.8,0.4
				c-1.2-0.2-2.1-0.9-3-1.8C322.4,127.9,321.5,124.9,320.5,121.6z M334.4,120c1.8,1.1,1.6,3.7,1.4,6.2c-2.2-1.5-4.6-2.1-6.4-4
				C330.9,120.8,333,119.2,334.4,120z M324.2,116.8c2.4-1.7,5.7-1.6,8.1,0.2c0.4,0.3,1.3,0.5,1,1.2c-0.3,0.9-1.4,1.2-2,0.8
				c-2.6-1.7-5-0.2-7.5,0c-0.8,0.1-1.6,0.2-2.5-0.4C322.4,118.1,323.3,117.5,324.2,116.8z"/>
		</g>
		<g>
			<path fill="#F9F1E9" d="M94.2,344.3c-0.8,2.1-4.8,4.5-7,4.5c-1.6,0-2.1-0.9-2.4-2.2c-0.6-3.2,1.6-5.6,5.8-6.2
				C93.5,339.9,95.1,341.7,94.2,344.3z"/>
		</g>
		<g>
			<path fill="#F9F1E9" d="M281.1,331c0.2-2,1.4-3.9,2.9-4.2c2.9-0.3,4.2,0.5,4.4,1.9c0.3,2.3-1.5,4.7-3.6,4.8
				C283,333.6,281,333.1,281.1,331z"/>
		</g>
		<g>
			<path fill="#F9F1E9" d="M55.7,89c-0.1,2-0.7,4-3.6,4.3c-1.2-0.1-2.8-0.3-2.6-2.1c0.2-1.8,0.7-3.9,3.1-4C54,87,55.8,87,55.7,89z"
				/>
		</g>
		<g>
			<path fill="#F9F1E9" d="M224.9,41.6c-1.2-0.1-2-0.7-2-2.1c0.1-2.7,1.4-3.4,6.4-3.4C229.3,39,227.2,41.8,224.9,41.6z"/>
		</g>
		<g>
			<path fill="#F9F1E9" d="M336.1,184.7c-0.3-1.9,1-2.8,2.6-3.1c1.1-0.2,2.6-0.1,3.1,1.2c-0.1,2.3-0.9,3.9-3,4.2
				C337.3,187.1,336.4,186,336.1,184.7z"/>
		</g>
		<g>
			<path fill="#F9F1E9" d="M36,196.6c-2,0.1-2.4-1-2.5-2.5c-0.1-1.5,0.2-3,2-3.1c1.5-0.1,2.4,0.8,2.4,2.4
				C37.8,194.7,38.6,196.5,36,196.6z"/>
		</g>
		<g>
			<path fill="#F9F1E9" d="M287.5,81.3L287.5,81.3c0.1,0,0.2,0.1,0.2,0.1C287.6,81.4,287.5,81.4,287.5,81.3z"/>
		</g>
		<g>
			<path fill="#F9F1E9" d="M301.3,91.7c0.8,1,0.8,2,0.7,3.1l0,0c0,0,0,0,0,0c-0.4-1.6-1.5-2.7-2.6-3.8c-3.6-3.6-7.9-6.2-11.7-9.5
				C292.8,84,297.6,87.2,301.3,91.7z"/>
		</g>
		<g>
			<path fill="#F9F1E9" d="M78.9,331.6c0.2,1.7-0.9,2.7-2.4,2.9c-0.9,0.1-2.3-0.2-2.3-1.1c-0.1-2.6,1.3-3.4,2.8-3.8
				C78.5,329.2,78.8,330.5,78.9,331.6z"/>
		</g>
		<g>
			<path fill="#F9F1E9" d="M85.5,315.6c-0.1,1.4-0.6,2.9-2.3,3.1c-1.1,0.1-1.7-0.9-2-1.9c0.3-1.2,0.4-2.8,2.1-2.9
				C84.5,313.6,85.6,314.2,85.5,315.6z"/>
		</g>
		<g>
			<path fill="#F9F1E9" d="M260.5,334.6c-0.2-1.7,1-1.9,2.3-2.4c0.9,0.3,2.1,0.5,2.1,1.8c0.1,1.7-1.2,2.6-2.6,2.7
				C261.1,337,260.7,335.8,260.5,334.6z"/>
		</g>
		<g>
			<path fill="#F9F1E9" d="M265.9,37.4c-0.1-0.9,0.3-1.7,1.4-2c1.5,0.4,2.8,1.1,3.1,2.7c0.1,0.8-0.3,2.4-1.1,2
				C268.1,39.6,266.1,39.4,265.9,37.4z"/>
		</g>
		<g>
			<path fill="#F9F1E9" d="M78.2,64.5c0.2,1.2-0.3,2.1-1.4,2.3c-1.4,0.1-2.1-0.8-2.4-2.2c-0.4-1.6,1.1-1.4,1.7-2.2
				C77.2,62.6,78,63.2,78.2,64.5z"/>
		</g>
		<g>
			<path fill="#F9F1E9" d="M292.6,319.2c0.1-1,0.2-2.3,1.8-2.3c1.4-0.5,1.8,0.6,2.1,1.5c0.4,1.5-0.7,2.1-1.7,2.3
				C293.8,320.8,292.5,320.3,292.6,319.2z"/>
		</g>
		<g>
			<path fill="#F9F1E9" d="M8.8,182.4c0.7-0.4,1.8-1.2,2.1,0.1c0.3,1.5-1.2,2.2-2.3,2.2c-1.1,0-3.3,0.2-3.3-1.3
				C5.4,180.8,7.6,182.8,8.8,182.4z"/>
		</g>
		<g>
			<path fill="#F9F1E9" d="M274.3,54.3c-0.2-0.9,0.4-1.5,1.4-1.5c1.2,0,2.4,0,2.8,1.7c-0.1,1.1-0.8,1.7-1.9,1.7
				C275.3,56.3,274.6,55.4,274.3,54.3z"/>
		</g>
		<g>
			<path fill="#F9F1E9" d="M20,245.5c0.1,1.4-0.8,2.4-2,2.6c-0.9,0.2-1.8-0.7-1.9-1.6c0-1.2,0.9-1.9,2-2.2
				C19.2,244.3,19.9,244.4,20,245.5z"/>
		</g>
		<g>
			<path fill="#F9F1E9" d="M342.1,142.8c-0.3-1,0.3-1.8,1.3-1.9c1.2-0.2,2.1,0.3,2.7,1.4c0,1.1-0.5,1.7-1.6,1.9
				C343.4,144.3,342.5,143.9,342.1,142.8z"/>
		</g>
		<g>
			<path fill="#F9F1E9" d="M345.8,195.4c-0.2-1.3,0.3-2,1.3-2.2c1-0.2,1.9,0.3,1.9,1.3c0,0.9-0.1,2-1.5,2.1
				C346.4,196.7,346,196.1,345.8,195.4z"/>
		</g>
		<g>
			<path fill="#F9F1E9" d="M273.1,313.4c2.2-2.3,3.4-5.5,6.3-7.3C278.1,309.2,275,310.8,273.1,313.4z"/>
		</g>
		<g>
			<path fill="#F9F1E9" d="M279.3,306.1c0,0,0.1-0.1,0.1-0.1c0.1,0,0.1-0.1,0.2-0.1c0,0.1-0.1,0.1-0.1,0.2
				C279.4,306,279.4,306.1,279.3,306.1z"/>
		</g>
		<g>
			<path fill="#F9F1E9" d="M62,326.3c0.4,1.2-0.4,2-1.2,2.4c-0.8,0.4-1.5-0.3-1.6-1.3c-0.1-1,0.5-1.7,1.5-2.1
				C61.5,325,61.8,325.7,62,326.3z"/>
		</g>
		<g>
			<path fill="#F9F1E9" d="M98.3,342.4c-0.2-1.1,0.2-1.9,1.3-2c1-0.1,1.7,0.5,1.7,1.5c0,1.1-0.4,1.8-1.5,1.9
				C98.7,343.9,98.4,343.3,98.3,342.4z"/>
		</g>
		<g>
			<path fill="#F9F1E9" d="M7.2,206.6c0.1,1.1-0.6,1.9-1.7,2.1c-0.9,0.1-1.6-0.3-1.5-1.4c0.1-0.9,0.4-1.8,1.7-2
				C6.1,205.7,7.2,205.6,7.2,206.6z"/>
		</g>
		<g>
			<path fill="#F9F1E9" d="M278.5,23.4c-2.1,1-4.1,2-6.2,3C273.8,24.5,275.7,23,278.5,23.4z"/>
		</g>
		<g>
			<path fill="#F9F1E9" d="M20.3,171.3c-1.2-2.2-1.5-4.2-0.5-6.3C19.9,167.1,21.5,168.9,20.3,171.3z"/>
		</g>
		<g>
			<path fill="#F9F1E9" d="M278.5,44.8c-1.7,1.3-3.6,1.2-6.3,1.6C274.5,44.6,276.5,44.8,278.5,44.8z"/>
		</g>
	</g>
	<g>
		<g opacity="0.25">
			<g>
				<path d="M113.8,28.2l4.6-1.5c0.2-1.6,0.4-3.2,0.6-4.7c0.2-1.6,0.4-3,0.6-4.5c0.2-1.4,0.4-2.8,0.6-4c0.2-1.3,0.4-2.4,0.5-3.3
					c0.1-1,0.3-1.8,0.4-2.4c0.1-0.7,0.2-1.1,0.2-1.3c0.1-0.3,0.2-0.6,0.3-0.7s0.3-0.3,0.6-0.4c0.3-0.1,0.6-0.1,0.8,0
					c0.2,0.1,0.4,0.4,0.5,0.7c0,0.1,0.1,0.5,0.3,1c0.1,0.5,0.3,1.2,0.6,2c0.2,0.8,0.5,1.7,0.8,2.7c0.3,1,0.6,2,0.9,3.1
					s0.6,2.1,0.9,3.1c0.3,1,0.6,2,0.9,2.9c0.1,0.4,0.3,0.8,0.4,1.2c0.1,0.4,0.3,0.8,0.4,1.1c0.8-0.3,1.5-0.5,2.2-0.7
					c0.7-0.2,1.3-0.4,1.7-0.6l0.2,0.7c-0.7,0.3-1.3,0.5-2,0.7c-0.6,0.2-1.3,0.4-1.9,0.6c0.6,1.6,1.3,3,2,4.3c0.7,1.2,1.5,2.2,2.4,3
					c0.9,0.8,1.9,1.2,3,1.5c1.1,0.2,2.4,0.1,3.7-0.4c0.6-0.2,1.1-0.4,1.7-0.8l0.4,0.7c-0.6,0.4-1.1,0.8-1.6,1
					c-0.5,0.3-1,0.5-1.5,0.6c-1.2,0.4-2.2,0.6-3.2,0.6c-0.9,0-1.8-0.2-2.6-0.5c-0.8-0.3-1.5-0.8-2.1-1.4c-0.6-0.6-1.2-1.3-1.7-2.1
					c-0.5-0.8-1-1.7-1.4-2.7c-0.4-1-0.8-2-1.2-3.1l-7.7,2.6c0,0.2,0,0.4-0.1,0.6c0,0.2-0.1,0.4-0.1,0.6c-0.2,1.6-0.4,3-0.6,4.2
					c-0.2,1.2-0.5,2.3-0.8,3.2s-0.6,1.7-0.9,2.3c-0.3,0.6-0.7,1.2-1,1.6c-0.3,0.4-0.7,0.8-1,1.1c-0.3,0.3-0.7,0.6-1,0.8l-0.5-0.6
					c0.4-0.5,0.7-0.9,1-1.4c0.3-0.5,0.6-1.1,1-1.8c0.4-0.7,0.7-1.6,1.1-2.6c0.4-1,0.7-2.1,1-3.4c0.3-1.3,0.6-2.7,0.8-4.2l-4.3,1.4
					L113.8,28.2z M122.4,6.1c-0.1,0-0.3,0.6-0.5,1.6c-0.2,1-0.4,2.4-0.7,4.2s-0.5,3.9-0.8,6.3c-0.3,2.4-0.6,5.1-0.9,8.1l7.4-2.5
					c-0.4-1.1-0.7-2.3-1-3.5c-0.3-1.2-0.6-2.4-0.9-3.5c-0.3-1.2-0.5-2.3-0.7-3.3c-0.2-1.1-0.4-2-0.6-2.9c-0.2-0.9-0.4-1.7-0.5-2.4
					c-0.2-0.7-0.3-1.2-0.4-1.6c-0.1-0.2-0.1-0.3-0.2-0.4C122.5,6.1,122.5,6.1,122.4,6.1z"/>
				<path d="M144.1,23.2c-0.2,0.8-0.5,1.5-0.8,2.1c-0.3,0.6-0.6,1-0.9,1.4c-0.3,0.4-0.6,0.6-1,0.8c-0.4,0.2-0.7,0.3-1.1,0.4
					c-0.3,0.1-0.7,0.1-1.1,0.1c-0.4,0-0.9-0.1-1.3-0.4c-0.4-0.2-0.9-0.7-1.2-1.2c-0.4-0.6-0.7-1.4-0.9-2.4s-0.3-2.1-0.3-3
					c0-1,0.1-1.9,0.3-2.6c0.2-0.9,0.4-1.7,0.7-2.5l0.8,0.1c0,0,0,0.1,0,0.4c0,0.2,0,0.6-0.1,1c0,0.4,0,0.9-0.1,1.4
					c0,0.5,0,1.1,0,1.6c0,0.6,0,1.2,0.1,1.7c0.1,0.6,0.1,1.1,0.3,1.7c0.3,1.2,0.7,2.1,1.3,2.7c0.6,0.6,1.2,0.8,1.9,0.7
					c0.8-0.2,1.4-0.8,2-1.9c0.5-1.1,0.9-2.5,1.2-4.2c0-0.8,0-1.5,0-2.2c0.1-0.7,0.1-1.3,0.2-1.9c0.1-0.5,0.2-1,0.3-1.4
					c0.1-0.4,0.2-0.6,0.2-0.8l0.7,0c0,1,0,1.9,0,2.7c0,0.8,0.1,1.5,0.1,2.2c0,0.6,0.1,1.2,0.2,1.7c0.1,0.5,0.1,0.9,0.2,1.3
					c0.2,0.8,0.4,1.4,0.8,1.8c0.3,0.4,0.8,0.6,1.3,0.4c0.4-0.1,0.7-0.3,0.9-0.6c0.3-0.3,0.5-0.8,0.7-1.5s0.4-1.5,0.6-2.6
					c0.2-1,0.4-2.3,0.5-3.8l0.8,0c-0.1,0.6-0.2,1.2-0.3,1.9c-0.1,0.7-0.2,1.3-0.3,2s-0.2,1.3-0.4,2c-0.2,0.6-0.4,1.2-0.6,1.7
					c-0.2,0.5-0.5,0.9-0.9,1.3s-0.8,0.6-1.3,0.7c-0.5,0.1-0.9,0.1-1.3,0c-0.4-0.1-0.7-0.3-1-0.5s-0.6-0.6-0.8-1
					C144.4,24.1,144.2,23.7,144.1,23.2z"/>
				<path d="M157,35.1c-0.8,0.1-1.5,0.1-2.1,0c-0.6-0.1-1.1-0.4-1.6-0.7c-0.4-0.3-0.8-0.8-1.1-1.3c-0.3-0.5-0.5-1.1-0.5-1.7
					c-0.1-0.6-0.1-1.1,0.1-1.6c0.1-0.5,0.3-1,0.6-1.4c0.3-0.4,0.6-0.7,1-1c0.4-0.3,0.9-0.4,1.3-0.5c0.5-0.1,0.9,0,1.4,0.2
					c0.5,0.2,1,0.5,1.4,0.9l-0.6,0.6c-0.4-0.3-0.7-0.6-1.1-0.7c-0.4-0.1-0.7-0.2-1.1-0.1c-0.4,0.1-0.7,0.2-1,0.4
					c-0.3,0.2-0.6,0.5-0.8,0.8c-0.2,0.3-0.4,0.7-0.5,1.1c-0.1,0.4-0.1,0.8-0.1,1.2c0.1,0.5,0.2,1,0.4,1.4c0.2,0.4,0.5,0.8,0.9,1.1
					s0.8,0.5,1.3,0.6c0.5,0.1,1.1,0.1,1.8,0c0.9-0.1,1.6-0.5,2.2-1c0.6-0.5,1-1.1,1.3-1.9c0.3-0.7,0.5-1.6,0.5-2.4
					c0.1-0.9,0-1.8-0.1-2.6l-0.4-3.1l-0.2-1.5c-0.5,0.9-1.1,1.6-1.9,2.2c-0.8,0.6-1.7,1-2.9,1.2c-0.5,0.1-1,0.1-1.5,0
					c-0.5-0.1-1-0.3-1.5-0.6c-0.5-0.3-0.9-0.8-1.2-1.5s-0.6-1.5-0.7-2.5c-0.1-0.7-0.1-1.4,0-2.1c0.1-0.7,0.3-1.4,0.5-2.2
					c0.2-0.7,0.6-1.4,1-2c0.4-0.6,0.8-1.2,1.3-1.7c0.5-0.5,1.1-0.9,1.7-1.3c0.6-0.3,1.2-0.5,1.9-0.6c0.4-0.1,0.8,0,1.2,0
					c0.4,0.1,0.7,0.2,1,0.4c0.3,0.2,0.5,0.4,0.8,0.6c0.2,0.2,0.4,0.5,0.6,0.7c0.1-0.6,0.2-1,0.3-1.4c0.1-0.4,0.2-0.7,0.3-0.9
					l0.8,0.3c0,0.1-0.1,0.4-0.2,0.9c-0.1,0.5-0.2,1.2-0.2,2c-0.1,0.9-0.1,1.9-0.1,3.1s0.1,2.6,0.4,4.1c0,0.3,0.1,0.7,0.2,1.1
					c0.1,0.4,0.1,0.8,0.2,1.2c0.1,0.4,0.1,0.8,0.2,1.2c0.1,0.4,0.1,0.8,0.2,1.1c0.3,1.8,0.3,3.3,0,4.6c-0.2,1.2-0.6,2.2-1.1,3
					c-0.5,0.8-1.2,1.3-1.9,1.7C158.5,34.7,157.8,35,157,35.1z M156.6,23.8c0.4-0.1,0.9-0.2,1.2-0.4c0.4-0.2,0.7-0.4,1-0.7
					c0.3-0.3,0.5-0.6,0.8-1c0.2-0.4,0.4-0.8,0.5-1.2c-0.1-1.6-0.2-2.9-0.1-4.1c0-1.2,0.1-2.2,0.2-3c-0.1-0.3-0.3-0.6-0.5-0.9
					c-0.2-0.3-0.4-0.5-0.7-0.7s-0.6-0.3-0.9-0.4c-0.3-0.1-0.7-0.1-1.1-0.1c-0.5,0.1-1.1,0.3-1.7,0.7c-0.6,0.4-1.2,1-1.7,1.7
					c-0.5,0.7-0.9,1.6-1.2,2.7c-0.3,1-0.3,2.2-0.1,3.5c0.1,0.6,0.2,1.2,0.5,1.7c0.2,0.5,0.5,0.9,0.9,1.3c0.4,0.3,0.8,0.6,1.3,0.7
					C155.4,23.9,156,23.9,156.6,23.8z"/>
				<path d="M172.8,19.4c-0.4,0.8-0.7,1.4-1.1,1.9c-0.4,0.5-0.7,0.9-1.1,1.2s-0.7,0.5-1.1,0.7c-0.4,0.1-0.8,0.2-1.2,0.3
					c-0.3,0-0.7,0-1.1-0.1c-0.4-0.1-0.8-0.3-1.2-0.6c-0.4-0.3-0.7-0.8-1-1.4s-0.5-1.5-0.5-2.5c-0.1-1.1,0-2.1,0.2-3.1
					c0.2-1,0.4-1.8,0.7-2.5c0.3-0.8,0.7-1.6,1.1-2.4l0.8,0.2c0,0,0,0.1-0.1,0.4s-0.1,0.5-0.2,0.9c-0.1,0.4-0.2,0.8-0.3,1.4
					c-0.1,0.5-0.2,1.1-0.3,1.6c-0.1,0.6-0.1,1.1-0.2,1.7c0,0.6,0,1.2,0,1.7c0.1,1.2,0.4,2.2,0.9,2.9c0.5,0.7,1.1,1,1.8,1
					c0.8,0,1.5-0.6,2.2-1.5s1.3-2.3,1.9-4c0.1-0.8,0.2-1.5,0.4-2.2c0.2-0.7,0.3-1.3,0.5-1.8c0.2-0.5,0.3-1,0.5-1.3
					c0.2-0.4,0.3-0.6,0.3-0.7l0.7,0.1c-0.2,1-0.3,1.9-0.4,2.7c-0.1,0.8-0.2,1.5-0.2,2.2c-0.1,0.6-0.1,1.2-0.1,1.7c0,0.5,0,0.9,0,1.3
					c0,0.8,0.2,1.4,0.5,1.9c0.3,0.5,0.7,0.7,1.2,0.6c0.4,0,0.7-0.2,1-0.5c0.3-0.3,0.6-0.7,1-1.4c0.3-0.6,0.6-1.4,1-2.4
					c0.3-1,0.7-2.2,1.1-3.7L181,14c-0.2,0.6-0.4,1.2-0.6,1.8c-0.2,0.7-0.4,1.3-0.6,2c-0.2,0.7-0.5,1.3-0.7,1.9
					c-0.2,0.6-0.5,1.1-0.9,1.6c-0.3,0.5-0.7,0.9-1.1,1.1c-0.4,0.3-0.8,0.5-1.3,0.5c-0.5,0-0.9,0-1.3-0.2c-0.4-0.2-0.7-0.4-1-0.7
					c-0.3-0.3-0.5-0.7-0.6-1.1C172.9,20.4,172.8,19.9,172.8,19.4z"/>
				<path d="M181.9,12.5c-0.2,0.4-0.3,0.8-0.4,1.1c-0.1,0.4-0.3,0.7-0.5,1.1c-0.2,0.4-0.4,0.7-0.6,1.1c-0.2,0.4-0.5,0.7-0.8,1.1
					l-0.2-0.2c0.4-0.8,0.7-1.7,0.9-2.6c0.3-0.9,0.6-1.9,0.8-2.9c-0.1-0.2-0.1-0.3-0.2-0.5c-0.1-0.1-0.1-0.3-0.1-0.4
					c0-0.1-0.1-0.2-0.1-0.4c0-0.1,0-0.3,0-0.4c0-0.2,0-0.4,0.1-0.7c0.1-0.3,0.2-0.5,0.3-0.7c0.1-0.2,0.2-0.4,0.4-0.6
					c0.1-0.2,0.3-0.2,0.5-0.2c0.2,0,0.3,0,0.4,0.1c0.1,0.1,0.2,0.2,0.3,0.3s0.1,0.3,0.1,0.4c0,0.1,0,0.3,0,0.4c0,0.2,0,0.4-0.1,0.7
					c0,0.3-0.1,0.5-0.2,0.8c-0.1,0.2-0.1,0.5-0.2,0.6c0,0.2-0.1,0.3-0.1,0.4c0.1,0.4,0.3,0.7,0.5,1.1s0.5,0.8,0.9,1.1
					c0.3,0.4,0.7,0.8,1,1.2c0.4,0.4,0.7,0.9,1,1.3c0.3,0.5,0.5,1,0.7,1.5c0.2,0.5,0.3,1.1,0.3,1.7c0,0.8-0.1,1.5-0.4,2
					c-0.3,0.5-0.6,0.9-1,1.2c0.6-0.2,1.2-0.6,1.7-1.3c0.5-0.6,1-1.3,1.5-2.1c0.5-0.8,0.9-1.6,1.3-2.5c0.4-0.9,0.7-1.7,1-2.4l0.8,0.2
					c-0.5,1.1-1,2.3-1.5,3.4c-0.5,1.1-1.1,2.1-1.7,2.9c-0.6,0.9-1.4,1.5-2.2,2.1c-0.8,0.5-1.7,0.8-2.8,0.8c-0.3,0-0.6,0-0.8-0.1
					c-0.3-0.1-0.6-0.1-0.8-0.2c-0.3-0.1-0.5-0.2-0.8-0.4s-0.4-0.4-0.6-0.6l0.7-0.4c0.1,0.2,0.3,0.4,0.6,0.5c0.2,0.2,0.6,0.2,1,0.3
					c0.4,0,0.7-0.1,1-0.2c0.3-0.2,0.6-0.4,0.8-0.7c0.2-0.3,0.4-0.6,0.5-1c0.1-0.4,0.2-0.8,0.2-1.2c0-0.9-0.1-1.7-0.4-2.3
					c-0.3-0.7-0.5-1.2-0.9-1.8c-0.3-0.5-0.7-1-1.1-1.4C182.4,13.4,182.1,12.9,181.9,12.5z"/>
				<path d="M187.2,6.9c0.2,0.1,0.4,0.3,0.7,0.5s0.6,0.3,0.9,0.5c0.4,0.2,0.8,0.3,1.2,0.5c0.5,0.2,0.9,0.3,1.5,0.4
					c0.3-1.2,0.6-2.2,0.9-3.2c0.3-0.9,0.7-1.7,1.1-2.4c0.4-0.7,0.8-1.2,1.2-1.5s0.8-0.5,1.1-0.5c0.4,0,0.7,0.2,0.8,0.5
					c0.2,0.3,0.2,0.8,0.2,1.3c0,0.4-0.1,0.8-0.2,1.3c-0.1,0.5-0.2,0.9-0.4,1.5c-0.2,0.5-0.4,1.1-0.6,1.6c-0.2,0.6-0.4,1.1-0.7,1.6
					c1.3,0,2.6-0.2,3.7-0.4c1.1-0.3,2.1-0.5,3-0.8l0.3,0.8c-1.1,0.3-2.3,0.7-3.4,0.9s-2.5,0.4-4,0.4c-0.4,0.8-0.8,1.6-1.2,2.4
					c-0.4,0.8-0.8,1.4-1.1,2c0,0.7,0,1.6,0,2.4c0,0.9,0.1,1.7,0.3,2.5c0.2,0.8,0.5,1.4,0.8,1.9c0.4,0.5,0.9,0.8,1.6,0.8
					c0.6,0,1.1-0.2,1.6-0.6c0.5-0.4,1-1,1.4-1.7c0.4-0.7,0.8-1.5,1.2-2.3c0.4-0.8,0.7-1.6,1.1-2.4l0.8,0.2c-0.2,0.5-0.4,1-0.7,1.6
					c-0.2,0.6-0.5,1.2-0.8,1.8c-0.3,0.6-0.6,1.2-1,1.7c-0.4,0.6-0.7,1.1-1.1,1.5c-0.4,0.4-0.9,0.8-1.3,1c-0.5,0.2-1,0.4-1.5,0.3
					c-0.6,0-1.1-0.2-1.6-0.5c-0.5-0.3-0.9-0.8-1.3-1.5c-0.3-0.7-0.6-1.6-0.7-2.8s-0.2-2.7-0.1-4.5c0.1-1.5,0.2-2.8,0.5-4.1
					c-1.1-0.2-2.1-0.5-2.8-0.8c-0.8-0.4-1.3-0.7-1.7-1L187.2,6.9z M192.5,12.5c0.3-0.5,0.5-0.9,0.7-1.4c0.2-0.5,0.4-0.9,0.7-1.4
					l-0.7,0l-0.4,0c-0.1,0.4-0.1,0.9-0.1,1.3S192.6,11.9,192.5,12.5L192.5,12.5z M195.9,2.2c-0.1,0-0.3,0.1-0.6,0.3
					s-0.5,0.6-0.8,1.1s-0.6,1.2-0.9,2.1s-0.6,1.9-0.8,3.2l0.4,0l1,0.1c0.3-0.6,0.5-1.3,0.7-1.9c0.2-0.6,0.4-1.2,0.6-1.7
					c0.2-0.5,0.3-1,0.4-1.4c0.1-0.4,0.1-0.8,0.2-1.1C196.1,2.4,196.1,2.2,195.9,2.2z"/>
				<path d="M199.8,27.6c0.4-0.4,0.7-0.9,1.1-1.4c0.3-0.5,0.5-0.9,0.6-1.3c-0.1,0-0.1,0-0.2,0c-0.1,0-0.1,0-0.2,0
					c-0.4,0-0.8-0.2-1-0.5c-0.2-0.3-0.3-0.6-0.2-1c0-0.4,0.2-0.7,0.5-1c0.3-0.2,0.7-0.3,1.1-0.3c0.5,0,0.9,0.3,1.1,0.6
					c0.2,0.4,0.3,0.8,0.3,1.3c0,0.4-0.1,0.7-0.3,1.1s-0.3,0.7-0.5,1.1c-0.2,0.4-0.5,0.7-0.7,1c-0.3,0.3-0.6,0.6-0.9,0.8L199.8,27.6z
					"/>
				<path d="M219,23.6c0.2-1.1,0.7-2,1.3-2.7s1.4-1.4,2.3-2c-0.7-0.9-1.4-1.8-2.2-2.7c-0.8-0.9-1.4-1.8-2-2.7
					c-0.6-0.9-1-1.9-1.3-2.8c-0.3-1-0.3-1.9-0.1-2.9c0.2-1.1,0.7-2.1,1.4-2.9c0.7-0.8,1.5-1.4,2.5-1.9c1-0.5,2-0.8,3.2-0.9
					c1.1-0.1,2.3-0.1,3.3,0.2c0.9,0.2,1.6,0.5,2.3,0.8c0.6,0.4,1.2,0.8,1.6,1.3c0.4,0.5,0.7,1.1,0.8,1.7c0.1,0.6,0.1,1.3,0,1.9
					c-0.1,0.7-0.4,1.3-0.7,1.7c-0.3,0.4-0.7,0.8-1.1,1.1c-0.4,0.3-0.8,0.5-1.3,0.6s-0.8,0.2-1.2,0.2c-0.4,0-0.8,0-1.3,0l0.1-0.8
					c0,0,0.1,0,0.4,0c0.2,0,0.5,0,0.8,0c0.3,0,0.6-0.1,1-0.2c0.4-0.1,0.7-0.3,1.1-0.5c0.3-0.2,0.6-0.5,0.9-0.9
					c0.3-0.4,0.5-0.8,0.6-1.4c0.2-0.8,0.1-1.5-0.1-2.1c-0.2-0.6-0.6-1-1-1.4c-0.4-0.4-0.9-0.7-1.5-0.9c-0.5-0.2-1-0.4-1.5-0.5
					c-1.1-0.2-2.1-0.3-3-0.1c-0.9,0.2-1.8,0.5-2.5,0.9c-0.7,0.4-1.3,1-1.8,1.6c-0.5,0.6-0.8,1.3-0.9,2c-0.2,0.9-0.1,1.8,0.1,2.6
					c0.3,0.9,0.7,1.7,1.3,2.6s1.2,1.7,1.9,2.6c0.7,0.9,1.4,1.7,2.1,2.6c1-0.5,2-1.1,3-1.6c1-0.5,2-1,2.9-1.6c0.9-0.6,1.7-1.2,2.3-2
					c0.6-0.7,1.1-1.6,1.3-2.6c0.1-0.4,0.1-0.9,0.1-1.3c0-0.5-0.1-1-0.2-1.5l0.7-0.2c0.3,1.2,0.3,2.3,0.1,3.2
					c-0.1,0.7-0.4,1.3-0.7,1.8c-0.3,0.6-0.8,1.1-1.3,1.5c-0.5,0.5-1.1,0.9-1.7,1.3c-0.6,0.4-1.3,0.8-1.9,1.2
					c-0.7,0.4-1.4,0.7-2.1,1.1c-0.7,0.4-1.4,0.7-2.1,1.1c0.4,0.6,0.9,1.1,1.2,1.7c0.4,0.6,0.7,1.1,0.9,1.7c0.2,0.6,0.4,1.1,0.5,1.7
					c0.1,0.6,0.1,1.1-0.1,1.7c-0.1,0.7-0.4,1.2-0.7,1.7c-0.3,0.5-0.8,0.9-1.2,1.2c-0.5,0.3-1,0.5-1.6,0.6c-0.6,0.1-1.2,0.1-1.8,0
					c-0.6-0.1-1.2-0.4-1.6-0.7c-0.5-0.3-0.9-0.7-1.1-1.1c-0.3-0.4-0.5-0.9-0.6-1.5C218.9,24.9,218.9,24.3,219,23.6z M225.8,25.9
					c0.1-0.5,0.1-1,0-1.6c-0.1-0.5-0.3-1.1-0.5-1.6c-0.3-0.5-0.6-1.1-0.9-1.6c-0.4-0.5-0.8-1.1-1.2-1.7c-0.9,0.6-1.6,1.2-2.2,1.9
					c-0.6,0.7-1,1.5-1.2,2.4c-0.2,1-0.1,1.9,0.4,2.7s1.3,1.2,2.3,1.4c0.5,0.1,0.9,0.1,1.3,0c0.4-0.1,0.7-0.2,1-0.4s0.5-0.4,0.7-0.7
					C225.6,26.6,225.8,26.3,225.8,25.9z"/>
				<path d="M232.6,13.2c0.2,0.2,0.3,0.4,0.6,0.6c0.2,0.2,0.5,0.5,0.8,0.7c0.3,0.2,0.7,0.5,1.1,0.7c0.4,0.3,0.9,0.5,1.4,0.7
					c0.5-1.1,1.1-2.1,1.6-2.9s1.1-1.5,1.6-2.1c0.5-0.6,1-1,1.5-1.2c0.5-0.2,0.9-0.3,1.2-0.2c0.4,0.1,0.6,0.4,0.7,0.7
					c0.1,0.4,0,0.8-0.1,1.3c-0.1,0.4-0.3,0.8-0.5,1.2s-0.5,0.9-0.7,1.3c-0.3,0.5-0.6,0.9-0.9,1.4s-0.7,1-1,1.4
					c1.3,0.3,2.5,0.4,3.7,0.4c1.2,0,2.2,0,3.1-0.1l0.2,0.8c-1.2,0.1-2.3,0.1-3.6,0.1c-1.2,0-2.5-0.2-3.9-0.5
					c-0.6,0.7-1.1,1.4-1.7,2.1c-0.6,0.6-1.1,1.2-1.5,1.7c-0.2,0.7-0.4,1.5-0.6,2.4c-0.2,0.9-0.3,1.7-0.3,2.5c0,0.8,0.1,1.5,0.4,2.1
					c0.2,0.6,0.7,1,1.3,1.2c0.5,0.2,1.1,0.1,1.7-0.2s1.2-0.8,1.7-1.4c0.6-0.6,1.2-1.2,1.7-2c0.6-0.7,1.1-1.4,1.6-2.1l0.7,0.4
					c-0.3,0.4-0.7,0.9-1,1.4c-0.4,0.5-0.8,1-1.2,1.5c-0.4,0.5-0.9,1-1.3,1.5c-0.5,0.5-1,0.9-1.5,1.2c-0.5,0.3-1,0.6-1.5,0.7
					c-0.5,0.1-1,0.1-1.6,0c-0.6-0.2-1-0.4-1.5-0.8c-0.4-0.4-0.7-1-0.9-1.7s-0.2-1.7-0.1-2.9c0.1-1.2,0.4-2.7,1-4.4
					c0.4-1.4,0.9-2.7,1.4-3.8c-1.1-0.5-1.9-1-2.6-1.5c-0.7-0.5-1.1-1-1.5-1.4L232.6,13.2z M236.5,19.8c0.3-0.4,0.7-0.8,1-1.2
					c0.3-0.4,0.6-0.8,1-1.2l-0.7-0.2l-0.4-0.1c-0.1,0.4-0.3,0.8-0.4,1.3S236.7,19.3,236.5,19.8L236.5,19.8z M242.2,10.5
					c-0.1,0-0.3,0-0.6,0.2c-0.3,0.2-0.6,0.5-1.1,0.9c-0.4,0.4-0.9,1-1.3,1.8c-0.5,0.8-1,1.7-1.5,2.9l0.4,0.1l0.9,0.3
					c0.4-0.6,0.8-1.1,1.2-1.7c0.3-0.5,0.7-1.1,0.9-1.5c0.3-0.5,0.5-0.9,0.7-1.3c0.2-0.4,0.3-0.7,0.4-1
					C242.3,10.8,242.3,10.6,242.2,10.5z"/>
				<path d="M254.4,14.2c-0.3,0.8-0.7,1.6-1.4,2.5c-0.6,0.9-1.4,1.8-2.3,2.8c-0.9,1-1.9,2-3,3.1c-1.1,1.1-2.3,2.2-3.5,3.4
					c-0.3,0.6-0.6,1.2-0.8,1.7c-0.3,0.6-0.5,1.2-0.8,1.8c0.3-0.4,0.7-0.8,1.1-1.2c0.4-0.5,0.9-0.9,1.4-1.4c0.5-0.5,1.1-0.9,1.6-1.3
					c0.6-0.4,1.1-0.8,1.7-1.1c0.6-0.3,1.1-0.5,1.7-0.6c0.6-0.1,1.1-0.1,1.6,0.1c0.3,0.1,0.6,0.3,0.8,0.5c0.2,0.2,0.4,0.5,0.5,0.8
					c0.1,0.3,0.2,0.6,0.2,1c0,0.3-0.1,0.7-0.2,1c-0.2,0.4-0.4,0.9-0.7,1.4c-0.3,0.5-0.6,1-1,1.4c-0.3,0.5-0.7,1-1,1.5
					c-0.3,0.5-0.6,1-0.7,1.4c-0.1,0.4-0.2,0.7-0.1,1.1c0.1,0.3,0.4,0.6,0.9,0.8c0.3,0.1,0.7,0.1,1.2-0.1c0.4-0.2,0.9-0.4,1.4-0.8
					s1-0.7,1.4-1.2c0.5-0.5,0.9-0.9,1.4-1.4c0.4-0.5,0.8-0.9,1.2-1.4c0.4-0.4,0.7-0.8,0.9-1l0.7,0.5c-0.4,0.5-0.9,1-1.3,1.5
					c-0.5,0.5-0.9,1.1-1.4,1.6c-0.5,0.5-1,1-1.5,1.5c-0.5,0.5-1,0.8-1.5,1.1c-0.5,0.3-1,0.5-1.5,0.6c-0.5,0.1-1,0.1-1.6-0.1
					c-0.5-0.2-0.8-0.4-1.1-0.6c-0.3-0.3-0.4-0.5-0.5-0.8c-0.1-0.3-0.1-0.6-0.1-1s0.1-0.7,0.3-1.1c0.2-0.4,0.4-0.9,0.7-1.4
					c0.3-0.5,0.7-1,1-1.5c0.4-0.5,0.7-1,1.1-1.6c0.3-0.5,0.6-1,0.8-1.5c0.1-0.3,0.1-0.5,0.1-0.8c-0.1-0.3-0.2-0.4-0.6-0.6
					c-0.5-0.2-1.1-0.2-1.7,0c-0.6,0.2-1.2,0.5-1.9,0.9c-0.6,0.4-1.3,0.9-1.9,1.5c-0.6,0.6-1.3,1.2-1.8,1.8c-0.6,0.6-1.1,1.2-1.6,1.8
					c-0.5,0.6-0.9,1-1.2,1.4l-0.7-0.4c0-0.1,0.1-0.1,0.1-0.3c0-0.1,0.1-0.3,0.2-0.4c0.1-0.2,0.2-0.4,0.2-0.7c0.1-0.3,0.2-0.6,0.4-1
					c0.4-1.2,1-2.7,1.8-4.6c0.8-1.9,1.8-4.1,3-6.7c0.6-1.3,1.1-2.3,1.7-3.2c0.5-0.9,1.1-1.6,1.5-2.1c0.5-0.5,0.9-0.9,1.3-1.2
					c0.4-0.3,0.8-0.5,1.1-0.6c0.3-0.1,0.6-0.1,0.9-0.1c0.2,0,0.4,0.1,0.6,0.1c0.6,0.2,0.9,0.6,1.1,1.2
					C254.7,12.8,254.7,13.4,254.4,14.2z M253.2,11.8c-0.3-0.1-0.7-0.1-1,0.2c-0.4,0.2-0.8,0.6-1.2,1.1c-0.4,0.5-0.9,1.1-1.3,1.9
					c-0.4,0.8-0.9,1.6-1.4,2.5s-1,2-1.5,3.1c-0.5,1.1-1,2.3-1.6,3.5c1-0.9,2-1.8,2.9-2.7s1.7-1.8,2.5-2.7c0.7-0.9,1.4-1.7,1.9-2.5
					c0.5-0.8,0.9-1.5,1.2-2.2c0.1-0.2,0.1-0.4,0.2-0.6c0-0.2,0.1-0.4,0-0.6c0-0.2-0.1-0.4-0.2-0.5C253.6,12,253.4,11.9,253.2,11.8z"
					/>
			</g>
		</g>
		<g>
			<g>
				<path fill="#FFFFFF" d="M112.8,27.2l4.6-1.5c0.2-1.6,0.4-3.2,0.6-4.7c0.2-1.6,0.4-3,0.6-4.5c0.2-1.4,0.4-2.8,0.6-4
					c0.2-1.3,0.4-2.4,0.5-3.3c0.1-1,0.3-1.8,0.4-2.4c0.1-0.7,0.2-1.1,0.2-1.3c0.1-0.3,0.2-0.6,0.3-0.7s0.3-0.3,0.6-0.4
					c0.3-0.1,0.6-0.1,0.8,0c0.2,0.1,0.4,0.4,0.5,0.7c0,0.1,0.1,0.5,0.3,1c0.1,0.5,0.3,1.2,0.6,2c0.2,0.8,0.5,1.7,0.8,2.7
					c0.3,1,0.6,2,0.9,3.1s0.6,2.1,0.9,3.1c0.3,1,0.6,2,0.9,2.9c0.1,0.4,0.3,0.8,0.4,1.2c0.1,0.4,0.3,0.8,0.4,1.1
					c0.8-0.3,1.5-0.5,2.2-0.7c0.7-0.2,1.3-0.4,1.7-0.6l0.2,0.7c-0.7,0.3-1.3,0.5-2,0.7c-0.6,0.2-1.3,0.4-1.9,0.6
					c0.6,1.6,1.3,3,2,4.3c0.7,1.2,1.5,2.2,2.4,3c0.9,0.8,1.9,1.2,3,1.5c1.1,0.2,2.4,0.1,3.7-0.4c0.6-0.2,1.1-0.4,1.7-0.8l0.4,0.7
					c-0.6,0.4-1.1,0.8-1.6,1c-0.5,0.3-1,0.5-1.5,0.6c-1.2,0.4-2.2,0.6-3.2,0.6c-0.9,0-1.8-0.2-2.6-0.5c-0.8-0.3-1.5-0.8-2.1-1.4
					c-0.6-0.6-1.2-1.3-1.7-2.1c-0.5-0.8-1-1.7-1.4-2.7c-0.4-1-0.8-2-1.2-3.1l-7.7,2.6c0,0.2,0,0.4-0.1,0.6c0,0.2-0.1,0.4-0.1,0.6
					c-0.2,1.6-0.4,3-0.6,4.2c-0.2,1.2-0.5,2.3-0.8,3.2s-0.6,1.7-0.9,2.3c-0.3,0.6-0.7,1.2-1,1.6c-0.3,0.4-0.7,0.8-1,1.1
					c-0.3,0.3-0.7,0.6-1,0.8l-0.5-0.6c0.4-0.5,0.7-0.9,1-1.4c0.3-0.5,0.6-1.1,1-1.8c0.4-0.7,0.7-1.6,1.1-2.6c0.4-1,0.7-2.1,1-3.4
					c0.3-1.3,0.6-2.7,0.8-4.2l-4.3,1.4L112.8,27.2z M121.4,5.1c-0.1,0-0.3,0.6-0.5,1.6c-0.2,1-0.4,2.4-0.7,4.2s-0.5,3.9-0.8,6.3
					c-0.3,2.4-0.6,5.1-0.9,8.1l7.4-2.5c-0.4-1.1-0.7-2.3-1-3.5c-0.3-1.2-0.6-2.4-0.9-3.5c-0.3-1.2-0.5-2.3-0.7-3.3
					c-0.2-1.1-0.4-2-0.6-2.9c-0.2-0.9-0.4-1.7-0.5-2.4c-0.2-0.7-0.3-1.2-0.4-1.6c-0.1-0.2-0.1-0.3-0.2-0.4
					C121.5,5.1,121.5,5.1,121.4,5.1z"/>
				<path fill="#FFFFFF" d="M143.1,22.2c-0.2,0.8-0.5,1.5-0.8,2.1c-0.3,0.6-0.6,1-0.9,1.4c-0.3,0.4-0.6,0.6-1,0.8
					c-0.4,0.2-0.7,0.3-1.1,0.4c-0.3,0.1-0.7,0.1-1.1,0.1c-0.4,0-0.9-0.1-1.3-0.4c-0.4-0.2-0.9-0.7-1.2-1.2c-0.4-0.6-0.7-1.4-0.9-2.4
					s-0.3-2.1-0.3-3c0-1,0.1-1.9,0.3-2.6c0.2-0.9,0.4-1.7,0.7-2.5l0.8,0.1c0,0,0,0.1,0,0.4c0,0.2,0,0.6-0.1,1c0,0.4,0,0.9-0.1,1.4
					c0,0.5,0,1.1,0,1.6c0,0.6,0,1.2,0.1,1.7c0.1,0.6,0.1,1.1,0.3,1.7c0.3,1.2,0.7,2.1,1.3,2.7c0.6,0.6,1.2,0.8,1.9,0.7
					c0.8-0.2,1.4-0.8,2-1.9c0.5-1.1,0.9-2.5,1.2-4.2c0-0.8,0-1.5,0-2.2c0.1-0.7,0.1-1.3,0.2-1.9c0.1-0.5,0.2-1,0.3-1.4
					c0.1-0.4,0.2-0.6,0.2-0.8l0.7,0c0,1,0,1.9,0,2.7c0,0.8,0.1,1.5,0.1,2.2c0,0.6,0.1,1.2,0.2,1.7c0.1,0.5,0.1,0.9,0.2,1.3
					c0.2,0.8,0.4,1.4,0.8,1.8c0.3,0.4,0.8,0.6,1.3,0.4c0.4-0.1,0.7-0.3,0.9-0.6c0.3-0.3,0.5-0.8,0.7-1.5s0.4-1.5,0.6-2.6
					c0.2-1,0.4-2.3,0.5-3.8l0.8,0c-0.1,0.6-0.2,1.2-0.3,1.9c-0.1,0.7-0.2,1.3-0.3,2s-0.2,1.3-0.4,2c-0.2,0.6-0.4,1.2-0.6,1.7
					c-0.2,0.5-0.5,0.9-0.9,1.3s-0.8,0.6-1.3,0.7c-0.5,0.1-0.9,0.1-1.3,0c-0.4-0.1-0.7-0.3-1-0.5s-0.6-0.6-0.8-1
					C143.4,23.1,143.2,22.7,143.1,22.2z"/>
				<path fill="#FFFFFF" d="M156,34.1c-0.8,0.1-1.5,0.1-2.1,0c-0.6-0.1-1.1-0.4-1.6-0.7c-0.4-0.3-0.8-0.8-1.1-1.3
					c-0.3-0.5-0.5-1.1-0.5-1.7c-0.1-0.6-0.1-1.1,0.1-1.6c0.1-0.5,0.3-1,0.6-1.4c0.3-0.4,0.6-0.7,1-1c0.4-0.3,0.9-0.4,1.3-0.5
					c0.5-0.1,0.9,0,1.4,0.2c0.5,0.2,1,0.5,1.4,0.9l-0.6,0.6c-0.4-0.3-0.7-0.6-1.1-0.7c-0.4-0.1-0.7-0.2-1.1-0.1
					c-0.4,0.1-0.7,0.2-1,0.4c-0.3,0.2-0.6,0.5-0.8,0.8c-0.2,0.3-0.4,0.7-0.5,1.1c-0.1,0.4-0.1,0.8-0.1,1.2c0.1,0.5,0.2,1,0.4,1.4
					c0.2,0.4,0.5,0.8,0.9,1.1s0.8,0.5,1.3,0.6c0.5,0.1,1.1,0.1,1.8,0c0.9-0.1,1.6-0.5,2.2-1c0.6-0.5,1-1.1,1.3-1.9
					c0.3-0.7,0.5-1.6,0.5-2.4c0.1-0.9,0-1.8-0.1-2.6l-0.4-3.1l-0.2-1.5c-0.5,0.9-1.1,1.6-1.9,2.2c-0.8,0.6-1.7,1-2.9,1.2
					c-0.5,0.1-1,0.1-1.5,0c-0.5-0.1-1-0.3-1.5-0.6c-0.5-0.3-0.9-0.8-1.2-1.5s-0.6-1.5-0.7-2.5c-0.1-0.7-0.1-1.4,0-2.1
					c0.1-0.7,0.3-1.4,0.5-2.2c0.2-0.7,0.6-1.4,1-2c0.4-0.6,0.8-1.2,1.3-1.7c0.5-0.5,1.1-0.9,1.7-1.3c0.6-0.3,1.2-0.5,1.9-0.6
					c0.4-0.1,0.8,0,1.2,0c0.4,0.1,0.7,0.2,1,0.4c0.3,0.2,0.5,0.4,0.8,0.6c0.2,0.2,0.4,0.5,0.6,0.7c0.1-0.6,0.2-1,0.3-1.4
					c0.1-0.4,0.2-0.7,0.3-0.9l0.8,0.3c0,0.1-0.1,0.4-0.2,0.9c-0.1,0.5-0.2,1.2-0.2,2c-0.1,0.9-0.1,1.9-0.1,3.1s0.1,2.6,0.4,4.1
					c0,0.3,0.1,0.7,0.2,1.1c0.1,0.4,0.1,0.8,0.2,1.2c0.1,0.4,0.1,0.8,0.2,1.2c0.1,0.4,0.1,0.8,0.2,1.1c0.3,1.8,0.3,3.3,0,4.6
					c-0.2,1.2-0.6,2.2-1.1,3c-0.5,0.8-1.2,1.3-1.9,1.7C157.5,33.7,156.8,34,156,34.1z M155.6,22.8c0.4-0.1,0.9-0.2,1.2-0.4
					c0.4-0.2,0.7-0.4,1-0.7c0.3-0.3,0.5-0.6,0.8-1c0.2-0.4,0.4-0.8,0.5-1.2c-0.1-1.6-0.2-2.9-0.1-4.1c0-1.2,0.1-2.2,0.2-3
					c-0.1-0.3-0.3-0.6-0.5-0.9c-0.2-0.3-0.4-0.5-0.7-0.7s-0.6-0.3-0.9-0.4c-0.3-0.1-0.7-0.1-1.1-0.1c-0.5,0.1-1.1,0.3-1.7,0.7
					c-0.6,0.4-1.2,1-1.7,1.7c-0.5,0.7-0.9,1.6-1.2,2.7c-0.3,1-0.3,2.2-0.1,3.5c0.1,0.6,0.2,1.2,0.5,1.7c0.2,0.5,0.5,0.9,0.9,1.3
					c0.4,0.3,0.8,0.6,1.3,0.7C154.4,22.9,155,22.9,155.6,22.8z"/>
				<path fill="#FFFFFF" d="M171.8,18.4c-0.4,0.8-0.7,1.4-1.1,1.9c-0.4,0.5-0.7,0.9-1.1,1.2s-0.7,0.5-1.1,0.7
					c-0.4,0.1-0.8,0.2-1.2,0.3c-0.3,0-0.7,0-1.1-0.1c-0.4-0.1-0.8-0.3-1.2-0.6c-0.4-0.3-0.7-0.8-1-1.4s-0.5-1.5-0.5-2.5
					c-0.1-1.1,0-2.1,0.2-3.1c0.2-1,0.4-1.8,0.7-2.5c0.3-0.8,0.7-1.6,1.1-2.4l0.8,0.2c0,0,0,0.1-0.1,0.4s-0.1,0.5-0.2,0.9
					c-0.1,0.4-0.2,0.8-0.3,1.4c-0.1,0.5-0.2,1.1-0.3,1.6c-0.1,0.6-0.1,1.1-0.2,1.7c0,0.6,0,1.2,0,1.7c0.1,1.2,0.4,2.2,0.9,2.9
					c0.5,0.7,1.1,1,1.8,1c0.8,0,1.5-0.6,2.2-1.5s1.3-2.3,1.9-4c0.1-0.8,0.2-1.5,0.4-2.2c0.2-0.7,0.3-1.3,0.5-1.8
					c0.2-0.5,0.3-1,0.5-1.3c0.2-0.4,0.3-0.6,0.3-0.7l0.7,0.1c-0.2,1-0.3,1.9-0.4,2.7c-0.1,0.8-0.2,1.5-0.2,2.2
					c-0.1,0.6-0.1,1.2-0.1,1.7c0,0.5,0,0.9,0,1.3c0,0.8,0.2,1.4,0.5,1.9c0.3,0.5,0.7,0.7,1.2,0.6c0.4,0,0.7-0.2,1-0.5
					c0.3-0.3,0.6-0.7,1-1.4c0.3-0.6,0.6-1.4,1-2.4c0.3-1,0.7-2.2,1.1-3.7L180,13c-0.2,0.6-0.4,1.2-0.6,1.8c-0.2,0.7-0.4,1.3-0.6,2
					c-0.2,0.7-0.5,1.3-0.7,1.9c-0.2,0.6-0.5,1.1-0.9,1.6c-0.3,0.5-0.7,0.9-1.1,1.1c-0.4,0.3-0.8,0.5-1.3,0.5c-0.5,0-0.9,0-1.3-0.2
					c-0.4-0.2-0.7-0.4-1-0.7c-0.3-0.3-0.5-0.7-0.6-1.1C171.9,19.4,171.8,18.9,171.8,18.4z"/>
				<path fill="#FFFFFF" d="M180.9,11.5c-0.2,0.4-0.3,0.8-0.4,1.1c-0.1,0.4-0.3,0.7-0.5,1.1c-0.2,0.4-0.4,0.7-0.6,1.1
					c-0.2,0.4-0.5,0.7-0.8,1.1l-0.2-0.2c0.4-0.8,0.7-1.7,0.9-2.6c0.3-0.9,0.6-1.9,0.8-2.9c-0.1-0.2-0.1-0.3-0.2-0.5
					c-0.1-0.1-0.1-0.3-0.1-0.4c0-0.1-0.1-0.2-0.1-0.4c0-0.1,0-0.3,0-0.4c0-0.2,0-0.4,0.1-0.7c0.1-0.3,0.2-0.5,0.3-0.7
					c0.1-0.2,0.2-0.4,0.4-0.6c0.1-0.2,0.3-0.2,0.5-0.2c0.2,0,0.3,0,0.4,0.1c0.1,0.1,0.2,0.2,0.3,0.3s0.1,0.3,0.1,0.4
					c0,0.1,0,0.3,0,0.4c0,0.2,0,0.4-0.1,0.7c0,0.3-0.1,0.5-0.2,0.8c-0.1,0.2-0.1,0.5-0.2,0.6c0,0.2-0.1,0.3-0.1,0.4
					c0.1,0.4,0.3,0.7,0.5,1.1s0.5,0.8,0.9,1.1c0.3,0.4,0.7,0.8,1,1.2c0.4,0.4,0.7,0.9,1,1.3c0.3,0.5,0.5,1,0.7,1.5
					c0.2,0.5,0.3,1.1,0.3,1.7c0,0.8-0.1,1.5-0.4,2c-0.3,0.5-0.6,0.9-1,1.2c0.6-0.2,1.2-0.6,1.7-1.3c0.5-0.6,1-1.3,1.5-2.1
					c0.5-0.8,0.9-1.6,1.3-2.5c0.4-0.9,0.7-1.7,1-2.4l0.8,0.2c-0.5,1.1-1,2.3-1.5,3.4c-0.5,1.1-1.1,2.1-1.7,2.9
					c-0.6,0.9-1.4,1.5-2.2,2.1c-0.8,0.5-1.7,0.8-2.8,0.8c-0.3,0-0.6,0-0.8-0.1c-0.3-0.1-0.6-0.1-0.8-0.2c-0.3-0.1-0.5-0.2-0.8-0.4
					s-0.4-0.4-0.6-0.6l0.7-0.4c0.1,0.2,0.3,0.4,0.6,0.5c0.2,0.2,0.6,0.2,1,0.3c0.4,0,0.7-0.1,1-0.2c0.3-0.2,0.6-0.4,0.8-0.7
					c0.2-0.3,0.4-0.6,0.5-1c0.1-0.4,0.2-0.8,0.2-1.2c0-0.9-0.1-1.7-0.4-2.3c-0.3-0.7-0.5-1.2-0.9-1.8c-0.3-0.5-0.7-1-1.1-1.4
					C181.4,12.4,181.1,11.9,180.9,11.5z"/>
				<path fill="#FFFFFF" d="M186.2,5.9c0.2,0.1,0.4,0.3,0.7,0.5s0.6,0.3,0.9,0.5c0.4,0.2,0.8,0.3,1.2,0.5c0.5,0.2,0.9,0.3,1.5,0.4
					c0.3-1.2,0.6-2.2,0.9-3.2c0.3-0.9,0.7-1.7,1.1-2.4c0.4-0.7,0.8-1.2,1.2-1.5s0.8-0.5,1.1-0.5c0.4,0,0.7,0.2,0.8,0.5
					c0.2,0.3,0.2,0.8,0.2,1.3c0,0.4-0.1,0.8-0.2,1.3c-0.1,0.5-0.2,0.9-0.4,1.5c-0.2,0.5-0.4,1.1-0.6,1.6c-0.2,0.6-0.4,1.1-0.7,1.6
					c1.3,0,2.6-0.2,3.7-0.4c1.1-0.3,2.1-0.5,3-0.8l0.3,0.8c-1.1,0.3-2.3,0.7-3.4,0.9s-2.5,0.4-4,0.4c-0.4,0.8-0.8,1.6-1.2,2.4
					c-0.4,0.8-0.8,1.4-1.1,2c0,0.7,0,1.6,0,2.4c0,0.9,0.1,1.7,0.3,2.5c0.2,0.8,0.5,1.4,0.8,1.9c0.4,0.5,0.9,0.8,1.6,0.8
					c0.6,0,1.1-0.2,1.6-0.6c0.5-0.4,1-1,1.4-1.7c0.4-0.7,0.8-1.5,1.2-2.3c0.4-0.8,0.7-1.6,1.1-2.4l0.8,0.2c-0.2,0.5-0.4,1-0.7,1.6
					c-0.2,0.6-0.5,1.2-0.8,1.8c-0.3,0.6-0.6,1.2-1,1.7c-0.4,0.6-0.7,1.1-1.1,1.5c-0.4,0.4-0.9,0.8-1.3,1c-0.5,0.2-1,0.4-1.5,0.3
					c-0.6,0-1.1-0.2-1.6-0.5c-0.5-0.3-0.9-0.8-1.3-1.5c-0.3-0.7-0.6-1.6-0.7-2.8s-0.2-2.7-0.1-4.5c0.1-1.5,0.2-2.8,0.5-4.1
					c-1.1-0.2-2.1-0.5-2.8-0.8c-0.8-0.4-1.3-0.7-1.7-1L186.2,5.9z M191.5,11.5c0.3-0.5,0.5-0.9,0.7-1.4c0.2-0.5,0.4-0.9,0.7-1.4
					l-0.7,0l-0.4,0c-0.1,0.4-0.1,0.9-0.1,1.3S191.6,10.9,191.5,11.5L191.5,11.5z M194.9,1.2c-0.1,0-0.3,0.1-0.6,0.3
					s-0.5,0.6-0.8,1.1s-0.6,1.2-0.9,2.1s-0.6,1.9-0.8,3.2l0.4,0l1,0.1c0.3-0.6,0.5-1.3,0.7-1.9c0.2-0.6,0.4-1.2,0.6-1.7
					c0.2-0.5,0.3-1,0.4-1.4c0.1-0.4,0.1-0.8,0.2-1.1C195.1,1.4,195.1,1.2,194.9,1.2z"/>
				<path fill="#FFFFFF" d="M198.8,26.6c0.4-0.4,0.7-0.9,1.1-1.4c0.3-0.5,0.5-0.9,0.6-1.3c-0.1,0-0.1,0-0.2,0c-0.1,0-0.1,0-0.2,0
					c-0.4,0-0.8-0.2-1-0.5c-0.2-0.3-0.3-0.6-0.2-1c0-0.4,0.2-0.7,0.5-1c0.3-0.2,0.7-0.3,1.1-0.3c0.5,0,0.9,0.3,1.1,0.6
					c0.2,0.4,0.3,0.8,0.3,1.3c0,0.4-0.1,0.7-0.3,1.1s-0.3,0.7-0.5,1.1c-0.2,0.4-0.5,0.7-0.7,1c-0.3,0.3-0.6,0.6-0.9,0.8L198.8,26.6z
					"/>
				<path fill="#FFFFFF" d="M218,22.6c0.2-1.1,0.7-2,1.3-2.7s1.4-1.4,2.3-2c-0.7-0.9-1.4-1.8-2.2-2.7c-0.8-0.9-1.4-1.8-2-2.7
					c-0.6-0.9-1-1.9-1.3-2.8c-0.3-1-0.3-1.9-0.1-2.9c0.2-1.1,0.7-2.1,1.4-2.9c0.7-0.8,1.5-1.4,2.5-1.9c1-0.5,2-0.8,3.2-0.9
					c1.1-0.1,2.3-0.1,3.3,0.2c0.9,0.2,1.6,0.5,2.3,0.8c0.6,0.4,1.2,0.8,1.6,1.3c0.4,0.5,0.7,1.1,0.8,1.7c0.1,0.6,0.1,1.3,0,1.9
					c-0.1,0.7-0.4,1.3-0.7,1.7c-0.3,0.4-0.7,0.8-1.1,1.1c-0.4,0.3-0.8,0.5-1.3,0.6s-0.8,0.2-1.2,0.2c-0.4,0-0.8,0-1.3,0l0.1-0.8
					c0,0,0.1,0,0.4,0c0.2,0,0.5,0,0.8,0c0.3,0,0.6-0.1,1-0.2c0.4-0.1,0.7-0.3,1.1-0.5c0.3-0.2,0.6-0.5,0.9-0.9
					c0.3-0.4,0.5-0.8,0.6-1.4c0.2-0.8,0.1-1.5-0.1-2.1c-0.2-0.6-0.6-1-1-1.4c-0.4-0.4-0.9-0.7-1.5-0.9c-0.5-0.2-1-0.4-1.5-0.5
					c-1.1-0.2-2.1-0.3-3-0.1c-0.9,0.2-1.8,0.5-2.5,0.9c-0.7,0.4-1.3,1-1.8,1.6c-0.5,0.6-0.8,1.3-0.9,2C218,7.3,218,8.2,218.3,9
					c0.3,0.9,0.7,1.7,1.3,2.6s1.2,1.7,1.9,2.6c0.7,0.9,1.4,1.7,2.1,2.6c1-0.5,2-1.1,3-1.6c1-0.5,2-1,2.9-1.6c0.9-0.6,1.7-1.2,2.3-2
					c0.6-0.7,1.1-1.6,1.3-2.6c0.1-0.4,0.1-0.9,0.1-1.3c0-0.5-0.1-1-0.2-1.5l0.7-0.2c0.3,1.2,0.3,2.3,0.1,3.2
					c-0.1,0.7-0.4,1.3-0.7,1.8c-0.3,0.6-0.8,1.1-1.3,1.5c-0.5,0.5-1.1,0.9-1.7,1.3c-0.6,0.4-1.3,0.8-1.9,1.2
					c-0.7,0.4-1.4,0.7-2.1,1.1c-0.7,0.4-1.4,0.7-2.1,1.1c0.4,0.6,0.9,1.1,1.2,1.7c0.4,0.6,0.7,1.1,0.9,1.7c0.2,0.6,0.4,1.1,0.5,1.7
					c0.1,0.6,0.1,1.1-0.1,1.7c-0.1,0.7-0.4,1.2-0.7,1.7c-0.3,0.5-0.8,0.9-1.2,1.2c-0.5,0.3-1,0.5-1.6,0.6c-0.6,0.1-1.2,0.1-1.8,0
					c-0.6-0.1-1.2-0.4-1.6-0.7c-0.5-0.3-0.9-0.7-1.1-1.1c-0.3-0.4-0.5-0.9-0.6-1.5C217.9,23.9,217.9,23.3,218,22.6z M224.8,24.9
					c0.1-0.5,0.1-1,0-1.6c-0.1-0.5-0.3-1.1-0.5-1.6c-0.3-0.5-0.6-1.1-0.9-1.6c-0.4-0.5-0.8-1.1-1.2-1.7c-0.9,0.6-1.6,1.2-2.2,1.9
					c-0.6,0.7-1,1.5-1.2,2.4c-0.2,1-0.1,1.9,0.4,2.7s1.3,1.2,2.3,1.4c0.5,0.1,0.9,0.1,1.3,0c0.4-0.1,0.7-0.2,1-0.4s0.5-0.4,0.7-0.7
					C224.6,25.6,224.8,25.3,224.8,24.9z"/>
				<path fill="#FFFFFF" d="M231.6,12.2c0.2,0.2,0.3,0.4,0.6,0.6c0.2,0.2,0.5,0.5,0.8,0.7c0.3,0.2,0.7,0.5,1.1,0.7
					c0.4,0.3,0.9,0.5,1.4,0.7c0.5-1.1,1.1-2.1,1.6-2.9s1.1-1.5,1.6-2.1c0.5-0.6,1-1,1.5-1.2c0.5-0.2,0.9-0.3,1.2-0.2
					c0.4,0.1,0.6,0.4,0.7,0.7c0.1,0.4,0,0.8-0.1,1.3c-0.1,0.4-0.3,0.8-0.5,1.2s-0.5,0.9-0.7,1.3c-0.3,0.5-0.6,0.9-0.9,1.4
					s-0.7,1-1,1.4c1.3,0.3,2.5,0.4,3.7,0.4c1.2,0,2.2,0,3.1-0.1l0.2,0.8c-1.2,0.1-2.3,0.1-3.6,0.1c-1.2,0-2.5-0.2-3.9-0.5
					c-0.6,0.7-1.1,1.4-1.7,2.1c-0.6,0.6-1.1,1.2-1.5,1.7c-0.2,0.7-0.4,1.5-0.6,2.4c-0.2,0.9-0.3,1.7-0.3,2.5c0,0.8,0.1,1.5,0.4,2.1
					c0.2,0.6,0.7,1,1.3,1.2c0.5,0.2,1.1,0.1,1.7-0.2s1.2-0.8,1.7-1.4c0.6-0.6,1.2-1.2,1.7-2c0.6-0.7,1.1-1.4,1.6-2.1l0.7,0.4
					c-0.3,0.4-0.7,0.9-1,1.4c-0.4,0.5-0.8,1-1.2,1.5c-0.4,0.5-0.9,1-1.3,1.5c-0.5,0.5-1,0.9-1.5,1.2c-0.5,0.3-1,0.6-1.5,0.7
					c-0.5,0.1-1,0.1-1.6,0c-0.6-0.2-1-0.4-1.5-0.8c-0.4-0.4-0.7-1-0.9-1.7s-0.2-1.7-0.1-2.9c0.1-1.2,0.4-2.7,1-4.4
					c0.4-1.4,0.9-2.7,1.4-3.8c-1.1-0.5-1.9-1-2.6-1.5c-0.7-0.5-1.1-1-1.5-1.4L231.6,12.2z M235.5,18.8c0.3-0.4,0.7-0.8,1-1.2
					c0.3-0.4,0.6-0.8,1-1.2l-0.7-0.2l-0.4-0.1c-0.1,0.4-0.3,0.8-0.4,1.3S235.7,18.3,235.5,18.8L235.5,18.8z M241.2,9.5
					c-0.1,0-0.3,0-0.6,0.2c-0.3,0.2-0.6,0.5-1.1,0.9c-0.4,0.4-0.9,1-1.3,1.8c-0.5,0.8-1,1.7-1.5,2.9l0.4,0.1l0.9,0.3
					c0.4-0.6,0.8-1.1,1.2-1.7c0.3-0.5,0.7-1.1,0.9-1.5c0.3-0.5,0.5-0.9,0.7-1.3c0.2-0.4,0.3-0.7,0.4-1
					C241.3,9.8,241.3,9.6,241.2,9.5z"/>
				<path fill="#FFFFFF" d="M253.4,13.2c-0.3,0.8-0.7,1.6-1.4,2.5c-0.6,0.9-1.4,1.8-2.3,2.8c-0.9,1-1.9,2-3,3.1
					c-1.1,1.1-2.3,2.2-3.5,3.4c-0.3,0.6-0.6,1.2-0.8,1.7c-0.3,0.6-0.5,1.2-0.8,1.8c0.3-0.4,0.7-0.8,1.1-1.2c0.4-0.5,0.9-0.9,1.4-1.4
					c0.5-0.5,1.1-0.9,1.6-1.3c0.6-0.4,1.1-0.8,1.7-1.1c0.6-0.3,1.1-0.5,1.7-0.6c0.6-0.1,1.1-0.1,1.6,0.1c0.3,0.1,0.6,0.3,0.8,0.5
					c0.2,0.2,0.4,0.5,0.5,0.8c0.1,0.3,0.2,0.6,0.2,1c0,0.3-0.1,0.7-0.2,1c-0.2,0.4-0.4,0.9-0.7,1.4c-0.3,0.5-0.6,1-1,1.4
					c-0.3,0.5-0.7,1-1,1.5c-0.3,0.5-0.6,1-0.7,1.4c-0.1,0.4-0.2,0.7-0.1,1.1c0.1,0.3,0.4,0.6,0.9,0.8c0.3,0.1,0.7,0.1,1.2-0.1
					c0.4-0.2,0.9-0.4,1.4-0.8s1-0.7,1.4-1.2c0.5-0.5,0.9-0.9,1.4-1.4c0.4-0.5,0.8-0.9,1.2-1.4c0.4-0.4,0.7-0.8,0.9-1l0.7,0.5
					c-0.4,0.5-0.9,1-1.3,1.5c-0.5,0.5-0.9,1.1-1.4,1.6c-0.5,0.5-1,1-1.5,1.5c-0.5,0.5-1,0.8-1.5,1.1c-0.5,0.3-1,0.5-1.5,0.6
					c-0.5,0.1-1,0.1-1.6-0.1c-0.5-0.2-0.8-0.4-1.1-0.6c-0.3-0.3-0.4-0.5-0.5-0.8c-0.1-0.3-0.1-0.6-0.1-1s0.1-0.7,0.3-1.1
					c0.2-0.4,0.4-0.9,0.7-1.4c0.3-0.5,0.7-1,1-1.5c0.4-0.5,0.7-1,1.1-1.6c0.3-0.5,0.6-1,0.8-1.5c0.1-0.3,0.1-0.5,0.1-0.8
					c-0.1-0.3-0.2-0.4-0.6-0.6c-0.5-0.2-1.1-0.2-1.7,0c-0.6,0.2-1.2,0.5-1.9,0.9c-0.6,0.4-1.3,0.9-1.9,1.5c-0.6,0.6-1.3,1.2-1.8,1.8
					c-0.6,0.6-1.1,1.2-1.6,1.8c-0.5,0.6-0.9,1-1.2,1.4l-0.7-0.4c0-0.1,0.1-0.1,0.1-0.3c0-0.1,0.1-0.3,0.2-0.4
					c0.1-0.2,0.2-0.4,0.2-0.7c0.1-0.3,0.2-0.6,0.4-1c0.4-1.2,1-2.7,1.8-4.6c0.8-1.9,1.8-4.1,3-6.7c0.6-1.3,1.1-2.3,1.7-3.2
					c0.5-0.9,1.1-1.6,1.5-2.1c0.5-0.5,0.9-0.9,1.3-1.2c0.4-0.3,0.8-0.5,1.1-0.6c0.3-0.1,0.6-0.1,0.9-0.1c0.2,0,0.4,0.1,0.6,0.1
					c0.6,0.2,0.9,0.6,1.1,1.2C253.7,11.8,253.7,12.4,253.4,13.2z M252.2,10.8c-0.3-0.1-0.7-0.1-1,0.2c-0.4,0.2-0.8,0.6-1.2,1.1
					c-0.4,0.5-0.9,1.1-1.3,1.9c-0.4,0.8-0.9,1.6-1.4,2.5s-1,2-1.5,3.1c-0.5,1.1-1,2.3-1.6,3.5c1-0.9,2-1.8,2.9-2.7s1.7-1.8,2.5-2.7
					c0.7-0.9,1.4-1.7,1.9-2.5c0.5-0.8,0.9-1.5,1.2-2.2c0.1-0.2,0.1-0.4,0.2-0.6c0-0.2,0.1-0.4,0-0.6c0-0.2-0.1-0.4-0.2-0.5
					C252.6,11,252.4,10.9,252.2,10.8z"/>
			</g>
		</g>
	</g>
	<g>
		<g opacity="0.25">
			<g>
				<path d="M149.2,374.2c-1-0.2-1.8-0.5-2.4-0.9c-0.6-0.5-0.8-1-0.7-1.6c0.1-0.6,0.5-1.1,1.1-1.3s1.5-0.3,2.5-0.2
					c0.9,0.1,1.7,0.4,2.5,0.9c0.8,0.5,1.6,0.9,2.4,1.4c1.2-0.6,2.3-1.3,3.4-2.3c1.1-1,2.1-2.1,3-3.3c0.9-1.2,1.6-2.5,2.2-3.8
					c0.6-1.4,1-2.7,1.2-4c0.2-1,0.2-1.9,0.1-2.8c-0.1-0.8-0.3-1.5-0.5-2.2c-0.3-0.6-0.6-1.2-1.1-1.6s-0.9-0.8-1.4-1.1
					c-0.5-0.3-1-0.5-1.6-0.7c-0.5-0.2-1.1-0.3-1.6-0.4c-1-0.2-2-0.1-3,0.1s-1.8,0.6-2.6,1.1c-0.8,0.5-1.4,1.2-1.9,2s-0.8,1.7-1,2.6
					c-0.1,0.6-0.1,1.2,0,1.8c0.1,0.6,0.2,1.3,0.5,1.9c-0.1,0-0.3,0.1-0.4,0.2c-0.2,0.1-0.3,0.2-0.5,0.2c-0.2,0.1-0.4,0.2-0.6,0.2
					c-0.2-0.6-0.3-1.2-0.4-1.9c-0.1-0.6,0-1.3,0.1-1.9c0.2-1.1,0.6-2.2,1.2-3.2c0.6-1,1.3-1.8,2.2-2.4c0.9-0.7,1.9-1.1,3-1.4
					s2.3-0.3,3.6-0.2c0.7,0.1,1.4,0.3,2.1,0.5s1.4,0.5,2,0.9c0.6,0.4,1.2,0.8,1.8,1.4c0.6,0.5,1,1.2,1.4,1.9
					c0.4,0.7,0.6,1.5,0.8,2.4c0.1,0.9,0.1,1.9-0.1,3c-0.2,1.4-0.7,2.7-1.3,4.1c-0.7,1.3-1.5,2.6-2.5,3.8s-2.1,2.3-3.3,3.2
					s-2.5,1.7-3.8,2.3c0.8,0.5,1.6,1,2.3,1.4c0.8,0.4,1.6,0.7,2.5,0.8c0.6,0.1,1.2,0.1,1.8,0l0.1,0.8c-0.3,0.1-0.7,0.1-1,0.1
					c-0.3,0-0.7,0-1-0.1c-0.5-0.1-1-0.2-1.5-0.4s-0.9-0.4-1.4-0.6s-0.9-0.5-1.4-0.8s-0.9-0.6-1.3-0.9c-0.9,0.4-1.8,0.6-2.8,0.7
					C151,374.3,150.1,374.3,149.2,374.2z M149.3,373.4c0.7,0.1,1.5,0.1,2.2,0c0.7-0.1,1.5-0.3,2.2-0.6c-0.7-0.5-1.4-0.9-2.1-1.2
					c-0.7-0.4-1.4-0.6-2.1-0.7c-0.5-0.1-0.9,0-1.3,0.1c-0.4,0.2-0.6,0.4-0.7,0.8c0,0.3,0.1,0.6,0.3,0.9
					C148.2,373.1,148.7,373.3,149.3,373.4z"/>
				<path d="M179.9,351.3c0.6,0,1,0.1,1.3,0.2c0.3,0.1,0.5,0.2,0.5,0.2l-0.3,0.7c0,0-0.2-0.1-0.5-0.2c-0.3-0.1-0.6-0.2-1.1-0.2
					c-1.4,0-2.6,0.3-3.7,0.9s-2,1.6-2.8,2.7s-1.4,2.5-1.8,4.1s-0.7,3.3-0.7,5.1c-0.1,1.8,0.1,3.5,0.5,4.9c0.4,1.5,0.9,2.7,1.6,3.7
					s1.5,1.8,2.5,2.4c1,0.6,2.1,0.9,3.4,0.9c1.1,0,2.2-0.3,3.2-0.9c1-0.6,1.9-1.5,2.7-2.7c0.8-1.2,1.4-2.5,1.9-4.2
					c0.5-1.6,0.7-3.4,0.8-5.3c0-1.7-0.1-3.1-0.4-4.4c-0.3-1.2-0.7-2.2-1.2-3c-0.5-0.8-1.1-1.4-1.8-1.8c-0.7-0.4-1.3-0.6-2-0.6
					c-0.9,0-1.8,0.3-2.5,0.9s-1.2,1.5-1.6,2.8l-0.8-0.2c0.4-1.4,1.1-2.4,1.9-3.1c0.8-0.7,1.8-1,2.9-1c0.7,0,1.5,0.2,2.2,0.6
					c0.8,0.4,1.4,1,2,1.9c0.6,0.9,1.1,2,1.4,3.3c0.4,1.3,0.5,2.9,0.5,4.7c0,1.1-0.1,2.3-0.3,3.4c-0.2,1.1-0.5,2.2-0.9,3.3
					c-0.4,1-0.8,2-1.4,2.9c-0.6,0.9-1.2,1.7-2,2.4c-0.8,0.7-1.6,1.2-2.6,1.5c-1,0.4-2,0.5-3.2,0.5c-1.2,0-2.4-0.3-3.5-0.9
					c-1.1-0.5-2.2-1.3-3-2.3c-0.9-1-1.6-2.3-2.1-3.8c-0.5-1.5-0.7-3.2-0.7-5.2c0-1.2,0.2-2.4,0.4-3.6c0.3-1.2,0.6-2.3,1.1-3.4
					s1-2.1,1.7-3s1.4-1.7,2.2-2.4c0.8-0.7,1.8-1.2,2.8-1.5C177.7,351.5,178.8,351.3,179.9,351.3z"/>
				<path d="M194.2,376.6l-2.4,0l2.4-22.8c-0.3,0.7-0.7,1.4-1.1,2c-0.4,0.6-0.7,1.2-1,1.6c-0.3,0.5-0.6,0.9-0.8,1.1
					c-0.2,0.3-0.3,0.4-0.3,0.4l-0.6-0.5c0.5-0.7,1-1.4,1.5-2.2c0.4-0.7,0.8-1.4,1.3-2.2c0.4-0.8,0.8-1.7,1.1-2.6l0.7,0.2
					L194.2,376.6z"/>
				<path d="M208.1,375.9c-1,0.1-2,0.1-3-0.1s-1.9-0.6-2.7-1.1c-0.8-0.5-1.5-1.2-2.1-2s-0.9-1.7-1.1-2.8c0-0.2,0-0.4,0-0.5
					c0-0.2,0-0.3,0.1-0.5l0.7,0.1c0,0.2-0.1,0.4,0,0.7c0.1,1,0.5,1.9,1,2.6s1.2,1.3,1.9,1.8c0.8,0.4,1.6,0.8,2.4,0.9
					c0.9,0.2,1.7,0.2,2.5,0.1c1.2-0.2,2.3-0.6,3.3-1.1c0.9-0.6,1.7-1.3,2.3-2.2c0.6-0.9,1-1.9,1.2-3.1c0.2-1.2,0.2-2.4,0-3.8
					c-0.2-1.3-0.5-2.4-1.1-3.5c-0.5-1-1.2-1.9-2-2.5c-0.8-0.7-1.7-1.1-2.8-1.4c-1-0.3-2.2-0.3-3.4-0.2c-0.7,0.1-1.3,0.3-1.9,0.6
					c-0.6,0.3-1.1,0.6-1.5,0.9c-0.4,0.4-0.8,0.7-1.1,1.1c-0.3,0.4-0.6,0.7-0.8,1c-0.2,0.3-0.4,0.7-0.6,1.1l-0.8-0.2
					c0.1-0.7,0.2-1.3,0.3-1.9c0.1-0.6,0.2-1.2,0.3-1.9s0.2-1.4,0.2-2.2c0.1-0.8,0.1-1.5,0.2-2.3s0-1.4,0-2.1l0.4-0.4
					c0.5,0,1,0,1.5-0.1c0.5,0,0.9-0.1,1.4-0.2c1.1-0.2,2-0.4,2.8-0.6c0.8-0.3,1.4-0.5,2-0.8c0.5-0.3,0.9-0.5,1.2-0.7
					c0.3-0.2,0.4-0.3,0.4-0.3l0.8,1.9c0,0-0.2,0.1-0.4,0.2c-0.3,0.1-0.6,0.2-1,0.3s-0.9,0.3-1.5,0.4c-0.6,0.1-1.1,0.2-1.8,0.3
					c-0.7,0.1-1.5,0.2-2.3,0.2c-0.8,0-1.6,0-2.6,0.1c0,0.2,0.1,0.5,0.1,0.9c0,0.4,0.1,0.9,0.1,1.5c0,0.6,0.1,1.3,0.1,2
					c0,0.7,0,1.5,0,2.3c0.9-0.8,1.8-1.4,2.7-1.8c1-0.4,2-0.7,3-0.8c0.5-0.1,1-0.1,1.6-0.1s1.3,0.1,1.9,0.3c0.7,0.2,1.3,0.5,2,0.8
					c0.7,0.4,1.3,0.9,1.9,1.5c0.6,0.6,1.1,1.4,1.5,2.2c0.4,0.9,0.7,1.9,0.9,3.2c0.2,1.5,0.1,2.9-0.2,4.2c-0.4,1.3-0.9,2.5-1.7,3.6
					c-0.8,1.1-1.8,1.9-2.9,2.6C210.8,375.2,209.5,375.7,208.1,375.9z"/>
			</g>
		</g>
		<g>
			<g>
				<path fill="#FFFFFF" d="M148.2,373.2c-1-0.2-1.8-0.5-2.4-0.9c-0.6-0.5-0.8-1-0.7-1.6c0.1-0.6,0.5-1.1,1.1-1.3s1.5-0.3,2.5-0.2
					c0.9,0.1,1.7,0.4,2.5,0.9c0.8,0.5,1.6,0.9,2.4,1.4c1.2-0.6,2.3-1.3,3.4-2.3c1.1-1,2.1-2.1,3-3.3c0.9-1.2,1.6-2.5,2.2-3.8
					c0.6-1.4,1-2.7,1.2-4c0.2-1,0.2-1.9,0.1-2.8c-0.1-0.8-0.3-1.5-0.5-2.2c-0.3-0.6-0.6-1.2-1.1-1.6s-0.9-0.8-1.4-1.1
					c-0.5-0.3-1-0.5-1.6-0.7c-0.5-0.2-1.1-0.3-1.6-0.4c-1-0.2-2-0.1-3,0.1s-1.8,0.6-2.6,1.1c-0.8,0.5-1.4,1.2-1.9,2s-0.8,1.7-1,2.6
					c-0.1,0.6-0.1,1.2,0,1.8c0.1,0.6,0.2,1.3,0.5,1.9c-0.1,0-0.3,0.1-0.4,0.2c-0.2,0.1-0.3,0.2-0.5,0.2c-0.2,0.1-0.4,0.2-0.6,0.2
					c-0.2-0.6-0.3-1.2-0.4-1.9c-0.1-0.6,0-1.3,0.1-1.9c0.2-1.1,0.6-2.2,1.2-3.2c0.6-1,1.3-1.8,2.2-2.4c0.9-0.7,1.9-1.1,3-1.4
					s2.3-0.3,3.6-0.2c0.7,0.1,1.4,0.3,2.1,0.5s1.4,0.5,2,0.9c0.6,0.4,1.2,0.8,1.8,1.4c0.6,0.5,1,1.2,1.4,1.9
					c0.4,0.7,0.6,1.5,0.8,2.4c0.1,0.9,0.1,1.9-0.1,3c-0.2,1.4-0.7,2.7-1.3,4.1c-0.7,1.3-1.5,2.6-2.5,3.8s-2.1,2.3-3.3,3.2
					s-2.5,1.7-3.8,2.3c0.8,0.5,1.6,1,2.3,1.4c0.8,0.4,1.6,0.7,2.5,0.8c0.6,0.1,1.2,0.1,1.8,0l0.1,0.8c-0.3,0.1-0.7,0.1-1,0.1
					c-0.3,0-0.7,0-1-0.1c-0.5-0.1-1-0.2-1.5-0.4s-0.9-0.4-1.4-0.6s-0.9-0.5-1.4-0.8s-0.9-0.6-1.3-0.9c-0.9,0.4-1.8,0.6-2.8,0.7
					C150,373.3,149.1,373.3,148.2,373.2z M148.3,372.4c0.7,0.1,1.5,0.1,2.2,0c0.7-0.1,1.5-0.3,2.2-0.6c-0.7-0.5-1.4-0.9-2.1-1.2
					c-0.7-0.4-1.4-0.6-2.1-0.7c-0.5-0.1-0.9,0-1.3,0.1c-0.4,0.2-0.6,0.4-0.7,0.8c0,0.3,0.1,0.6,0.3,0.9
					C147.2,372.1,147.7,372.3,148.3,372.4z"/>
				<path fill="#FFFFFF" d="M178.9,350.3c0.6,0,1,0.1,1.3,0.2c0.3,0.1,0.5,0.2,0.5,0.2l-0.3,0.7c0,0-0.2-0.1-0.5-0.2
					c-0.3-0.1-0.6-0.2-1.1-0.2c-1.4,0-2.6,0.3-3.7,0.9s-2,1.6-2.8,2.7s-1.4,2.5-1.8,4.1s-0.7,3.3-0.7,5.1c-0.1,1.8,0.1,3.5,0.5,4.9
					c0.4,1.5,0.9,2.7,1.6,3.7s1.5,1.8,2.5,2.4c1,0.6,2.1,0.9,3.4,0.9c1.1,0,2.2-0.3,3.2-0.9c1-0.6,1.9-1.5,2.7-2.7
					c0.8-1.2,1.4-2.5,1.9-4.2c0.5-1.6,0.7-3.4,0.8-5.3c0-1.7-0.1-3.1-0.4-4.4c-0.3-1.2-0.7-2.2-1.2-3c-0.5-0.8-1.1-1.4-1.8-1.8
					c-0.7-0.4-1.3-0.6-2-0.6c-0.9,0-1.8,0.3-2.5,0.9s-1.2,1.5-1.6,2.8l-0.8-0.2c0.4-1.4,1.1-2.4,1.9-3.1c0.8-0.7,1.8-1,2.9-1
					c0.7,0,1.5,0.2,2.2,0.6c0.8,0.4,1.4,1,2,1.9c0.6,0.9,1.1,2,1.4,3.3c0.4,1.3,0.5,2.9,0.5,4.7c0,1.1-0.1,2.3-0.3,3.4
					c-0.2,1.1-0.5,2.2-0.9,3.3c-0.4,1-0.8,2-1.4,2.9c-0.6,0.9-1.2,1.7-2,2.4c-0.8,0.7-1.6,1.2-2.6,1.5c-1,0.4-2,0.5-3.2,0.5
					c-1.2,0-2.4-0.3-3.5-0.9c-1.1-0.5-2.2-1.3-3-2.3c-0.9-1-1.6-2.3-2.1-3.8c-0.5-1.5-0.7-3.2-0.7-5.2c0-1.2,0.2-2.4,0.4-3.6
					c0.3-1.2,0.6-2.3,1.1-3.4s1-2.1,1.7-3s1.4-1.7,2.2-2.4c0.8-0.7,1.8-1.2,2.8-1.5C176.7,350.5,177.8,350.3,178.9,350.3z"/>
				<path fill="#FFFFFF" d="M193.2,375.6l-2.4,0l2.4-22.8c-0.3,0.7-0.7,1.4-1.1,2c-0.4,0.6-0.7,1.2-1,1.6c-0.3,0.5-0.6,0.9-0.8,1.1
					c-0.2,0.3-0.3,0.4-0.3,0.4l-0.6-0.5c0.5-0.7,1-1.4,1.5-2.2c0.4-0.7,0.8-1.4,1.3-2.2c0.4-0.8,0.8-1.7,1.1-2.6l0.7,0.2
					L193.2,375.6z"/>
				<path fill="#FFFFFF" d="M207.1,374.9c-1,0.1-2,0.1-3-0.1s-1.9-0.6-2.7-1.1c-0.8-0.5-1.5-1.2-2.1-2s-0.9-1.7-1.1-2.8
					c0-0.2,0-0.4,0-0.5c0-0.2,0-0.3,0.1-0.5l0.7,0.1c0,0.2-0.1,0.4,0,0.7c0.1,1,0.5,1.9,1,2.6s1.2,1.3,1.9,1.8
					c0.8,0.4,1.6,0.8,2.4,0.9c0.9,0.2,1.7,0.2,2.5,0.1c1.2-0.2,2.3-0.6,3.3-1.1c0.9-0.6,1.7-1.3,2.3-2.2c0.6-0.9,1-1.9,1.2-3.1
					c0.2-1.2,0.2-2.4,0-3.8c-0.2-1.3-0.5-2.4-1.1-3.5c-0.5-1-1.2-1.9-2-2.5c-0.8-0.7-1.7-1.1-2.8-1.4c-1-0.3-2.2-0.3-3.4-0.2
					c-0.7,0.1-1.3,0.3-1.9,0.6c-0.6,0.3-1.1,0.6-1.5,0.9c-0.4,0.4-0.8,0.7-1.1,1.1c-0.3,0.4-0.6,0.7-0.8,1c-0.2,0.3-0.4,0.7-0.6,1.1
					l-0.8-0.2c0.1-0.7,0.2-1.3,0.3-1.9c0.1-0.6,0.2-1.2,0.3-1.9s0.2-1.4,0.2-2.2c0.1-0.8,0.1-1.5,0.2-2.3s0-1.4,0-2.1l0.4-0.4
					c0.5,0,1,0,1.5-0.1c0.5,0,0.9-0.1,1.4-0.2c1.1-0.2,2-0.4,2.8-0.6c0.8-0.3,1.4-0.5,2-0.8c0.5-0.3,0.9-0.5,1.2-0.7
					c0.3-0.2,0.4-0.3,0.4-0.3l0.8,1.9c0,0-0.2,0.1-0.4,0.2c-0.3,0.1-0.6,0.2-1,0.3s-0.9,0.3-1.5,0.4c-0.6,0.1-1.1,0.2-1.8,0.3
					c-0.7,0.1-1.5,0.2-2.3,0.2c-0.8,0-1.6,0-2.6,0.1c0,0.2,0.1,0.5,0.1,0.9c0,0.4,0.1,0.9,0.1,1.5c0,0.6,0.1,1.3,0.1,2
					c0,0.7,0,1.5,0,2.3c0.9-0.8,1.8-1.4,2.7-1.8c1-0.4,2-0.7,3-0.8c0.5-0.1,1-0.1,1.6-0.1s1.3,0.1,1.9,0.3c0.7,0.2,1.3,0.5,2,0.8
					c0.7,0.4,1.3,0.9,1.9,1.5c0.6,0.6,1.1,1.4,1.5,2.2c0.4,0.9,0.7,1.9,0.9,3.2c0.2,1.5,0.1,2.9-0.2,4.2c-0.4,1.3-0.9,2.5-1.7,3.6
					c-0.8,1.1-1.8,1.9-2.9,2.6C209.8,374.2,208.5,374.7,207.1,374.9z"/>
			</g>
		</g>
	</g>
</g>
</svg>
