<?xml version="1.0" encoding="utf-8"?>
<!-- Generator: Adobe Illustrator 18.1.1, SVG Export Plug-In . SVG Version: 6.00 Build 0)  -->
<svg version="1.1" id="Layer_1" xmlns="http://www.w3.org/2000/svg" xmlns:xlink="http://www.w3.org/1999/xlink" x="0px" y="0px"
	 viewBox="-180 -180 400 400" enable-background="new -180 -180 400 400" xml:space="preserve">
<g>
	<g opacity="0.5">
		<g>
			<path fill="#F9F1E9" d="M135.8-94C135.8-94,135.7-94,135.8-94L135.8-94L135.8-94z"/>
		</g>
		<g>
			<path fill="#F9F1E9" d="M-39.3-92.2C-39.3-92.3-39.3-92.3-39.3-92.2c0-0.1,0-0.1,0-0.1S-39.3-92.3-39.3-92.2
				C-39.3-92.3-39.3-92.2-39.3-92.2z"/>
		</g>
		<g>
			<path fill="#F9F1E9" d="M-39.3-92.2c-2.6,1-3.3,3.6-5,5.4c-1.5,1.7-3,3.3-5.4,4.1c0-2.4,0.3-4.1,2-6c3-3.3,6.1-6.4,8.2-10.6
				c1.4-2.9,2-5.1,0.5-7.9c-0.8-1.7-1-3.6-0.8-5.6c0.1-1.8-0.5-3.2-3-1.8c-3,1.7-6,3.2-8.7,5.3c-3.5,2.8-4.3,6-3.6,10.4
				c0.7,4.2,1.8,8.3,3.2,12.3c1.6,4.8-1.5,8.4-4.8,11.2c-7.5,6.7-13.6,14.5-18.5,23.2C-78.8-46-82.9-40-87-34
				c-5.1,7.3-8.6,15.3-10.8,23.8C-99.4-4-101,2.1-99.5,8.2c1.2,4.9,0.2,9.4,0.5,14.7c-2-1.9-2.5-3.9-3.2-5.9c-2-6.5-4.1-12.9-4-19.8
				c0.1-6.4,2.3-12.3,3.8-18.3c2.6-10.7,4-21.6,3.9-32.6c-0.1-6.4-0.5-12.8,0.7-19.1c1.2-5.9,4.3-11,8.2-15.7
				c1.1-1.3,2.2-2.5,1.8-4.7c-5,5.1-8.5,10.9-10.9,17.5c-0.2-0.1-0.5-0.1-0.7-0.2c0.1-10.9,0.1-21.8,0.2-32.7c-0.2,0-0.4,0-0.5,0
				c-0.3,4.2-1,8.5-0.7,12.7c0.4,8.6-1.1,17.1-0.2,25.6c0.7,8.5,0.2,16.8,0.3,25.3c0,9.9-2.2,19.2-4.9,28.5c-1.7,5.9-2.8,12-3,18.1
				c-2.2-4.7-2-9.6-2.2-14.5c-0.1-3.3-0.3-6.5,1.5-9.6c0.7-1.3,0.5-3.2,0.4-4.7c-0.2-3.3-0.6-6.5-0.4-9.9c-3.6,5.5-1.4,12-3.2,17.8
				c-1.8,5.9-0.6,12,0.4,18c-3.1-2.9-5.6-5.7-4.9-10.3c0.6-3.8-0.6-7.6-1.2-11.3c-0.3-2.4-2.3-3.8-4.1-5.1c-3.5-2.5-7.2-5-9.9-8.6
				c-0.5-0.7-1.4-1.6-2.4-1.3c-1.1,0.3-1.1,1.5-1,2.4c0.2,3.6-0.3,7.2-1.1,10.7c-0.7,3.6-0.4,7.2,0.2,10.8c0.7,3.8,3.2,6.5,7.1,7.4
				c3.1,0.7,6.1,1.7,8.9,3.5c0.3,0.2,0.7,0.5,1.2,0.5c6.4-0.5,7.3,4.7,9.4,8.8c3.7,7.2,3.4,15.8,7.4,22.8c2.8,4.8,5.4,9.5,8.1,14.3
				c2.6,4.8,3.9,10.1,6.1,14.9c7.8,16.8,11,35.2,17.1,52.6c0.5,1.5,1.1,3,1.8,4.8c-9.3-7.4-19-13.9-26.5-22.9
				c-1.1-1.3-2.4-2.4-3.8-3.4c-3-2-5.2-4.6-6.7-7.8c-2.9-6.7-6.5-13-10.2-19.4c-3-5.1-4.7-10.6-5.3-16.4c-1.1,11.2,6.5,19.3,10.9,29
				c-4.9-0.7-8.4-2.4-11-6.5c-2.9-4.4-4.8-9.7-9.5-12.9c-0.8-0.6-2.9-2.2-1.2-4.1c0.2-0.2,0.2-0.3,0-0.6c-5.2-8.5-5.7-18.5-9.2-27.5
				c-1.4-3.4-2.5-7-2.6-10.7c0-0.4-0.8-0.7-1.7-1.5c1.3,12.2,7.3,22.8,8.6,34.8c-1.8-1-2-2.6-3-3.6c3.2,11.5,13,19,19.5,29.4
				c-11.5-1-19.3-9.4-29.6-12c0,1.5,1.2,1.6,1.8,1.8c6.1,1.9,11.3,5.8,17.2,8.5c2,1,4.1,2,6.2,2.2c4.7,0.5,7.5,3.4,10.2,6.8
				c4.7,5.9,9.4,11.8,15.9,15.9c-5,2.5-9.9,1.8-13.2-1.8c-2.3-2.4-7.2-2.9-11-0.8c-2.1,1.2-4.3,2.2-6.4,3.6c-4,2.8-8.4,4.4-13.2,4.3
				c-0.8,0-2.4-0.4-2.3,1.3c0.1,1.5,1.5,1.4,2.4,1.6c2.8,0.4,5.5,0.6,7.9,1.9c0.5,0.3,1.2,0.5,1.7,1c3.2,3.1,6.2,3.5,10.8,1.8
				c5.5-2,10.6-4.9,15.3-8.6c1.4-1.1,2.9-0.5,4.2-1c7.2-2.1,11.9,1.8,16.8,6.1c5.5,4.6,8.9,11,14.6,15.3c6.1,4.6,9.2,11.2,12.8,17.6
				c5.4,9.4,13.2,15,23.5,18.2c6.6,2,12.9,4.7,20,7.3c-4.9,1.5-9.3,1.3-13.8,1.4c-2.2,0-4.6-0.3-6.7,0.1c-6.5,1.3-12.1-1.2-18.2-2.6
				c-7.5-1.8-15.6-2.5-23.3-0.3c-1.8,0.5-4.4-0.2-5.6,2.6c8.3-2.1,16.3-2.5,24.2-0.3c4.3,1.3,9,1.4,13.2,3.2
				c2.9,1.2,6.2-0.4,9.4-0.2c1.1,0.1,2.1,0,3.4,0.1c-1,1.8-2.4,2.5-4.1,2.9c-2.3,0.5-4.6,1.1-6.9,1.3c-9.5,0.5-19,2.3-28.5,3.7
				c-2.3,0.3-4.8,0.7-6.9,2.1c9.1-1.6,18.2-2.3,27.3-3.6c4.7-0.6,9.3,0,14-1.4c2.2-0.7,4.2-1.9,6.4-3c6-3.2,12.6-2.4,19-2.5
				c10.4-0.1,20.1,4,30.5,5c13.5,1.2,26.1-1.3,38-7.2c3.4-1.7,7-1.9,10.4-3.1c6.9-2.2,13.8-4.2,20.2-7.5c6.8-3.4,12.7-8.2,18.3-13.2
				c4.8-4.3,9.5-8.6,14.4-12.8c4.6-3.9,8.5-8.4,12.1-13c5.1-6.6,10.3-12.9,16.4-18.5c-0.8,3.1-2.9,5.5-3.6,8.6
				c-1.5,6.4-4.1,12.2-7.2,17.9c-1.7,3.2-4.7,5.2-6.8,8.1c-4.9,6.6-10.6,12.5-16.4,18.2c-6.9,6.7-14.1,12.9-21.2,19.3
				c-2.9,2.5-10.3,1.7-14.1-1.6c-1.8-1.6-3.7-2.9-6.1-3.2c-3.5-0.4-7.1,1.7-8.6,5.7c-1.7,4.4-3.8,8.8-6.2,12.9
				c-1.5,2.5-1.1,3.5,1.9,3.7c5.2,0.3,10.7,1.4,15-3c1.6-1.6,2.4-3.5,3.7-5.2c2.4-3.2,5-6.1,10-5.7c-2.3,3.4-4.4,6.6-6.6,9.7
				c2.2-0.7,3.5-2.4,4.7-4.1c3-4.1,6.9-7.1,10.8-10.2c4.3-3.3,8.4-7.2,12.3-11.1c6.1-6,12-12.3,17.9-18.5c3.4-3.6,6.7-7.4,10.4-11.7
				c-0.7,5-2.4,8.9-5.4,12.3c-1.8,2.1-3.7,4.1-5.5,6.1c4.2-1.9,6.7-5.6,9.1-9.3c1.6-2.4,2.3-5.3,3.5-7.9c1.5,7.9-1.5,14.6-5.7,21.1
				c-3.4,5.2-8.7,9.1-10.4,15.4c1,0.4,1.1-0.5,1.3-1c3-5.5,7.5-9.7,10.9-14.9c3.7-5.6,6.9-11.5,6.1-18.6c-0.7-7.9,0.7-15.3,4.9-22.2
				c1.2-2,2.8-4.3,2.9-7.2c0.1-2.5,2.4-4.3,3.9-6.5c2.3-3.5,4.8-7,6.6-10.9c0.4-1,1.3-1.9,2.5-2.5c1,1.6-0.3,2.5-1,3.6
				c-3.1,4.4-5.3,9.1-5.8,14.6c-0.3,3.5,0.8,6.5,2.3,9.3c1.5,2.8,3.1,5.3,4.2,8.2c0.8,2.1,1.8,1.9,2.9,0.5c1.4-1.7,2.9-3.5,3.9-5.4
				c2.4-4.7,4.8-9.5,7.6-14c1.8-2.9,1.1-5.3-1.4-7.5c-2.5-2.3-4.9-5.1-7.6-7.3c-4-3.1-4.1-7.2-3.1-11.3c1.6-6.8,4.4-13.2,5.7-20.1
				c2-10.9,4.4-21.7,5.2-32.8c0.3-3.9-0.5-7.8-1.6-11.5c-3.3-11.3-5.6-23-12.9-32.7c-3.8-5-8.6-8.9-13.5-12.6
				c-2-1.6-3.2-3.3-3.4-5.8c-1.1-12.8-6.4-23.9-14.7-33.6c-7.5-8.6-16.2-15.7-27.2-19.4c-1.6-0.5-3.1-1.3-4.6-2.2
				c4.3-1,8.7-0.5,13-0.2c7.8,0.5,14.9,3.3,21.9,6.6c0.8,0.4,1.8,0.5,2.6,0.8c0-1.5-1.9-0.7-2.3-2.2c2.1-0.5,3.9-1.5,5.9,0.4
				c1.6,1.5,3.7,2.4,5.5,3.8c1.7,1.3,3.2,1.2,4.6-0.3c2-2.1,4-4.4,5.3-7.1c0.5-1.1,1.1-2.1,1.8-3c2.1-2.9,1.9-4.9-1.2-6.7
				c-2.5-1.4-5.2-2.3-8.1-2.9c-1.6-0.2-2.6,0.3-3.5,1.6c-1.8,2.4-3.6,4.9-4.9,7.7c-1.7,3.8-6.5,6.1-9.7,4.6
				c-10.3-4.8-21-5.5-32.2-4.3c-5.3,0.5-10.8-0.4-16.2-0.5c-7.8-0.1-15.7-0.1-23.6,0c-2.5,0-4.9-0.5-6.9-1.9
				c-5.3-3.6-11.1-6.4-16.9-8.8c-3.9-1.7-8.4-1.1-12.6-0.8c-6.8,0.2-13,3-19.8,3.4C-8.6-110-16.4-105-24-99.9
				c-4.7,3.1-9.4,6-14.2,8.9C-38.9-90.8-39-91.7-39.3-92.2z M150.2-108.4c-1,0.7-1.2,2.2-2.4,2.9c-0.6-0.8,0.3-1.8-0.5-2.8
				c-1,2.2-1.8,4.1-2.8,6c-0.6,1.3-1.5,2.3-3.1,2.6c-1.4,0.3-2,0.2-1.5-1.6c0.7-2.4,2.4-4.2,3.8-6.2
				C145.7-110.2,147-110.3,150.2-108.4z M155.6-105.7c-2.6,0.4-4.2,2.1-6.7,2.3C150.8-109.1,151.4-109.4,155.6-105.7z M150.7-98.6
				c-1.5-3.4-0.2-4.6,5.7-6.1c-1.5,2.4-3,5-4.6,7.3c-3.5,5-3.5,5-8.4,1.5c-0.4-0.3-1.3-0.3-1.3-1.4
				C144.7-98.8,147.3-100.4,150.7-98.6z M166.1,111.4c-1.4-6.4-0.3-12.6-0.2-18.9c3.9,0,3.9,5.2,7.4,5.7c-0.2,1.7-1.5,3-2.2,4.4
				c-0.4,1-0.8,1.9-1.3,2.9C168.8,107.7,168,109.9,166.1,111.4z M163.4,100.3c-0.7,3.6,1.5,7.2,0.3,11
				C159.4,107,159.4,106.1,163.4,100.3z M163.1,85.2c0.7,5.4,2.3,10.9-2.2,15.5c-0.5,0.5-0.4,1.9-1.5,1.8c-1.1-0.2-1.3-1.5-1.4-2.3
				C157.2,94.5,159.9,89.8,163.1,85.2z M165.7,81.2c3.8,2.9,6.8,6.1,9.7,9.4c0.5,0.5,0.8,1.3,0.6,2c-0.1,0.5-0.3,1.2-0.6,1.4
				c-0.5,0.3-1-0.2-1.3-0.6c-1.3-2-3.5-3-5.4-4.4C166.3,87.4,163.5,85.5,165.7,81.2z M78.6,173.7c-5.4,9-6.8,10-13,9.3
				C67,176,73.3,176.2,78.6,173.7z M69.2,175.3c-2.8,0.8-4.6,3-7.1,4.8c-0.1-1.9,1.2-2.9,1.7-4C65.1,172.8,66.6,172.6,69.2,175.3z
				 M79.9,170.8c-1.9-0.3-3.2,1.4-5,1.6c-1.7,0.1-3.3-0.6-4.8-1.8c-1-0.7-2.8-1-2.6-2.3c0.1-1.5,1.9-2.1,3.1-3
				c0.3-0.2,1.1-0.1,1.5-0.1c3.8-0.5,5.3,3,7.9,4.7C80.5,170.1,80.1,170.8,79.9,170.8z M-112,97c-2.8,0-3.2-0.2-5.1-3.2
				C-114.5,93.9-114.3,94-112,97z M-128.7,98.8c6.6-5.1,9.6-5.3,12.1-1.3C-120.4,98-124.2,98.4-128.7,98.8z M-96.9,94.6
				c-8.3-4.6-13.5-12.2-19.9-19.8c3.8,0.5,6.2,1.6,7.9,4.2c1.3,2,2.2,4.1,3.5,6C-102.9,88.7-99.4,91.1-96.9,94.6z M-124.4,100.6
				c-4.4,5.1-5.5,5.5-8.9,3.2c-0.5-0.3-1.3-0.7-1.1-1.4c0.1-0.4,0.8-1,1.4-1.1C-130.2,100.8-127.5,100.4-124.4,100.6z M-110.8,99.9
				c-5,4-10.6,6.1-17.2,7.4C-124.5,100.9-117.1,97.9-110.8,99.9z M-133-30.3c0.6,1.4,1.1,2.1,1.3,2.9c1.7,4.8,4.1,9.2,7.2,13.3
				c0.8,1.1,2.2,2.3,1.9,3.5c-0.4,1.5-2.4,0.8-3.7,1c-4.4,0.6-7.5-2.1-8.3-6.5C-135.2-20.9-134-25.2-133-30.3z M-127.8-24.2
				c-2-2.6-3.1-5.5-4-8.9C-126.9-29.8-126.6-29.5-127.8-24.2z M-122.9-22.9c-0.3,1.1-0.5,2-1,3c-0.3,0.6-0.1,2.1-1.4,1.7
				c-0.8-0.3-1.9-1.4-1.4-2.4c1.1-2.1,0.2-4.3,1.1-6.6C-122.6-26.9-122.3-25.1-122.9-22.9z M-119.8-10.6c-5.2-4.1-2.5-9.1-1.9-14.2
				c0.6,0.4,1.1,0.6,1.3,1c3,3.9,2.2,8.7,2.4,13.1C-117.9-9-119-10-119.8-10.6z M-119.2-4.5c-2-1-4-1.9-6.4-3.1
				c1-0.4,1.4-0.6,1.8-0.8c3.1-1.3,4.7-0.5,5.8,2.4c0.2,0.5,0.4,1.1-0.1,1.5C-118.4-4.1-118.9-4.3-119.2-4.5z M-50.4-107
				c1.1-0.1,1.3,1.3,1.9,1.9c1.7,1.9,0.1,3.6-0.3,5.3c-0.2,0.7-0.3,2-1.2,2c-1.2,0.1-1.9-0.8-2.3-1.9c-0.3-0.6-0.5-1.4-1-2.4
				c0.2-0.7,0.5-1.8,0.8-2.8C-52.1-105.8-51.4-106.8-50.4-107z M-44.6-110.6c-0.7,1.5-0.3,3.7-2.1,4.3c-0.7,0.2-1.4-1-1.4-1.8
				C-47.9-110.1-46-110.1-44.6-110.6z M-46.5-99.6c-0.2-0.2-0.2-0.6-0.1-0.8c1.3-3.4,1.7-7.2,4.4-10.4c0.2,1.3,0.3,2.2,0.6,3.1
				c1.9,5.9,1.1,5.2-3.7,8.2C-45.5-99.3-46-99.1-46.5-99.6z M-48.3-90.5c0.2-5.3,1.5-7,6.6-8.7C-42.6-95.4-45.5-93.3-48.3-90.5z
				 M70.6-88.1c-14.4-4.1-28.7-6.8-42.8-10.4c0.5-1,1.2-0.7,1.8-0.7C34.4-99.7,39-99,43.8-99C54-99.1,63.2-96.7,70.6-88.1z
				 M-37.6,117c-9.5-7.5-17.5-16.6-24.6-26.3c-6.7-9.1-10.5-19.9-14.5-30.4c-2.5-6.5-4.1-13.1-5.6-19.9c-2.4-10.7-4.9-21.2-2.9-32.4
				c1.9-10.5,4.6-20.8,10.1-30c3.9-6.6,9-12.2,14.2-17.8c7.3-7.8,12.7-17.3,19-26c4.2-5.9,8.4-12,14.6-16.1
				c12-7.9,25.2-12.4,39.2-14.8c7.7-1.3,15,0.3,22.2,2.6c8.5,2.8,16.5,6.6,24.7,10.2c10.4,4.6,20.4,9.4,29.3,16.4
				c9.2,7.2,20,12,29.6,18.4c8.3,5.6,15.6,11.7,19.5,21.5c3.3,8.2,5.6,16.6,8.9,24.8c2.6,6.5,4.3,13.3,5.1,20.3
				c0.5,4.8,1.2,9.4,2.2,14.1c0.6,3.1,1,6.4,0.7,9.4c-0.8,11.4-5.3,21.9-9.7,32.3c-2.9,6.7-5.3,13.5-7.7,20.1
				c-1.7,4.4-3.8,8.4-7.3,11.2c-8.3,6.8-16.5,13.6-26.5,17.9c-10.5,4.7-20.2,10.8-31.5,14.2c-9.5,2.9-18.7,6.4-28.9,5.6
				c-3.8-0.3-7.7,1.1-11.4,0.4c-6-1.1-12.1-0.8-18-1.7c-5.7-0.8-11.8-0.5-17.3-2.4c-7.3-2.4-13.2-7.7-20-11.4
				C-29.3,124.8-33.1,120.5-37.6,117z M-22.6,133.4c-0.2,0.3-0.3,0.6-0.5,0.8c-3.7-2.3-8.3-3.1-10.7-7.5
				C-30,129.1-26.3,131.3-22.6,133.4z M60.6,142.1c4.2-0.8,8.4-2.3,12.8-1.7C60,147,46.2,152.5,30.8,151.9
				c-8.6-0.3-17.1-1.7-25.1-6.6c2-0.5,3.2-0.1,4.4,0c5.2,0.6,10.3,2,15.7,1.1c4.1-0.7,8.3-2.3,12.6-1.6
				C46.1,146.2,53.3,143.5,60.6,142.1z M4.5,142.4c7.5,0.7,15.1,0.6,22.7,1.7C19.4,146.6,12.1,142.6,4.5,142.4z M155.4,53.6
				c-1.1,13-3.3,25.7-12.5,35.9C147.6,77.7,151,65.5,155.4,53.6z M152.3-2.1c5.9,9.9,4.7,20.8,4.6,31.5
				C153.4,19.2,153,8.5,152.3-2.1z M149.3-1.5c-1.2-2.3-2.1-4.1-2.2-6.7C149.9-6.6,150.1-4.6,149.3-1.5z M142.2-27.1
				c5.8,4.1,5.1,10.1,5.9,15.5C145.1-16.2,143.6-21.3,142.2-27.1z M91.2-81.4c-10.8-2.3-18.7-8.9-27.3-15.3
				c10.9-0.8,19.5,5,28.7,8.6c10.9,4.2,19,12.6,27,20.8c3.9,4,7.5,8.4,10.2,13.3c0.4,0.7,1,1.5,0.4,2.5c-2.6-0.8-5.7-2-6.9-4.2
				c-3.4-6.5-8.5-11-14-15.5C104-75.5,98.1-79.9,91.2-81.4z M117.3-60c-9.5-5.4-18.4-11.7-26.7-18.7C101.6-75.4,109.9-68.2,117.3-60
				z M125.2-48.4c0.7,1.5,3.2,1.7,2.6,4.3c-2.9-2.5-5.6-4.4-8.5-6.2c-8.7-5.2-17.7-10.1-26.1-15.9c-9.9-6.9-19.8-13.6-31-18.1
				c-4.1-1.7-8.1-3.8-12.2-5.6c5.7,0.3,11.1,1.8,16.5,3.3c5.4,1.5,10.6,3.7,15.5,6c6,2.9,11.5,7.2,16.8,11.4c4,3.3,8.5,5.9,12.6,8.9
				C116.6-56.8,122.3-54.1,125.2-48.4z M128.4-49.7c5.3,3,5.3,3,7.3,12.9C133.4-40.8,131.1-44.9,128.4-49.7z M142-45
				c-2.8-1.5-6.6-2.1-7.9-5c-4-8.1-9.3-14.9-15.7-21.1c-7.5-7.4-15.4-14.3-25.1-18.9c-2.2-1.1-4.7-1.5-6.9-2.5
				c-6.4-3.1-12.8-5.4-19.9-5.8c-2.4-0.1-5,0-7.4-1.3c1.1-1,2.1-0.8,3.2-0.7c6,0.4,12.2,0.3,18.1,0c13.1-0.7,24.3,3.9,34.7,10.6
				c7.6,4.9,13.6,11.7,18.7,19.3c4.9,7.3,7.3,15.3,8.9,23.6C142.9-46.2,143.4-44.3,142-45z M144.9-28.3c-6-4-7-10.6-9-16.8
				C142.8-44.2,145.9-38.3,144.9-28.3z M171.6,33.8c-0.1,0-0.3,0-0.4,0c-0.5-3.3-1-6.7-1.7-9.9c-1.3-5.5-2.3-10.9-4-16.3
				c-2.8-8.7-5.4-17.5-11.5-24.5c-5-5.7-7.5-12.1-7.8-19.6c0-0.6-0.6-1.5,0.3-2c0.3-0.1,0.8,0,1.2,0.3c7.5,5.9,14.2,12.6,18.2,21.6
				c2.5,5.8,3.6,12.2,5.7,18.1c2.2,6.2,2.6,12.6,2.5,19.1c0,0.8,0.2,2.3-0.4,2.3c-3,0.2-1.4,2.1-1.5,3.4
				C172.2,28.9,172,31.3,171.6,33.8z M-68.7,120.4c-3.6-1.9-5.4-4.6-6.8-7.6C-72.8,114.7-70.2,116.6-68.7,120.4z M-79.4,74.2
				c2.9,1.1,3,3.6,3.9,5.4c3.9,7.9,9.3,14.8,14.7,21.8c7.5,9.7,14.4,19.8,23.4,28.4c7.7,7.3,16.1,13.2,26.1,16.9
				c9,3.3,18,6.5,26.9,9.9c6.2,2.3,12.7,3,19.3,3c-7.4-1.1-14.7-2.8-21.7-5.4c-10.5-3.9-21.4-6.9-31.4-12.2
				c-5.1-2.6-9.6-5.8-13.7-10c4.6,2,9.1,4.1,14,5.2c2.4,0.5,5.1,1,7.2,2.3c4.7,2.9,9.6,4.8,14.6,7.1c10.1,4.8,20.7,7,31.8,6.6
				c13.5-0.5,25.7-5.4,37.6-11c7.5-3.5,15.4-6.5,22.5-11c4.8-3.1,10.8-4.2,15.4-7.4c12.3-8.6,23.2-18.6,32.4-30.8
				c9.3-12.4,13.6-26.3,14.5-41c0.8-14,2-28,0.5-41.9c-0.5-5.4-1.7-10.6-5.2-14.8c-3.5-4.2-2.3-9.3-3.8-14c3.3,2.9,5.7,6.4,7.5,10.2
				c4.6,9.4,7.6,19.3,9.6,29.6c1.5,7.5,2.4,14.9,1.8,22.5c-1.7,18.5-10.6,34-21.5,48.5c-5,6.7-11.1,12.2-16.7,18.3
				c-7.5,8.4-15.3,16.5-24.2,23.4c-5.9,4.6-12.2,8.8-19.3,11.4c-1.2,0.4-2.4,0.7-3.6,2c8.3-1.9,14.9-6.5,21.9-10.4
				c-11.1,12.7-25.6,19.2-41.7,23.6c1.3-4,5-4.8,8.1-7.2c-3.6,0.5-5.8,2-8.2,3.3c-5.4,3.1-10.7,5.9-17.4,3.5c-2.6-1-5.7-0.4-8.7-0.6
				c4.4,1.7,9.1,1.2,14,2.6c-6.7,3.7-13.5,5.1-20.2,6.5c-8.5,1.8-16.5-0.5-24.7-1.5c-3.6-0.4-7-1.4-10.5-2.3
				c-10.9-3.2-21.6-7-32.3-10.7c-5.3-1.8-7-7.2-3.7-11.7c0.8-1.2,1.6-2.3,2.2-3.5c0.4-0.7,0.8-1.5,0-2.3c-3.5-3.5-5.8-8.2-10.8-10.2
				c-0.7-0.3-1.8-1-2.3-0.2c-1.5,1.9-3.2,3.9-3.9,6.1c-0.6,1.6-1.8,3.6-0.5,5.5c2.6,3.6,5.5,7.2,9.9,8.8c2.3,0.8,2.6,1.9,2.5,4
				c-2.6-0.8-4.6-2.5-6.4-4.2c-7.7-7.3-12.1-16.9-16.3-26.4c-5-11.2-7.4-23.4-11.4-35C-78.1,81.6-78.6,78-79.4,74.2z M-44.2,143.8
				c-0.1,1-0.5,1.1-1.3,0.5c-2.9-2-5.5-4.3-7.3-7.4c-0.7-1.3-0.2-2.2,0.5-3.2c0.4,0.1,0.5,0.1,0.6,0.1
				C-49.1,134.4-44,141.1-44.2,143.8z M-43.5,141.8c-0.1-0.3,0-1,0.2-1.2c1.1-1.2,2-2.4,2.6-4.1c1.1,2.2,0,5-1.8,5.5
				C-42.9,142.1-43.3,142.3-43.5,141.8z M-45.9,135.1c0.4-1.9-1.6-3.2-1.5-5.5c2.1,1.4,4.3,2.3,3.5,5.3c-0.2,0.5-0.6,1.2-1.4,1.2
				C-45.5,136-46,135.4-45.9,135.1z M-81.2,55.4c1.7,4.7,3.4,9.3,5.1,14C-79.8,65.3-80.8,60.5-81.2,55.4z M-101,26.9
				c-2.4-3.3-2.5-3.6-2-6.7C-101.5,22.1-100.9,24.1-101,26.9z M-95.2-12.2c0.3,0.1,0.5,0.1,0.7,0.2c-1,4.4-1.9,8.9-2.9,13.3
				C-98-3.5-96.2-7.8-95.2-12.2z M-82.3-33.9c-1.4,5.2-3,10.3-4.7,15.4c-2.5,7.3-4.6,14.5-3.6,22.3c0.4,3.3,0.4,6.6,0.2,9.9
				c-0.6,9.1,1.2,18,2.9,26.9c0.8,4.8,1.8,9.5,3.1,14.2C-101.4,18.2-97.8-7.5-82.3-33.9z M-64.6-56.6C-74-35.7-83.1-14.8-87.7,8
				c-1-1.8-0.2-3.3-0.2-4.8c0-9,1.4-17.7,4.8-26.1c2.9-7.4,6.8-14.4,9.2-21.9C-72.4-49.7-68.5-53.1-64.6-56.6z M-37.1-77.1
				c0.5-0.5,1.4-1.3,2.4-0.6c-13.2,16.9-24,35.7-39.4,50.8c-0.4-0.7-0.1-1.3,0.1-1.9c2.1-7.2,5.4-14,8.5-20.9
				c1.5-3.5,3.3-6.8,5.7-9.9C-53.7-67.2-44.4-70.9-37.1-77.1z M-18.7-91c-10.7,8.4-22.6,14.7-33.7,22.1
				C-45.9-83.8-32.4-87.5-18.7-91z M-9.4-106.5c5.4-2.5,11.4-2.9,17.3-4c10.4-1.9,20.8-3.6,30.7,1.5c3.2,1.6,6.7,3,9.5,5.6
				c-5.8,1.3-11.3,0.5-16.8,1.3c-8.2,1.1-16.2,2.4-24.4,2.6c-7.5,0.1-15,1.4-22.2,3.6c-8.4,2.6-16.5,6-25.1,10.1
				c0.5-1,0.6-1.3,0.8-1.4C-30.5-94.9-20.4-101.4-9.4-106.5z"/>
		</g>
		<g>
			<path fill="#F9F1E9" d="M36.1-144.1c-3.2,0.5-6.4,0.8-9.3,2c-4.1,1.6-7.3,4.3-7.4,8.7c-0.3,9.2-7.4,11.5-13.8,14.6
				c-3.7,1.8-7.8,2.6-11.7,4.3c-10.6,4.7-20.7,10.3-29.3,18c-1.4,1.3-3.8,1.6-3.7,4.1c3.7-2.8,7.8-5.1,11.1-8.3
				c5.8-5.6,13.5-7.9,20.2-11.8c6.1-3.4,13-4.7,19.7-6.5c4.7-1.3,9.5-0.5,14.2,0.4c7.8,1.6,15.8,1.3,23.6,0.8
				c4.2-0.3,8.5,0.5,12.7,0.2c8.4-0.6,16.5-2.2,24.7-4.1c-7.2,0.7-14.5,1.7-21.7,2.2c-7.4,0.6-14.9,0.4-22.3,0.6
				c-7.4,0.2-14.9,0.2-22.1-2.4c14.3-1.7,28.8-0.1,43.1-2.9c14.2-2.6,28.3-5.4,42.8-6.2c0-0.3-0.1-0.7-0.1-1.1
				c-7.7,0.8-15.4,1.6-23.1,2.4c-0.1-0.3-0.1-0.5-0.2-0.8c6.9-4.3,15.7-5.8,20.9-12.8c-3.2,0.2-5,2.9-7.6,4.1
				C83-131.4,69.2-124.9,53.5-124c-8.1,0.4-16.1,0.8-24.2,0.4c-4.4-0.2-8.6,1.4-13,1.4c2.8-2.1,5.2-5.1,8.7-5.1
				c7.7-0.1,11.4-5.2,15-10.8c1.3-2,3.6-4.4,2.2-6.6C40.9-146.5,38.2-144.5,36.1-144.1z M26.6-129.7c1.6-2.9,4.1-2,7-2.5
				C31.4-129.8,29.2-129.6,26.6-129.7z M24.8-138.8c-0.3,1.5-0.5,2.9-1,4.1c-0.4,1.4-0.2,2.6-0.3,4c-0.1,1.5-1.4,1.7-2.5,1.7
				c-0.5,0-1-0.1-1.1-0.7C19.5-132.3,21.9-137,24.8-138.8z M30.7-141c1.5-0.1,1.4,0.3,1.4,1.6c0,4.3-3.6,5.5-6.8,8.2
				c0.3-2.3,0.6-3.8,0.6-5.4C26-139.9,27.9-140.8,30.7-141z M39.9-142.6c0.5,0,0.5,0.4,0.4,1c-0.3,2.9-5.2,7.3-8.5,7.3
				c2.4-2.8,4.7-5.3,6.9-7.9C38.9-142.5,39.4-142.6,39.9-142.6z"/>
		</g>
		<g>
			<path fill="#F9F1E9" d="M151.2-79.7c2.9,5.6,4.6,11.5,5.9,17.7c0.8,3.8,1.8,7.4,3.7,10.8c3.1,5.6,5,11.8,6.5,17.8
				c1.5,5.9,5.1,10.4,9.2,14.6c-6-7.4-9.1-16.1-10.2-25.5c0.8,2.1,1.6,4.3,2.6,6.2c3.6,6.2,8.4,12.2,10.9,18.9
				c3.4,9.1,11.7,13.8,16.6,21.3c2,3,4,6,6.4,8.9c-2.2-5.8-5.4-11-9.9-15.5c-5-5-10.4-9.7-12.1-17.4c3.9,1.6,6.9,4.2,9.7,7
				c-1-3.5-3.8-5.3-6.5-6.9c-5.1-3.1-8.6-7.3-10.6-12.7c-0.7-2.1-2.6-2.5-3.8-3.9c-1.8-2.2-2.3-5-3.4-7.5c-1.2-2.6-1.7-5.6-2.5-8.5
				c2.4,0,3.2,1.6,3.9,3.4c1.3,3.2,2.3,6.6,4.6,9.4c3.1,3.9,6.4,4.9,11.1,3c2.2-0.8,4-2.5,6.7-2.5c0.8,0,1.4-1.7,0.7-2.2
				c-2.3-2.1-2-5.1-2.4-7.7c-1.2-7.3-7.5-10.6-14.1-7.1c-1,0.5-1.9,0.8-2.9,1.4c-4.4,2.3-8.4,1-10.4-3.6c-0.5-1.3-1.2-2.4-1.9-3.6
				c1.4,5.2,4,10.1,5.3,16.1c-3.8-5.9-6.4-11.5-7.5-17.8c-0.8-4.2-2.1-8.4-3.8-12.3C153.1-78.9,152.8-80.6,151.2-79.7z M181.8-46.9
				c2,1.5,3.7,2.8,5.5,4C183.6-40.5,183.1-40.9,181.8-46.9z M170.8-51.3c5.6,0.3,7.8,4,9.9,8.1c0.4,1,1.6,1.8,0.6,2.9
				c-0.7,0.8-1.9,0.6-3,0.4c-1.3-0.2-2.2-1-3.2-1.9C172.8-44.6,171.8-47.8,170.8-51.3z M185.5-53c1.9,1.2,1.7,3.9,1.5,6.6
				c-2.3-1.6-4.9-2.2-6.8-4.2C181.8-52.1,184-53.8,185.5-53z M174.7-56.4c2.5-1.8,6-1.7,8.6,0.2c0.4,0.3,1.4,0.5,1.1,1.3
				c-0.3,1-1.5,1.3-2.1,0.8c-2.8-1.8-5.3-0.2-7.9,0c-0.8,0.1-1.7,0.2-2.6-0.4C172.8-55,173.8-55.6,174.7-56.4z"/>
		</g>
		<g>
			<path fill="#F9F1E9" d="M-68.9,184.6c-0.8,2.2-5.1,4.8-7.4,4.8c-1.7,0-2.2-1-2.5-2.3c-0.6-3.4,1.7-5.9,6.1-6.6
				C-69.7,179.9-68,181.9-68.9,184.6z"/>
		</g>
		<g>
			<path fill="#F9F1E9" d="M129.1,170.5c0.2-2.1,1.5-4.1,3.1-4.4c3.1-0.3,4.4,0.5,4.7,2c0.3,2.4-1.6,5-3.8,5.1
				C131.1,173.3,129,172.7,129.1,170.5z"/>
		</g>
		<g>
			<path fill="#F9F1E9" d="M-109.7-85.8c-0.1,2.1-0.7,4.2-3.8,4.6c-1.3-0.1-3-0.3-2.8-2.2c0.2-1.9,0.7-4.1,3.3-4.2
				C-111.5-87.9-109.6-87.9-109.7-85.8z"/>
		</g>
		<g>
			<path fill="#F9F1E9" d="M69.5-136c-1.3-0.1-2.1-0.7-2.1-2.2c0.1-2.9,1.5-3.6,6.8-3.6C74.2-138.8,72-135.8,69.5-136z"/>
		</g>
		<g>
			<path fill="#F9F1E9" d="M187.3,15.6c-0.3-2,1.1-3,2.8-3.3c1.2-0.2,2.8-0.1,3.3,1.3c-0.1,2.4-1,4.1-3.2,4.4
				C188.6,18.1,187.6,16.9,187.3,15.6z"/>
		</g>
		<g>
			<path fill="#F9F1E9" d="M-130.6,28.2c-2.1,0.1-2.5-1.1-2.6-2.6c-0.1-1.6,0.2-3.2,2.1-3.3c1.6-0.1,2.5,0.8,2.5,2.5
				C-128.7,26.1-127.8,28.1-130.6,28.2z"/>
		</g>
		<g>
			<path fill="#F9F1E9" d="M135.8-94L135.8-94c0.1,0,0.2,0.1,0.2,0.1C135.9-93.9,135.8-93.9,135.8-94z"/>
		</g>
		<g>
			<path fill="#F9F1E9" d="M150.5-83c0.8,1.1,0.8,2.1,0.7,3.3l0,0l0,0c-0.4-1.7-1.6-2.9-2.8-4c-3.8-3.8-8.4-6.6-12.4-10.1
				C141.4-91.1,146.5-87.7,150.5-83z"/>
		</g>
		<g>
			<path fill="#F9F1E9" d="M-85.1,171.2c0.2,1.8-1,2.9-2.5,3.1c-1,0.1-2.4-0.2-2.4-1.2c-0.1-2.8,1.4-3.6,3-4S-85.2,170-85.1,171.2z"
				/>
		</g>
		<g>
			<path fill="#F9F1E9" d="M-78.1,154.2c-0.1,1.5-0.6,3.1-2.4,3.3c-1.2,0.1-1.8-1-2.1-2c0.3-1.3,0.4-3,2.2-3.1
				C-79.2,152.1-78,152.7-78.1,154.2z"/>
		</g>
		<g>
			<path fill="#F9F1E9" d="M107.2,174.3c-0.2-1.8,1.1-2,2.4-2.5c1,0.3,2.2,0.5,2.2,1.9c0.1,1.8-1.3,2.8-2.8,2.9
				C107.9,176.9,107.4,175.6,107.2,174.3z"/>
		</g>
		<g>
			<path fill="#F9F1E9" d="M113-140.5c-0.1-1,0.3-1.8,1.5-2.1c1.6,0.4,3,1.2,3.3,2.9c0.1,0.8-0.3,2.5-1.2,2.1
				C115.3-138.1,113.2-138.4,113-140.5z"/>
		</g>
		<g>
			<path fill="#F9F1E9" d="M-85.9-111.8c0.2,1.3-0.3,2.2-1.5,2.4c-1.5,0.1-2.2-0.8-2.5-2.3c-0.4-1.7,1.2-1.5,1.8-2.3
				C-86.9-113.8-86.1-113.1-85.9-111.8z"/>
		</g>
		<g>
			<path fill="#F9F1E9" d="M141.2,158c0.1-1.1,0.2-2.4,1.9-2.4c1.5-0.5,1.9,0.6,2.2,1.6c0.4,1.6-0.7,2.2-1.8,2.4
				C142.5,159.7,141.1,159.2,141.2,158z"/>
		</g>
		<g>
			<path fill="#F9F1E9" d="M-159.4,13.1c0.7-0.4,1.9-1.3,2.2,0.1c0.3,1.6-1.3,2.3-2.4,2.3s-3.5,0.2-3.5-1.4
				C-163,11.4-160.6,13.5-159.4,13.1z"/>
		</g>
		<g>
			<path fill="#F9F1E9" d="M121.9-122.6c-0.2-1,0.4-1.6,1.5-1.6c1.3,0,2.5,0,3,1.8c-0.1,1.2-0.8,1.8-2,1.8
				C122.9-120.5,122.2-121.4,121.9-122.6z"/>
		</g>
		<g>
			<path fill="#F9F1E9" d="M-147.5,80c0.1,1.5-0.8,2.5-2.1,2.8c-1,0.2-1.9-0.7-2-1.7c0-1.3,1-2,2.1-2.3
				C-148.4,78.7-147.6,78.8-147.5,80z"/>
		</g>
		<g>
			<path fill="#F9F1E9" d="M193.7-28.8c-0.3-1.1,0.3-1.9,1.4-2c1.3-0.2,2.2,0.3,2.9,1.5c0,1.2-0.5,1.8-1.7,2
				C195-27.2,194.1-27.7,193.7-28.8z"/>
		</g>
		<g>
			<path fill="#F9F1E9" d="M197.6,26.9c-0.2-1.4,0.3-2.1,1.4-2.3c1.1-0.2,2,0.3,2,1.4c0,1-0.1,2.1-1.6,2.2
				C198.2,28.3,197.8,27.6,197.6,26.9z"/>
		</g>
		<g>
			<path fill="#F9F1E9" d="M120.6,151.9c2.3-2.4,3.6-5.8,6.7-7.7C125.9,147.4,122.6,149.1,120.6,151.9z"/>
		</g>
		<g>
			<path fill="#F9F1E9" d="M127.1,144.1l0.1-0.1c0.1,0,0.1-0.1,0.2-0.1c0,0.1-0.1,0.1-0.1,0.2C127.3,144,127.3,144.1,127.1,144.1z"
				/>
		</g>
		<g>
			<path fill="#F9F1E9" d="M-103,165.5c0.4,1.3-0.4,2.1-1.3,2.5s-1.6-0.3-1.7-1.4c-0.1-1.1,0.5-1.8,1.6-2.2
				C-103.6,164.2-103.2,164.9-103,165.5z"/>
		</g>
		<g>
			<path fill="#F9F1E9" d="M-64.6,182.6c-0.2-1.2,0.2-2,1.4-2.1c1.1-0.1,1.8,0.5,1.8,1.6c0,1.2-0.4,1.9-1.6,2
				C-64.1,184.2-64.5,183.5-64.6,182.6z"/>
		</g>
		<g>
			<path fill="#F9F1E9" d="M-161.1,38.7c0.1,1.2-0.6,2-1.8,2.2c-1,0.1-1.7-0.3-1.6-1.5c0.1-1,0.4-1.9,1.8-2.1
				C-162.2,37.8-161.1,37.7-161.1,38.7z"/>
		</g>
		<g>
			<path fill="#F9F1E9" d="M126.3-155.3c-2.2,1.1-4.3,2.1-6.6,3.2C121.3-154.1,123.3-155.7,126.3-155.3z"/>
		</g>
		<g>
			<path fill="#F9F1E9" d="M-147.2,1.4c-1.3-2.3-1.6-4.4-0.5-6.7C-147.6-3.1-145.9-1.2-147.2,1.4z"/>
		</g>
		<g>
			<path fill="#F9F1E9" d="M126.3-132.6c-1.8,1.4-3.8,1.3-6.7,1.7C122.1-132.8,124.2-132.6,126.3-132.6z"/>
		</g>
	</g>
	<g>
		<g opacity="0.25">
			<g>
				<path d="M-48.2-148.9l4.9-1.6c0.2-1.7,0.4-3.4,0.6-5c0.2-1.7,0.4-3.2,0.6-4.8c0.2-1.5,0.4-3,0.6-4.2c0.2-1.4,0.4-2.5,0.5-3.5
					c0.1-1.1,0.3-1.9,0.4-2.5c0.1-0.7,0.2-1.2,0.2-1.4c0.1-0.3,0.2-0.6,0.3-0.7s0.3-0.3,0.6-0.4c0.3-0.1,0.6-0.1,0.8,0
					c0.2,0.1,0.4,0.4,0.5,0.7c0,0.1,0.1,0.5,0.3,1.1c0.1,0.5,0.3,1.3,0.6,2.1c0.2,0.8,0.5,1.8,0.8,2.9c0.3,1.1,0.6,2.1,1,3.3
					c0.3,1.2,0.6,2.2,1,3.3c0.3,1.1,0.6,2.1,1,3.1c0.1,0.4,0.3,0.8,0.4,1.3c0.1,0.4,0.3,0.8,0.4,1.2c0.8-0.3,1.6-0.5,2.3-0.7
					s1.4-0.4,1.8-0.6l0.2,0.7c-0.7,0.3-1.4,0.5-2.1,0.7c-0.6,0.2-1.4,0.4-2,0.6c0.6,1.7,1.4,3.2,2.1,4.6c0.7,1.3,1.6,2.3,2.5,3.2
					c1,0.8,2,1.3,3.2,1.6c1.2,0.2,2.5,0.1,3.9-0.4c0.6-0.2,1.2-0.4,1.8-0.8l0.4,0.7c-0.6,0.4-1.2,0.8-1.7,1.1
					c-0.5,0.3-1.1,0.5-1.6,0.6c-1.3,0.4-2.3,0.6-3.4,0.6c-1,0-1.9-0.2-2.8-0.5c-0.8-0.3-1.6-0.8-2.2-1.5c-0.6-0.6-1.3-1.4-1.8-2.2
					c-0.5-0.8-1.1-1.8-1.5-2.9c-0.4-1.1-0.8-2.1-1.3-3.3l-8.2,2.8c0,0.2,0,0.4-0.1,0.6c0,0.2-0.1,0.4-0.1,0.6
					c-0.2,1.7-0.4,3.2-0.6,4.4s-0.5,2.4-0.8,3.4c-0.3,1-0.6,1.8-1,2.4s-0.7,1.3-1.1,1.7c-0.3,0.4-0.7,0.8-1.1,1.2s-0.7,0.6-1.1,0.8
					l-0.5-0.6c0.4-0.5,0.7-1,1.1-1.5c0.3-0.5,0.6-1.2,1.1-1.9s0.7-1.7,1.2-2.8c0.4-1.1,0.7-2.2,1.1-3.6c0.3-1.4,0.6-2.9,0.8-4.4
					l-4.6,1.5L-48.2-148.9z M-39-172.3c-0.1,0-0.3,0.6-0.5,1.7c-0.2,1.1-0.4,2.5-0.7,4.4c-0.3,1.9-0.5,4.1-0.8,6.7s-0.6,5.4-1,8.6
					l7.8-2.6c-0.4-1.2-0.7-2.4-1.1-3.7s-0.6-2.5-1-3.7c-0.3-1.3-0.5-2.4-0.7-3.5c-0.2-1.2-0.4-2.1-0.6-3.1c-0.2-1-0.4-1.8-0.5-2.5
					c-0.2-0.7-0.3-1.3-0.4-1.7c-0.1-0.2-0.1-0.3-0.2-0.4C-38.9-172.3-38.9-172.3-39-172.3z"/>
				<path d="M-16.1-154.2c-0.2,0.8-0.5,1.6-0.8,2.2c-0.3,0.6-0.6,1.1-1,1.5c-0.3,0.4-0.6,0.6-1.1,0.8c-0.4,0.2-0.7,0.3-1.2,0.4
					c-0.3,0.1-0.7,0.1-1.2,0.1c-0.4,0-1-0.1-1.4-0.4c-0.4-0.2-1-0.7-1.3-1.3c-0.4-0.6-0.7-1.5-1-2.5c-0.2-1.1-0.3-2.2-0.3-3.2
					c0-1.1,0.1-2,0.3-2.8c0.2-1,0.4-1.8,0.7-2.6l0.8,0.1c0,0,0,0.1,0,0.4c0,0.2,0,0.6-0.1,1.1c0,0.4,0,1-0.1,1.5c0,0.5,0,1.2,0,1.7
					c0,0.6,0,1.3,0.1,1.8c0.1,0.6,0.1,1.2,0.3,1.8c0.3,1.3,0.7,2.2,1.4,2.9c0.6,0.6,1.3,0.8,2,0.7c0.8-0.2,1.5-0.8,2.1-2
					c0.5-1.2,1-2.6,1.3-4.4c0-0.8,0-1.6,0-2.3c0.1-0.7,0.1-1.4,0.2-2c0.1-0.5,0.2-1.1,0.3-1.5c0.1-0.4,0.2-0.6,0.2-0.8h0.7
					c0,1.1,0,2,0,2.9c0,0.8,0.1,1.6,0.1,2.3c0,0.6,0.1,1.3,0.2,1.8c0.1,0.5,0.1,1,0.2,1.4c0.2,0.8,0.4,1.5,0.8,1.9
					c0.3,0.4,0.8,0.6,1.4,0.4c0.4-0.1,0.7-0.3,1-0.6c0.3-0.3,0.5-0.8,0.7-1.6c0.2-0.7,0.4-1.6,0.6-2.8c0.2-1.1,0.4-2.4,0.5-4h0.8
					c-0.1,0.6-0.2,1.3-0.3,2s-0.2,1.4-0.3,2.1s-0.2,1.4-0.4,2.1c-0.2,0.6-0.4,1.3-0.6,1.8c-0.2,0.5-0.5,1-1,1.4
					c-0.4,0.4-0.8,0.6-1.4,0.7c-0.5,0.1-1,0.1-1.4,0c-0.4-0.1-0.7-0.3-1.1-0.5c-0.3-0.2-0.6-0.6-0.8-1.1
					C-15.7-153.2-16-153.7-16.1-154.2z"/>
				<path d="M-2.4-141.6c-0.8,0.1-1.6,0.1-2.2,0s-1.2-0.4-1.7-0.7c-0.4-0.3-0.8-0.8-1.2-1.4c-0.3-0.5-0.5-1.2-0.5-1.8
					c-0.1-0.6-0.1-1.2,0.1-1.7c0.1-0.5,0.3-1.1,0.6-1.5s0.6-0.7,1.1-1.1c0.4-0.3,1-0.4,1.4-0.5c0.5-0.1,1,0,1.5,0.2
					c0.5,0.2,1.1,0.5,1.5,1l-0.6,0.6c-0.4-0.3-0.7-0.6-1.2-0.7c-0.4-0.1-0.7-0.2-1.2-0.1c-0.4,0.1-0.7,0.2-1.1,0.4
					c-0.3,0.2-0.6,0.5-0.8,0.8c-0.2,0.3-0.4,0.7-0.5,1.2s-0.1,0.8-0.1,1.3c0.1,0.5,0.2,1.1,0.4,1.5c0.2,0.4,0.5,0.8,1,1.2
					c0.4,0.3,0.8,0.5,1.4,0.6c0.5,0.1,1.2,0.1,1.9,0c1-0.1,1.7-0.5,2.3-1.1c0.6-0.5,1.1-1.2,1.4-2c0.3-0.7,0.5-1.7,0.5-2.5
					c0.1-1,0-1.9-0.1-2.8L1-154l-0.2-1.6c-0.5,1-1.2,1.7-2,2.3c-0.8,0.6-1.8,1.1-3.1,1.3c-0.5,0.1-1.1,0.1-1.6,0s-1.1-0.3-1.6-0.6
					c-0.5-0.3-1-0.8-1.3-1.6c-0.3-0.7-0.6-1.6-0.7-2.6c-0.1-0.7-0.1-1.5,0-2.2s0.3-1.5,0.5-2.3c0.2-0.7,0.6-1.5,1.1-2.1
					c0.4-0.6,0.8-1.3,1.4-1.8s1.2-1,1.8-1.4c0.6-0.3,1.3-0.5,2-0.6c0.4-0.1,0.8,0,1.3,0c0.4,0.1,0.7,0.2,1.1,0.4
					c0.3,0.2,0.5,0.4,0.8,0.6c0.2,0.2,0.4,0.5,0.6,0.7c0.1-0.6,0.2-1.1,0.3-1.5c0.1-0.4,0.2-0.7,0.3-1l0.8,0.3c0,0.1-0.1,0.4-0.2,1
					c-0.1,0.5-0.2,1.3-0.2,2.1c-0.1,1-0.1,2-0.1,3.3s0.1,2.8,0.4,4.3c0,0.3,0.1,0.7,0.2,1.2c0.1,0.4,0.1,0.8,0.2,1.3
					c0.1,0.4,0.1,0.8,0.2,1.3c0.1,0.4,0.1,0.8,0.2,1.2c0.3,1.9,0.3,3.5,0,4.9c-0.2,1.3-0.6,2.3-1.2,3.2c-0.5,0.8-1.3,1.4-2,1.8
					C-0.8-142-1.5-141.7-2.4-141.6z M-2.8-153.5c0.4-0.1,1-0.2,1.3-0.4c0.4-0.2,0.7-0.4,1.1-0.7c0.3-0.3,0.5-0.6,0.8-1.1
					c0.2-0.4,0.4-0.8,0.5-1.3c-0.1-1.7-0.2-3.1-0.1-4.3c0-1.3,0.1-2.3,0.2-3.2c-0.1-0.3-0.3-0.6-0.5-1c-0.2-0.3-0.4-0.5-0.7-0.7
					c-0.3-0.2-0.6-0.3-1-0.4c-0.3-0.1-0.7-0.1-1.2-0.1c-0.5,0.1-1.2,0.3-1.8,0.7c-0.6,0.4-1.3,1.1-1.8,1.8c-0.5,0.7-1,1.7-1.3,2.9
					c-0.3,1.1-0.3,2.3-0.1,3.7c0.1,0.6,0.2,1.3,0.5,1.8c0.2,0.5,0.5,1,1,1.4c0.4,0.3,0.8,0.6,1.4,0.7
					C-4.1-153.4-3.5-153.4-2.8-153.5z"/>
				<path d="M14.3-158.2c-0.4,0.8-0.7,1.5-1.2,2c-0.4,0.5-0.7,1-1.2,1.3c-0.4,0.3-0.7,0.5-1.2,0.7c-0.4,0.1-0.8,0.2-1.3,0.3
					c-0.3,0-0.7,0-1.2-0.1c-0.4-0.1-0.8-0.3-1.3-0.6c-0.4-0.3-0.7-0.8-1.1-1.5c-0.3-0.6-0.5-1.6-0.5-2.6c-0.1-1.2,0-2.2,0.2-3.3
					c0.2-1.1,0.4-1.9,0.7-2.6c0.3-0.8,0.7-1.7,1.2-2.5l0.8,0.2c0,0,0,0.1-0.1,0.4c-0.1,0.3-0.1,0.5-0.2,1c-0.1,0.4-0.2,0.8-0.3,1.5
					c-0.1,0.5-0.2,1.2-0.3,1.7c-0.1,0.6-0.1,1.2-0.2,1.8c0,0.6,0,1.3,0,1.8c0.1,1.3,0.4,2.3,1,3.1s1.2,1.1,1.9,1.1
					c0.8,0,1.6-0.6,2.3-1.6c0.7-1,1.4-2.4,2-4.2c0.1-0.8,0.2-1.6,0.4-2.3c0.2-0.7,0.3-1.4,0.5-1.9c0.2-0.5,0.3-1.1,0.5-1.4
					c0.2-0.4,0.3-0.6,0.3-0.7l0.7,0.1c-0.2,1.1-0.3,2-0.4,2.9c-0.1,0.8-0.2,1.6-0.2,2.3c-0.1,0.6-0.1,1.3-0.1,1.8c0,0.5,0,1,0,1.4
					c0,0.8,0.2,1.5,0.5,2c0.3,0.5,0.7,0.7,1.3,0.6c0.4,0,0.7-0.2,1.1-0.5c0.3-0.3,0.6-0.7,1.1-1.5c0.3-0.6,0.6-1.5,1.1-2.5
					c0.3-1.1,0.7-2.3,1.2-3.9l0.5,0.3c-0.2,0.6-0.4,1.3-0.6,1.9c-0.2,0.7-0.4,1.4-0.6,2.1c-0.2,0.7-0.5,1.4-0.7,2
					c-0.2,0.6-0.5,1.2-1,1.7c-0.3,0.5-0.7,1-1.2,1.2c-0.4,0.3-0.8,0.5-1.4,0.5c-0.5,0-1,0-1.4-0.2c-0.4-0.2-0.7-0.4-1.1-0.7
					c-0.3-0.3-0.5-0.7-0.6-1.2C14.4-157.1,14.3-157.7,14.3-158.2z"/>
				<path d="M24-165.5c-0.2,0.4-0.3,0.8-0.4,1.2c-0.1,0.4-0.3,0.7-0.5,1.2s-0.4,0.7-0.6,1.2c-0.2,0.4-0.5,0.7-0.8,1.2l-0.2-0.2
					c0.4-0.8,0.7-1.8,1-2.8c0.3-1,0.6-2,0.8-3.1c-0.1-0.2-0.1-0.3-0.2-0.5c-0.1-0.1-0.1-0.3-0.1-0.4c0-0.1-0.1-0.2-0.1-0.4
					c0-0.1,0-0.3,0-0.4c0-0.2,0-0.4,0.1-0.7c0.1-0.3,0.2-0.5,0.3-0.7s0.2-0.4,0.4-0.6c0.1-0.2,0.3-0.2,0.5-0.2c0.2,0,0.3,0,0.4,0.1
					c0.1,0.1,0.2,0.2,0.3,0.3s0.1,0.3,0.1,0.4s0,0.3,0,0.4c0,0.2,0,0.4-0.1,0.7c0,0.3-0.1,0.5-0.2,0.8c-0.1,0.2-0.1,0.5-0.2,0.6
					c0,0.2-0.1,0.3-0.1,0.4c0.1,0.4,0.3,0.7,0.5,1.2c0.2,0.4,0.5,0.8,1,1.2c0.3,0.4,0.7,0.8,1.1,1.3c0.4,0.4,0.7,1,1.1,1.4
					c0.3,0.5,0.5,1.1,0.7,1.6c0.2,0.5,0.3,1.2,0.3,1.8c0,0.8-0.1,1.6-0.4,2.1c-0.3,0.5-0.6,1-1.1,1.3c0.6-0.2,1.3-0.6,1.8-1.4
					c0.5-0.6,1.1-1.4,1.6-2.2c0.5-0.8,1-1.7,1.4-2.6c0.4-1,0.7-1.8,1.1-2.5l0.8,0.2c-0.5,1.2-1.1,2.4-1.6,3.6s-1.2,2.2-1.8,3.1
					c-0.6,1-1.5,1.6-2.3,2.2c-0.8,0.5-1.8,0.8-3,0.8c-0.3,0-0.6,0-0.8-0.1c-0.3-0.1-0.6-0.1-0.8-0.2c-0.3-0.1-0.5-0.2-0.8-0.4
					c-0.3-0.2-0.4-0.4-0.6-0.6L23-156c0.1,0.2,0.3,0.4,0.6,0.5c0.2,0.2,0.6,0.2,1.1,0.3c0.4,0,0.7-0.1,1.1-0.2
					c0.3-0.2,0.6-0.4,0.8-0.7s0.4-0.6,0.5-1.1c0.1-0.4,0.2-0.8,0.2-1.3c0-1-0.1-1.8-0.4-2.4c-0.3-0.7-0.5-1.3-1-1.9
					c-0.3-0.5-0.7-1.1-1.2-1.5C24.5-164.6,24.2-165.1,24-165.5z"/>
				<path d="M29.6-171.4c0.2,0.1,0.4,0.3,0.7,0.5s0.6,0.3,1,0.5c0.4,0.2,0.8,0.3,1.3,0.5c0.5,0.2,1,0.3,1.6,0.4
					c0.3-1.3,0.6-2.3,1-3.4c0.3-1,0.7-1.8,1.2-2.5c0.4-0.7,0.8-1.3,1.3-1.6c0.4-0.3,0.8-0.5,1.2-0.5c0.4,0,0.7,0.2,0.8,0.5
					c0.2,0.3,0.2,0.8,0.2,1.4c0,0.4-0.1,0.8-0.2,1.4c-0.1,0.5-0.2,1-0.4,1.6c-0.2,0.5-0.4,1.2-0.6,1.7c-0.2,0.6-0.4,1.2-0.7,1.7
					c1.4,0,2.8-0.2,3.9-0.4c1.2-0.3,2.2-0.5,3.2-0.8l0.3,0.8c-1.2,0.3-2.4,0.7-3.6,1c-1.2,0.2-2.6,0.4-4.2,0.4
					c-0.4,0.8-0.8,1.7-1.3,2.5s-0.8,1.5-1.2,2.1c0,0.7,0,1.7,0,2.5c0,1,0.1,1.8,0.3,2.6c0.2,0.8,0.5,1.5,0.8,2
					c0.4,0.5,1,0.8,1.7,0.8c0.6,0,1.2-0.2,1.7-0.6c0.5-0.4,1.1-1.1,1.5-1.8c0.4-0.7,0.8-1.6,1.3-2.4c0.4-0.8,0.7-1.7,1.2-2.5
					l0.8,0.2c-0.2,0.5-0.4,1.1-0.7,1.7c-0.2,0.6-0.5,1.3-0.8,1.9s-0.6,1.3-1.1,1.8c-0.4,0.6-0.7,1.2-1.2,1.6c-0.4,0.4-1,0.8-1.4,1.1
					c-0.5,0.2-1.1,0.4-1.6,0.3c-0.6,0-1.2-0.2-1.7-0.5c-0.5-0.3-1-0.8-1.4-1.6c-0.3-0.7-0.6-1.7-0.7-3c-0.1-1.3-0.2-2.9-0.1-4.8
					c0.1-1.6,0.2-3,0.5-4.3c-1.2-0.2-2.2-0.5-3-0.8c-0.8-0.4-1.4-0.7-1.8-1.1L29.6-171.4z M35.2-165.5c0.3-0.5,0.5-1,0.7-1.5
					s0.4-1,0.7-1.5h-0.7h-0.4c-0.1,0.4-0.1,1-0.1,1.4C35.4-166.7,35.3-166.2,35.2-165.5L35.2-165.5z M38.8-176.4
					c-0.1,0-0.3,0.1-0.6,0.3c-0.3,0.2-0.5,0.6-0.8,1.2c-0.3,0.5-0.6,1.3-1,2.2c-0.3,1-0.6,2-0.8,3.4h0.4l1.1,0.1
					c0.3-0.6,0.5-1.4,0.7-2c0.2-0.6,0.4-1.3,0.6-1.8c0.2-0.5,0.3-1.1,0.4-1.5c0.1-0.4,0.1-0.8,0.2-1.2C39-176.2,39-176.4,38.8-176.4
					z"/>
				<path d="M42.9-149.5c0.4-0.4,0.7-1,1.2-1.5c0.3-0.5,0.5-1,0.6-1.4c-0.1,0-0.1,0-0.2,0c-0.1,0-0.1,0-0.2,0
					c-0.4,0-0.8-0.2-1.1-0.5c-0.2-0.3-0.3-0.6-0.2-1.1c0-0.4,0.2-0.7,0.5-1.1c0.3-0.2,0.7-0.3,1.2-0.3c0.5,0,1,0.3,1.2,0.6
					c0.2,0.4,0.3,0.8,0.3,1.4c0,0.4-0.1,0.7-0.3,1.2c-0.2,0.4-0.3,0.7-0.5,1.2s-0.5,0.7-0.7,1.1c-0.3,0.3-0.6,0.6-1,0.8L42.9-149.5z
					"/>
				<path d="M63.3-153.8c0.2-1.2,0.7-2.1,1.4-2.9c0.6-0.7,1.5-1.5,2.4-2.1c-0.7-1-1.5-1.9-2.3-2.9c-0.8-1-1.5-1.9-2.1-2.9
					c-0.6-1-1.1-2-1.4-3c-0.3-1.1-0.3-2-0.1-3.1c0.2-1.2,0.7-2.2,1.5-3.1c0.7-0.8,1.6-1.5,2.6-2c1.1-0.5,2.1-0.8,3.4-1
					c1.2-0.1,2.4-0.1,3.5,0.2c1,0.2,1.7,0.5,2.4,0.8c0.6,0.4,1.3,0.8,1.7,1.4c0.4,0.5,0.7,1.2,0.8,1.8c0.1,0.6,0.1,1.4,0,2
					c-0.1,0.7-0.4,1.4-0.7,1.8c-0.3,0.4-0.7,0.8-1.2,1.2c-0.4,0.3-0.8,0.5-1.4,0.6c-0.5,0.1-0.8,0.2-1.3,0.2c-0.4,0-0.8,0-1.4,0
					l0.1-0.8c0,0,0.1,0,0.4,0c0.2,0,0.5,0,0.8,0c0.3,0,0.6-0.1,1.1-0.2c0.4-0.1,0.7-0.3,1.2-0.5c0.3-0.2,0.6-0.5,1-1
					c0.3-0.4,0.5-0.8,0.6-1.5c0.2-0.8,0.1-1.6-0.1-2.2c-0.2-0.6-0.6-1.1-1.1-1.5c-0.4-0.4-1-0.7-1.6-1c-0.5-0.2-1.1-0.4-1.6-0.5
					c-1.2-0.2-2.2-0.3-3.2-0.1c-1,0.2-1.9,0.5-2.6,1c-0.7,0.4-1.4,1.1-1.9,1.7c-0.5,0.6-0.8,1.4-1,2.1c-0.2,1-0.1,1.9,0.1,2.8
					c0.3,1,0.7,1.8,1.4,2.8c0.6,1,1.3,1.8,2,2.8c0.7,1,1.5,1.8,2.2,2.8c1.1-0.5,2.1-1.2,3.2-1.7c1.1-0.5,2.1-1.1,3.1-1.7
					s1.8-1.3,2.4-2.1c0.6-0.7,1.2-1.7,1.4-2.8c0.1-0.4,0.1-1,0.1-1.4c0-0.5-0.1-1.1-0.2-1.6l0.7-0.2c0.3,1.3,0.3,2.4,0.1,3.4
					c-0.1,0.7-0.4,1.4-0.7,1.9c-0.3,0.6-0.8,1.2-1.4,1.6c-0.5,0.5-1.2,1-1.8,1.4c-0.6,0.4-1.4,0.8-2,1.3c-0.7,0.4-1.5,0.7-2.2,1.2
					c-0.7,0.4-1.5,0.7-2.2,1.2c0.4,0.6,1,1.2,1.3,1.8c0.4,0.6,0.7,1.2,1,1.8s0.4,1.2,0.5,1.8c0.1,0.6,0.1,1.2-0.1,1.8
					c-0.1,0.7-0.4,1.3-0.7,1.8c-0.3,0.5-0.8,1-1.3,1.3c-0.5,0.3-1.1,0.5-1.7,0.6c-0.6,0.1-1.3,0.1-1.9,0c-0.6-0.1-1.3-0.4-1.7-0.7
					c-0.5-0.3-1-0.7-1.2-1.2c-0.3-0.4-0.5-1-0.6-1.6C63.2-152.4,63.2-153,63.3-153.8z M70.5-151.3c0.1-0.5,0.1-1.1,0-1.7
					c-0.1-0.5-0.3-1.2-0.5-1.7c-0.3-0.5-0.6-1.2-1-1.7c-0.4-0.5-0.8-1.2-1.3-1.8c-1,0.6-1.7,1.3-2.3,2c-0.6,0.7-1.1,1.6-1.3,2.5
					c-0.2,1.1-0.1,2,0.4,2.9c0.5,0.8,1.4,1.3,2.4,1.5c0.5,0.1,1,0.1,1.4,0c0.4-0.1,0.7-0.2,1.1-0.4c0.3-0.2,0.5-0.4,0.7-0.7
					C70.3-150.6,70.5-150.9,70.5-151.3z"/>
				<path d="M77.7-164.8c0.2,0.2,0.3,0.4,0.6,0.6c0.2,0.2,0.5,0.5,0.8,0.7c0.3,0.2,0.7,0.5,1.2,0.7c0.4,0.3,1,0.5,1.5,0.7
					c0.5-1.2,1.2-2.2,1.7-3.1c0.5-0.8,1.2-1.6,1.7-2.2c0.5-0.6,1.1-1.1,1.6-1.3c0.5-0.2,1-0.3,1.3-0.2c0.4,0.1,0.6,0.4,0.7,0.7
					c0.1,0.4,0,0.8-0.1,1.4c-0.1,0.4-0.3,0.8-0.5,1.3c-0.2,0.4-0.5,1-0.7,1.4c-0.3,0.5-0.6,1-1,1.5s-0.7,1.1-1.1,1.5
					c1.4,0.3,2.6,0.4,3.9,0.4c1.3,0,2.3,0,3.3-0.1l0.2,0.8c-1.3,0.1-2.4,0.1-3.8,0.1c-1.3,0-2.6-0.2-4.1-0.5
					c-0.6,0.7-1.2,1.5-1.8,2.2c-0.6,0.6-1.2,1.3-1.6,1.8c-0.2,0.7-0.4,1.6-0.6,2.5c-0.2,1-0.3,1.8-0.3,2.6c0,0.8,0.1,1.6,0.4,2.2
					c0.2,0.6,0.7,1.1,1.4,1.3c0.5,0.2,1.2,0.1,1.8-0.2c0.6-0.3,1.3-0.8,1.8-1.5c0.6-0.6,1.3-1.3,1.8-2.1c0.6-0.7,1.2-1.5,1.7-2.2
					l0.7,0.4c-0.3,0.4-0.7,1-1.1,1.5c-0.4,0.5-0.8,1.1-1.3,1.6s-1,1.1-1.4,1.6c-0.5,0.5-1.1,1-1.6,1.3c-0.5,0.3-1.1,0.6-1.6,0.7
					s-1.1,0.1-1.7,0c-0.6-0.2-1.1-0.4-1.6-0.8c-0.4-0.4-0.7-1.1-1-1.8s-0.2-1.8-0.1-3.1c0.1-1.3,0.4-2.9,1.1-4.7
					c0.4-1.5,1-2.9,1.5-4c-1.2-0.5-2-1.1-2.8-1.6c-0.7-0.5-1.2-1.1-1.6-1.5L77.7-164.8z M81.8-157.8c0.3-0.4,0.7-0.8,1.1-1.3
					c0.3-0.4,0.6-0.8,1.1-1.3l-0.7-0.2l-0.4-0.1c-0.1,0.4-0.3,0.8-0.4,1.4C82.2-158.7,82-158.3,81.8-157.8L81.8-157.8z M87.9-167.6
					c-0.1,0-0.3,0-0.6,0.2c-0.3,0.2-0.6,0.5-1.2,1c-0.4,0.4-1,1.1-1.4,1.9c-0.5,0.8-1.1,1.8-1.6,3.1l0.4,0.1l1,0.3
					c0.4-0.6,0.8-1.2,1.3-1.8c0.3-0.5,0.7-1.2,1-1.6c0.3-0.5,0.5-1,0.7-1.4s0.3-0.7,0.4-1.1C88-167.3,88-167.5,87.9-167.6z"/>
				<path d="M100.8-163.7c-0.3,0.8-0.7,1.7-1.5,2.6c-0.6,1-1.5,1.9-2.4,3c-1,1.1-2,2.1-3.2,3.3c-1.2,1.2-2.4,2.3-3.7,3.6
					c-0.3,0.6-0.6,1.3-0.8,1.8c-0.3,0.6-0.5,1.3-0.8,1.9c0.3-0.4,0.7-0.8,1.2-1.3c0.4-0.5,1-1,1.5-1.5c0.5-0.5,1.2-1,1.7-1.4
					c0.6-0.4,1.2-0.8,1.8-1.2c0.6-0.3,1.2-0.5,1.8-0.6c0.6-0.1,1.2-0.1,1.7,0.1c0.3,0.1,0.6,0.3,0.8,0.5c0.2,0.2,0.4,0.5,0.5,0.8
					c0.1,0.3,0.2,0.6,0.2,1.1c0,0.3-0.1,0.7-0.2,1.1c-0.2,0.4-0.4,1-0.7,1.5c-0.3,0.5-0.6,1.1-1.1,1.5c-0.3,0.5-0.7,1.1-1.1,1.6
					c-0.3,0.5-0.6,1.1-0.7,1.5c-0.1,0.4-0.2,0.7-0.1,1.2c0.1,0.3,0.4,0.6,1,0.8c0.3,0.1,0.7,0.1,1.3-0.1c0.4-0.2,1-0.4,1.5-0.8
					c0.5-0.4,1.1-0.7,1.5-1.3c0.5-0.5,1-1,1.5-1.5c0.4-0.5,0.8-1,1.3-1.5c0.4-0.4,0.7-0.8,1-1.1l0.7,0.5c-0.4,0.5-1,1.1-1.4,1.6
					c-0.5,0.5-1,1.2-1.5,1.7s-1.1,1.1-1.6,1.6c-0.5,0.5-1.1,0.8-1.6,1.2c-0.5,0.3-1.1,0.5-1.6,0.6c-0.5,0.1-1.1,0.1-1.7-0.1
					c-0.5-0.2-0.8-0.4-1.2-0.6c-0.3-0.3-0.4-0.5-0.5-0.8c-0.1-0.3-0.1-0.6-0.1-1.1s0.1-0.7,0.3-1.2s0.4-1,0.7-1.5s0.7-1.1,1.1-1.6
					c0.4-0.5,0.7-1.1,1.2-1.7c0.3-0.5,0.6-1.1,0.8-1.6c0.1-0.3,0.1-0.5,0.1-0.8c-0.1-0.3-0.2-0.4-0.6-0.6c-0.5-0.2-1.2-0.2-1.8,0
					c-0.6,0.2-1.3,0.5-2,1c-0.6,0.4-1.4,1-2,1.6c-0.6,0.6-1.4,1.3-1.9,1.9c-0.6,0.6-1.2,1.3-1.7,1.9c-0.5,0.6-1,1.1-1.3,1.5
					l-0.7-0.4c0-0.1,0.1-0.1,0.1-0.3c0-0.1,0.1-0.3,0.2-0.4c0.1-0.2,0.2-0.4,0.2-0.7c0.1-0.3,0.2-0.6,0.4-1.1
					c0.4-1.3,1.1-2.9,1.9-4.9c0.8-2,1.9-4.3,3.2-7.1c0.6-1.4,1.2-2.4,1.8-3.4c0.5-1,1.2-1.7,1.6-2.2c0.5-0.5,1-1,1.4-1.3
					c0.4-0.3,0.8-0.5,1.2-0.6c0.3-0.1,0.6-0.1,1-0.1c0.2,0,0.4,0.1,0.6,0.1c0.6,0.2,1,0.6,1.2,1.3
					C101.1-165.2,101.1-164.6,100.8-163.7z M99.5-166.3c-0.3-0.1-0.7-0.1-1.1,0.2c-0.4,0.2-0.8,0.6-1.3,1.2c-0.4,0.5-1,1.2-1.4,2
					c-0.4,0.8-1,1.7-1.5,2.6c-0.5,1-1.1,2.1-1.6,3.3c-0.5,1.2-1.1,2.4-1.7,3.7c1.1-1,2.1-1.9,3.1-2.9c1-1,1.8-1.9,2.6-2.9
					c0.7-1,1.5-1.8,2-2.6c0.5-0.8,1-1.6,1.3-2.3c0.1-0.2,0.1-0.4,0.2-0.6c0-0.2,0.1-0.4,0-0.6c0-0.2-0.1-0.4-0.2-0.5
					C99.9-166,99.7-166.2,99.5-166.3z"/>
			</g>
		</g>
		<g>
			<path fill="#FFFFFF" d="M-20.3-147.3c-0.6,0.4-1.1,0.6-1.7,0.8c-0.9,0.3-1.7,0.5-2.6,0.5c-0.4,0-0.7,0-1-0.1
				c-0.9-0.3-2-0.6-3-1.5c-0.9-0.8-1.7-1.8-2.4-3c-0.6-1-1.3-2.4-1.9-4c0.2,0,0.3-0.1,0.5-0.2c0.3-0.1,0.7-0.2,1-0.3
				c0.9-0.2,1.5-0.5,2.2-0.8l0.4-0.2l-0.5-1.7l-0.5,0.3c-0.4,0.2-0.9,0.4-1.7,0.6c-0.6,0.2-1.2,0.4-1.9,0.6
				c-0.1-0.2-0.2-0.4-0.2-0.6c-0.1-0.2-0.1-0.5-0.2-0.7c-0.1-0.2-0.1-0.4-0.2-0.6c-0.3-0.8-0.5-1.7-0.8-2.6l-0.2-0.8
				c-0.3-0.9-0.6-1.9-0.9-3c-0.3-1.2-0.6-2.2-1-3.3l-0.3-1c-0.2-0.6-0.4-1.2-0.5-1.8c-0.3-0.8-0.5-1.5-0.6-2.1
				c-0.2-0.5-0.3-0.8-0.3-0.9l0-0.2c-0.1-0.4-0.4-0.9-0.8-1c-0.3-0.2-0.8-0.2-1.2,0c-0.4,0.1-0.7,0.4-0.8,0.5
				c-0.2,0.2-0.3,0.5-0.4,0.9l0,0.2c0,0.1,0,0.3-0.1,0.5c0,0.2-0.1,0.5-0.1,0.8c0,0.2-0.1,0.4-0.1,0.6c-0.1,0.5-0.2,1.2-0.3,1.9
				c-0.1,0.6-0.2,1.3-0.3,2.2l-0.2,1.3c-0.2,1.2-0.4,2.7-0.6,4.2l-0.2,1.5c-0.1,1-0.3,2.1-0.4,3.2c-0.2,1.5-0.4,3.1-0.6,4.7
				l-4.9,1.6l-0.3,2l4.5-1.5c-0.2,1.4-0.5,2.6-0.7,3.6c-0.3,1.5-0.7,2.6-1,3.5l-0.3,0.8c-0.3,0.7-0.5,1.4-0.8,1.9
				c-0.2,0.3-0.4,0.6-0.5,0.9c-0.2,0.4-0.4,0.7-0.5,1c-0.3,0.5-0.6,0.9-1,1.4l-0.3,0.3l1.1,1.3l0.4-0.3c0.2-0.1,0.7-0.5,1.1-0.9
				c0.3-0.3,0.8-0.7,1.1-1.2c0.2-0.3,0.7-1,1.1-1.8c0.3-0.6,0.6-1.4,1-2.5c0.4-1.2,0.7-2.3,0.9-3.5c0.2-1.3,0.4-2.8,0.6-4.5
				c0,0,0-0.1,0-0.2c0-0.1,0.1-0.2,0.1-0.3c0.1-0.1,0.1-0.3,0.1-0.4l7.4-2.5c0.4,1,0.7,1.9,1.1,2.8c0.4,1,0.9,1.9,1.5,2.9
				c0.5,0.8,1.1,1.6,1.9,2.3c0.7,0.7,1.5,1.3,2.4,1.6c1,0.4,2,0.6,2.9,0.6c1.1,0,2.2-0.2,3.5-0.6c0.6-0.1,1.2-0.4,1.7-0.7
				c0.4-0.2,0.9-0.5,1.3-0.8l0.8-0.6l-0.9-1.6L-20.3-147.3z M-40.2-171.5c0.1,0.6,0.2,1.3,0.4,2l0.2,0.9c0.2,0.9,0.4,1.8,0.6,2.8
				l0.1,0.7c0.2,0.9,0.4,1.8,0.6,2.9c0.3,1.2,0.6,2.4,1,3.8c0.3,1.1,0.5,2.1,0.9,3.2l-6.6,2.2c0.3-2.7,0.6-5.4,0.9-7.8
				c0.1-0.8,0.2-1.6,0.3-2.4c0.2-1.5,0.3-3,0.6-4.2l0.3-1.7c0.2-1.1,0.3-2,0.5-2.7c0-0.2,0.1-0.4,0.1-0.5
				C-40.4-172.2-40.3-171.9-40.2-171.5z"/>
			<path fill="#FFFFFF" d="M2.2-154.2c0-0.2-0.1-0.4-0.1-0.6c0-0.2-0.1-0.4-0.1-0.6c0-0.2-0.1-0.5-0.1-0.7c0-0.2-0.1-0.4-0.1-0.6
				c0-0.2-0.1-0.5-0.1-0.8c-0.1-0.4-0.2-0.7-0.2-1.1c-0.3-1.4-0.4-2.8-0.4-4.2c0-1.3,0-2.3,0.1-3.3c0-0.9,0.1-1.6,0.2-2
				c0.1-0.3,0.1-0.5,0.1-0.6c0.1-0.2,0.1-0.3,0.1-0.4v-0.3L0-170.1l-0.2,0.4c-0.1,0.3-0.3,0.6-0.4,1.1c0,0.2-0.1,0.3-0.1,0.5
				c0,0,0,0-0.1-0.1c-0.1-0.1-0.3-0.2-0.4-0.3c-0.1-0.1-0.3-0.2-0.5-0.3c-0.4-0.2-0.7-0.4-1.3-0.5c-0.1,0-0.3,0-0.4,0
				c-0.4,0-0.8,0-1,0c-0.8,0.1-1.4,0.3-2.2,0.7c-0.6,0.4-1.3,0.9-1.9,1.4c-0.5,0.5-1,1.2-1.4,1.9c-0.5,0.7-0.7,1.3-0.9,1.9h-0.4
				l0,0.5c-0.1,0.7-0.2,1.4-0.3,2.2c0,0,0,0.1,0,0.1c0,0,0,0.1,0,0.1c-0.1,0.5-0.1,1.1-0.2,1.6c-0.2,1.3-0.5,2.1-0.6,2.7
				c-0.2,0.5-0.3,1.1-0.7,1.4c-0.1,0.2-0.4,0.4-0.7,0.4c-0.3,0.1-0.6,0-0.8-0.3c-0.3-0.3-0.5-0.9-0.7-1.7c-0.1-0.2-0.1-0.4-0.1-0.6
				c0-0.2,0-0.5-0.1-0.7c-0.1-0.7-0.2-1.2-0.2-1.7c0-0.4,0-0.7,0-1.1c0-0.4-0.1-0.8-0.1-1.2v-3.4h-1.7v0.5c0,0.1,0,0.2-0.1,0.3
				c0,0.1-0.1,0.3-0.1,0.4c-0.1,0.4-0.2,1-0.3,1.5c-0.1,0.4-0.1,0.7-0.1,1.1c0,0.3,0,0.6-0.1,1l0,2.2c-0.3,1.8-0.7,3.2-1.2,4.3
				c-0.6,1.1-1.1,1.6-1.7,1.8c-0.6,0.1-1.1-0.1-1.6-0.6c-0.5-0.5-0.9-1.4-1.3-2.7c-0.1-0.4-0.2-0.7-0.2-1.1c0-0.2,0-0.4-0.1-0.6
				c-0.1-0.5-0.1-1.1-0.1-1.7l0-1.6c0.1-0.6,0.1-1.1,0.1-1.5c0.1-0.5,0.1-1,0.1-1.2v-0.9l-1.7-0.2l-0.1,0.4
				c-0.3,0.9-0.5,1.7-0.8,2.7c-0.2,0.8-0.3,1.8-0.3,2.9c0,1,0.1,2.2,0.3,3.3c0.2,1.1,0.6,2,1,2.7c0.4,0.6,1,1.2,1.4,1.4
				c0.6,0.5,1.3,0.5,1.7,0.5c0.5,0,0.9,0,1.3-0.1c0.5-0.1,0.8-0.2,1.3-0.5c0.5-0.2,0.9-0.5,1.2-1c0.3-0.4,0.7-0.9,1-1.6
				c0.1-0.3,0.3-0.6,0.4-0.8c0.3,0.5,0.6,1,1,1.2c0.3,0.2,0.7,0.5,1.2,0.6c0.5,0.1,1,0.1,1.6,0c0.6-0.1,1.2-0.4,1.6-0.9
				c0.5-0.5,0.8-1,1.1-1.5c0.1-0.3,0.2-0.6,0.3-0.9c0,0,0,0.1,0,0.1c0.4,0.8,0.9,1.5,1.5,1.8c0.6,0.3,1.2,0.6,1.8,0.7
				c0.6,0.1,1.2,0.1,1.8,0c1.3-0.2,2.3-0.7,3.3-1.4c0.5-0.4,1-0.8,1.4-1.3l0.5,3.5c0.1,0.7,0.2,1.7,0.1,2.7c0,0.7-0.2,1.6-0.5,2.4
				c-0.3,0.8-0.7,1.3-1.2,1.8c-0.7,0.6-1.3,0.9-2.1,1c-0.7,0.1-1.3,0.1-1.7,0c-0.4-0.1-0.8-0.3-1.2-0.5c-0.4-0.3-0.7-0.7-0.8-1
				c-0.2-0.4-0.3-0.8-0.4-1.3c0-0.4,0-0.8,0.1-1.2c0.1-0.3,0.2-0.7,0.5-1c0.2-0.3,0.4-0.5,0.7-0.7c0.2-0.2,0.5-0.3,0.9-0.4
				c0.3-0.1,0.4,0,0.9,0.1c0.2,0.1,0.4,0.2,0.7,0.4l0.6,0.5l1.3-1.3l-0.4-0.4c-0.4-0.4-1-0.8-1.6-1.1c-0.5-0.2-1-0.4-1.8-0.2l-0.1,0
				c-0.4,0.1-1,0.2-1.4,0.6c-0.5,0.4-0.8,0.7-1.2,1.2c-0.3,0.5-0.6,1-0.7,1.6c-0.2,0.6-0.3,1.2-0.1,1.9c0,0.7,0.2,1.4,0.6,2.1
				c0.4,0.6,0.9,1.2,1.4,1.6c0.6,0.3,1.1,0.7,1.8,0.8c0.3,0.1,0.7,0.1,1.1,0.1c0.4,0,0.8,0,1.3-0.1c0.5-0.1,1-0.2,1.5-0.4
				c0.3-0.1,0.7-0.2,1.1-0.3l0.1-0.1c0.7-0.4,1.6-1,2.2-2c0.6-1,1-2.1,1.2-3.3c0.3-1.4,0.3-3.1,0-5.1C2.3-153.8,2.3-154,2.2-154.2z
				 M-1.1-159l0,0.4c-0.1,0.3-0.3,0.7-0.4,1l-0.2,0.3c-0.2,0.3-0.4,0.5-0.6,0.7c-0.3,0.3-0.5,0.4-1,0.7c-0.2,0.1-0.6,0.2-1,0.3
				l-0.1,0c-0.5,0.1-1.1,0.1-1.3-0.1l-0.2-0.1c-0.4-0.1-0.8-0.3-1.1-0.6c-0.4-0.4-0.7-0.8-0.9-1.3c-0.3-0.4-0.4-1-0.5-1.6
				c-0.2-1.4-0.2-2.6,0.1-3.5c0.3-1.1,0.7-2,1.2-2.7c0.5-0.7,1.1-1.3,1.7-1.7c0.5-0.3,1-0.5,1.6-0.7c0.4,0,0.7,0,1,0.1
				c0.3,0.1,0.5,0.2,0.8,0.4c0.3,0.2,0.4,0.3,0.6,0.6c0.2,0.3,0.3,0.5,0.4,0.7c-0.1,0.7-0.2,1.8-0.2,3.1
				C-1.3-161.7-1.2-160.5-1.1-159z"/>
			<path fill="#FFFFFF" d="M41.6-160.4c0.3-0.6,0.6-1.3,0.8-1.9c0.3-0.6,0.5-1.1,0.8-1.7l0.2-0.5l-1.8-0.4l-0.2,0.4
				c-0.2,0.4-0.4,0.9-0.6,1.3c-0.2,0.4-0.4,0.8-0.6,1.3c-0.4,0.8-0.8,1.7-1.3,2.4c-0.4,0.7-0.9,1.3-1.4,1.7c-0.9,0.8-2,0.7-2.6-0.1
				c-0.3-0.5-0.6-1.1-0.8-1.9c-0.2-0.8-0.3-1.6-0.3-2.5v-2.4c0.1-0.2,0.3-0.5,0.4-0.7c0.2-0.4,0.5-0.8,0.7-1.3l1.1-2.2
				c1.6,0,3-0.3,4-0.4c0.9-0.2,1.8-0.4,2.7-0.7c0.3-0.1,0.7-0.2,1-0.3l0.5-0.1l-0.7-1.8l-0.5,0.2c-0.6,0.2-1.2,0.3-1.9,0.5
				c-0.4,0.1-0.8,0.2-1.2,0.3c-0.9,0.2-1.9,0.3-3,0.4c0.1-0.3,0.2-0.6,0.4-1c0.1-0.3,0.2-0.6,0.3-0.9c0.1-0.3,0.2-0.6,0.3-0.9
				c0.2-0.6,0.3-1.1,0.4-1.7l0.1-0.3c0.1-0.4,0.2-0.8,0.2-1.2c0-0.6,0-1.2-0.3-1.6c-0.2-0.5-0.7-0.8-1.3-0.8c-0.5,0-1.1,0.3-1.5,0.6
				c-0.5,0.4-0.9,0.9-1.4,1.7c-0.5,0.9-0.9,1.8-1.2,2.7l-0.1,0.3c-0.2,0.8-0.5,1.7-0.7,2.6c-0.4-0.1-0.7-0.2-1-0.3
				c-0.2-0.1-0.5-0.2-0.7-0.3c-0.2-0.1-0.4-0.1-0.5-0.2c-0.2-0.1-0.4-0.2-0.5-0.3c-0.1-0.1-0.3-0.1-0.4-0.2
				c-0.1-0.1-0.2-0.2-0.3-0.3c-0.2-0.1-0.3-0.2-0.4-0.3l-0.5-0.3l-0.6,1.9l0.3,0.2c0.5,0.3,1.1,0.7,1.9,1.1c0.7,0.3,1.6,0.6,2.6,0.8
				c-0.2,1.1-0.3,2.2-0.4,3.5l-0.1,0l-0.2,0.4c-0.1,0.3-0.2,0.6-0.4,0.9c-0.2,0.5-0.4,1.1-0.7,1.7c-0.5,1.1-0.9,1.9-1.3,2.6
				c-0.3,0.5-0.7,1.1-1,1.5c0-0.3,0.1-0.7,0.1-1c0-0.7-0.1-1.4-0.4-2l0-0.1c-0.2-0.5-0.4-1-0.7-1.6c-0.1-0.1-0.2-0.3-0.3-0.4
				c-0.2-0.3-0.5-0.7-0.8-1c-0.2-0.2-0.4-0.5-0.6-0.7c-0.2-0.2-0.3-0.4-0.5-0.6l-0.1-0.1c-0.4-0.3-0.7-0.7-0.8-1
				c-0.1-0.1-0.1-0.2-0.2-0.4c-0.1-0.2-0.2-0.4-0.3-0.6c0-0.1,0-0.2,0.1-0.3c0.1-0.1,0.1-0.2,0.1-0.4c0-0.1,0-0.2,0.1-0.3l0.1-0.2
				c0.1-0.2,0.1-0.4,0.2-0.7c0.1-0.4,0.1-0.6,0.1-0.8v-0.4c0-0.2,0-0.5-0.3-0.8l-0.3-0.3c-0.3-0.3-0.5-0.3-0.8-0.3
				c-0.2,0-0.7,0-0.9,0.4c-0.2,0.2-0.3,0.5-0.5,0.7c-0.1,0.2-0.2,0.5-0.3,0.8c-0.1,0.4-0.1,0.7-0.1,0.9v0.4c0,0.2,0.1,0.4,0.1,0.4
				c0,0.2,0,0.5,0.2,0.7c0,0.1,0,0.1,0.1,0.2c0,0,0,0.1,0,0.2c-0.2,0.8-0.4,1.8-0.8,2.9c-0.2,1-0.5,1.9-0.9,2.6l-0.2,0.3l0.2,0.2
				c0,0.1-0.1,0.2-0.1,0.2l-0.3,0.8c-0.3,0.7-0.5,1.3-0.7,1.7c-0.4,0.6-0.7,1.1-1,1.4c-0.3,0.3-0.6,0.4-1,0.4c-0.1,0-0.3,0-0.6-0.4
				c-0.3-0.5-0.5-1.1-0.5-1.8v-1.4c0-0.5,0-1.1,0.1-1.8c0-0.6,0.1-1.3,0.2-2.1l0.1-0.4c0.1-0.8,0.2-1.7,0.4-2.6l0.1-0.5l-1.3-0.2
				l-0.6-0.1v0.6c0,0.1-0.2,0.4-0.2,0.5c-0.2,0.3-0.3,0.6-0.4,0.9c-0.1,0.2-0.1,0.4-0.2,0.6c-0.1,0.4-0.2,0.8-0.3,1.2
				c-0.1,0.2-0.1,0.5-0.2,0.8c-0.2,0.8-0.3,1.5-0.4,2.3c-0.7,2-1.3,3.3-1.9,4.1c-0.7,1-1.4,1.4-1.9,1.4c-0.6,0-1.1-0.3-1.5-0.9
				c-0.5-0.6-0.8-1.6-0.9-2.8l0-1.7c0.1-0.3,0.1-0.6,0.1-1c0-0.3,0-0.5,0.1-0.8c0.1-0.3,0.1-0.6,0.2-0.9c0.1-0.3,0.1-0.6,0.2-0.9
				c0.1-0.6,0.2-1,0.3-1.4c0-0.2,0.1-0.3,0.1-0.5c0-0.1,0-0.3,0.1-0.4c0.1-0.3,0.1-0.5,0.1-0.6v-0.4l-1.6-0.4l-0.2,0.4
				c-0.4,0.8-0.9,1.7-1.2,2.6c-0.4,0.8-0.6,1.8-0.8,2.7c-0.3,1.3-0.3,2.3-0.2,3.4c0,1.1,0.2,2.1,0.6,2.9c0.3,0.6,0.7,1.3,1.2,1.7
				c0.5,0.4,1,0.6,1.5,0.7c0.5,0.1,0.9,0.1,1.3,0.1h0.1l1.4-0.4c0.5-0.2,0.8-0.5,1.2-0.8c0.4-0.3,0.8-0.7,1.2-1.2l0.1-0.1
				c0.1-0.2,0.3-0.4,0.4-0.6c0.1,0.4,0.3,0.9,0.8,1.4c0.3,0.3,0.7,0.6,1.2,0.8c0.5,0.3,1.1,0.3,1.6,0.3c0.7,0,1.3-0.3,1.6-0.6
				c0.5-0.3,1-0.8,1.3-1.3c0.5-0.6,0.8-1.2,1-1.9c0.1-0.3,0.2-0.5,0.3-0.8c0.2-0.4,0.3-0.8,0.5-1.3c0.1-0.4,0.2-0.8,0.4-1.2
				c0.1-0.3,0.2-0.6,0.3-0.9c0.1-0.2,0.2-0.3,0.3-0.5c0.1-0.2,0.2-0.4,0.3-0.6l0.1-0.3c0.2-0.3,0.3-0.6,0.4-1l0.1-0.2
				c0.1,0.2,0.2,0.3,0.4,0.5c0.4,0.4,0.8,0.9,1.1,1.4c0.3,0.5,0.5,1,0.8,1.6l0.1,0.3c0.2,0.5,0.4,1.2,0.4,2.2c0,0.4-0.1,0.7-0.2,1.1
				c-0.1,0.3-0.3,0.6-0.5,0.9c-0.1,0.2-0.4,0.4-0.6,0.6c-0.3,0.1-0.5,0.2-0.7,0.2c-0.1,0-0.3-0.1-0.4-0.1c-0.1,0-0.4-0.1-0.4-0.1
				l-0.2-0.1c-0.2-0.1-0.3-0.2-0.3-0.3l-0.2-0.5l-1.8,1l0.5,0.5c0.1,0.1,0.1,0.1,0.2,0.2c0.1,0.2,0.3,0.3,0.6,0.5
				c0.3,0.2,0.6,0.3,0.9,0.5c0.2,0.1,0.4,0.1,0.6,0.2c0.1,0,0.2,0,0.3,0.1c0.3,0.2,0.7,0.2,1.1,0.2c1.2,0,2.2-0.3,3.3-0.9
				c0.8-0.6,1.8-1.3,2.4-2.3c0.7-0.9,1.3-2,1.9-3.2c0,0,0-0.1,0-0.1c0,0.3,0,0.6,0,0.8c0.1,1.1,0.3,2.1,0.8,3.2
				c0.5,0.9,1,1.4,1.5,1.8c0.7,0.4,1.3,0.6,1.8,0.6c0,0,0,0,0,0c0.1,0,0.3,0,0.4,0c0.6,0,1.1-0.2,1.5-0.4c0.6-0.3,1.3-0.9,1.5-1.2
				c0.4-0.4,0.7-0.8,1-1.3l0.2-0.3c0.4-0.5,0.7-1.2,1.1-1.8L41.6-160.4z M34.6-171.3c0.2-1.1,0.5-2,0.7-2.7c0.3-0.9,0.6-1.6,0.9-2.1
				l0.1-0.2c0.2-0.4,0.4-0.7,0.6-0.8c0,0,0,0,0.1,0c0,0.2-0.1,0.3-0.1,0.5c0,0.2,0,0.4-0.1,0.6l-0.1,0.3c-0.1,0.3-0.2,0.7-0.3,1.1
				c-0.2,0.4-0.4,1-0.5,1.5l-0.2,0.7c-0.1,0.4-0.3,0.9-0.5,1.3L34.6-171.3z"/>
			<path fill="#FFFFFF" d="M43.3-157.3c-0.5,0-1.1,0.1-1.5,0.5c-0.3,0.3-0.7,0.7-0.7,1.3c-0.2,0.7,0.1,1.2,0.3,1.5
				c0.3,0.4,0.7,0.6,1.2,0.7c-0.1,0.2-0.2,0.4-0.3,0.6c-0.2,0.2-0.3,0.4-0.5,0.6c-0.2,0.3-0.4,0.6-0.7,0.8l-0.5,0.5l1.6,0.9l0.3-0.2
				c0.4-0.2,0.7-0.6,1-0.9l0.1-0.1c0.1-0.1,0.2-0.2,0.2-0.3c0.2-0.2,0.4-0.5,0.6-0.8c0.1-0.2,0.2-0.4,0.3-0.6
				c0.1-0.2,0.2-0.4,0.3-0.6c0.2-0.5,0.4-0.9,0.4-1.4c0-0.6-0.1-1.1-0.4-1.7C44.6-156.9,44-157.3,43.3-157.3z"/>
			<path fill="#FFFFFF" d="M103-150.2l-0.3,0.3c-0.1,0.1-0.2,0.2-0.4,0.4c-0.2,0.2-0.4,0.4-0.6,0.7c-0.2,0.3-0.4,0.5-0.6,0.8
				c-0.2,0.2-0.4,0.5-0.6,0.7l-0.6,0.6c-0.3,0.3-0.5,0.5-0.9,0.9c-0.3,0.3-0.6,0.6-1,0.9c-0.1,0.1-0.3,0.2-0.5,0.3
				c-0.4,0.3-0.8,0.5-1.1,0.7l-0.2,0.1c-0.4,0.1-0.7,0.2-0.9,0.1c-0.3-0.1-0.6-0.3-0.6-0.5c-0.1-0.2,0-0.4,0.1-0.8l0-0.1
				c0.1-0.3,0.4-0.8,0.7-1.3c0.2-0.3,0.3-0.5,0.5-0.8c0.2-0.3,0.4-0.5,0.5-0.7c0.5-0.5,0.8-1.1,1.1-1.6c0.2-0.4,0.4-0.7,0.6-1.1
				c0.1-0.1,0.1-0.3,0.2-0.5c0.1-0.2,0.2-0.7,0.2-1.2c0-0.5-0.1-0.9-0.2-1.2c-0.1-0.4-0.4-0.8-0.6-1c-0.3-0.3-0.7-0.5-1-0.6
				c-0.6-0.2-1.2-0.3-2-0.1c-0.7,0.1-1.3,0.4-2,0.7c-0.5,0.2-0.9,0.5-1.3,0.8c-0.2,0.1-0.4,0.3-0.6,0.4c-0.1,0.1-0.3,0.2-0.5,0.4
				c-0.4,0.3-0.9,0.6-1.3,1.1c-0.2,0.2-0.4,0.3-0.5,0.5c0,0-0.1,0.1-0.1,0.1c0.1-0.2,0.2-0.4,0.3-0.7l0.1-0.2
				c0.6-0.6,1.2-1.2,1.8-1.8c0.6-0.6,1.2-1.2,1.8-1.8l0.3-0.3c1.1-1.1,2-2,2.9-3c1-1.1,1.8-2.1,2.5-3c0.7-0.9,1.2-1.7,1.6-2.8
				c0.4-1,0.3-1.8,0.2-2.4c-0.2-0.5-0.5-1.3-1.5-1.6l-0.2,0c0,0-0.1,0-0.2,0c-0.4-0.1-1-0.1-1.6,0.1c-0.2,0.1-0.7,0.3-1.3,0.7
				c-0.5,0.3-0.9,0.8-1.5,1.4l-0.2,0.2c-0.4,0.5-1,1.2-1.4,2c-0.4,0.6-0.8,1.3-1.2,2.1c-0.9,0.1-1.9,0.1-3.2,0.1
				c-1.1,0-2.1-0.1-3-0.3c0.2-0.3,0.4-0.6,0.6-0.9c0.2-0.3,0.3-0.5,0.5-0.8c0.2-0.2,0.3-0.5,0.5-0.7c0.1-0.2,0.2-0.5,0.4-0.7
				c0.1-0.2,0.2-0.4,0.4-0.6c0.2-0.4,0.4-0.9,0.6-1.5c0.1-0.5,0.2-1,0.1-1.5c-0.2-0.6-0.6-0.9-1.1-1.1c-0.4-0.1-0.9-0.1-1.6,0.2
				c-0.6,0.2-1.2,0.7-1.8,1.4l-0.2,0.2c-0.5,0.6-1.1,1.3-1.5,2c-0.4,0.6-1,1.6-1.5,2.7c-0.4-0.2-0.7-0.3-1-0.6
				c-0.3-0.1-0.6-0.3-0.8-0.5l-0.3-0.2c-0.2-0.2-0.5-0.4-0.7-0.6l-0.1-0.1c0.4-0.4,0.9-0.8,1.1-1.2c0.3-0.5,0.7-1.2,0.8-2.1
				c0.2-1.1,0.2-2.4-0.1-3.6l-0.1-0.5l-1.7,0.5l0.1,0.5c0.1,0.5,0.2,1,0.2,1.5c0,0.4,0,0.9-0.1,1.3c-0.2,0.9-0.6,1.8-1.3,2.6
				c-0.6,0.7-1.3,1.3-2.3,2c-1,0.6-2.1,1.2-3,1.7c-0.5,0.3-1.1,0.6-1.6,0.9c-0.4,0.2-0.8,0.4-1.2,0.6c-0.3-0.4-0.6-0.7-0.9-1.1
				c-0.4-0.4-0.7-0.9-1.1-1.4c-0.8-1-1.4-1.9-2-2.7c-0.6-0.9-1-1.7-1.3-2.7c-0.2-0.7-0.3-1.5-0.2-2.6c0.1-0.7,0.4-1.3,0.8-1.9
				c0.6-0.7,1.2-1.2,1.8-1.6c0.7-0.4,1.5-0.7,2.5-0.9c0.8-0.2,1.6-0.1,3,0.1c0.5,0.1,0.9,0.3,1.5,0.5c0.6,0.2,1,0.5,1.4,0.8
				c0.4,0.4,0.8,0.8,0.9,1.3c0.2,0.7,0.3,1.3,0.1,2c-0.1,0.6-0.3,0.9-0.5,1.3c-0.3,0.4-0.6,0.6-0.8,0.8l-0.3,0.2
				c-0.3,0.1-0.5,0.3-0.8,0.3l-0.2,0.1c-0.3,0.1-0.5,0.1-0.7,0.1h-1.7l-0.2,1.8h1.9c0.4,0,0.7-0.1,1-0.1l0.4-0.1
				c0.6-0.1,1.1-0.3,1.6-0.7c0.5-0.3,0.9-0.8,1.3-1.3c0.2-0.3,0.7-1,0.8-2c0.1-0.7,0.1-1.5,0-2.2c-0.1-0.7-0.5-1.4-0.9-2
				c-0.5-0.6-1.1-1-1.8-1.5l-0.1-0.1c-0.7-0.3-1.5-0.6-2.4-0.8c-1-0.3-2.4-0.3-3.7-0.2c-1.3,0.1-2.4,0.4-3.6,1
				c-1.1,0.6-2,1.2-2.8,2.1c-0.8,0.9-1.4,2.1-1.6,3.3c-0.2,1.2-0.2,2.2,0.1,3.3c0.3,0.8,0.7,2,1.4,3.1c0.6,0.9,1.3,1.9,2.2,2.9
				c0.7,0.8,1.4,1.6,2,2.4c-0.8,0.6-1.5,1.2-2.1,1.9c-0.8,0.9-1.3,2-1.5,3.1c-0.1,0.8-0.1,1.5-0.1,1.9c0.1,0.7,0.4,1.3,0.7,1.7
				c0.2,0.5,0.7,1,1.3,1.3c0.6,0.4,1.3,0.7,1.9,0.8c0.3,0.1,0.7,0.1,1,0.1c0.3,0,0.7,0,1-0.1c0.7-0.1,1.3-0.3,1.9-0.7
				c0.5-0.4,1.1-0.8,1.4-1.5c0.3-0.5,0.7-1.1,0.7-1.8c0.2-0.7,0.3-1.3,0.1-2c-0.1-0.6-0.3-1.1-0.4-1.6l-0.1-0.3
				c-0.2-0.7-0.6-1.3-1-1.9c-0.2-0.4-0.5-0.8-0.8-1.2c0-0.1-0.1-0.1-0.2-0.2c0.2-0.1,0.4-0.2,0.6-0.3c0.4-0.2,0.8-0.4,1.2-0.6
				c0.4-0.2,0.7-0.4,1.1-0.6c0.4-0.2,0.8-0.4,1.2-0.6c0.3-0.2,0.6-0.4,1-0.6c0.4-0.2,0.7-0.4,1.1-0.7c0.3-0.2,0.5-0.4,0.8-0.6
				c0.3,0.4,0.7,0.8,1.3,1.2c0.8,0.6,1.5,1,2.4,1.4c-0.5,1.2-1,2.4-1.3,3.6c-0.6,1.7-1,3.3-1.1,4.8c-0.1,1.5-0.1,2.5,0.1,3.3
				c0.2,0.9,0.6,1.5,1.1,2.1c0.5,0.4,1,0.7,1.8,1c0.3,0.1,0.7,0.1,1,0.1c0.3,0,0.6,0,0.9-0.1c0.6-0.1,1.2-0.5,1.7-0.8
				c0.6-0.3,1.1-0.8,1.7-1.4c0,0,0,0,0,0c0,0.1-0.1,0.2-0.1,0.3c-0.2,0.4-0.3,0.7-0.4,1.1l0,0.2c0,0.2-0.1,0.3-0.1,0.5
				c-0.1,0.2-0.3,0.4-0.3,0.6l-0.1,0.2v0.5l1.4,0.8l0.3-0.3c0.2-0.2,0.4-0.4,0.6-0.7c0.2-0.2,0.4-0.5,0.7-0.8l0.1-0.1
				c0.5-0.6,1-1.2,1.6-1.8c0.3-0.4,0.8-0.8,1.2-1.3c0.2-0.2,0.4-0.4,0.6-0.6c0.7-0.7,1.4-1.2,1.9-1.5c0.8-0.5,1.4-0.7,1.9-0.9
				c0.5-0.2,1.1-0.2,1.4,0c0.3,0.1,0.3,0.2,0.4,0.3c0,0.2,0,0.4-0.1,0.6c-0.2,0.5-0.4,0.9-0.7,1.4l-0.4,0.6
				c-0.3,0.4-0.5,0.8-0.9,1.2c-0.1,0.2-0.3,0.5-0.5,0.7c-0.2,0.3-0.4,0.6-0.6,0.8c-0.2,0.4-0.4,0.7-0.6,1.1
				c-0.1,0.2-0.1,0.3-0.2,0.5c-0.2,0.5-0.4,0.9-0.4,1.4c0,0.4,0,0.8,0.1,1.2c0.1,0.4,0.3,0.7,0.7,1.1c0.3,0.2,0.7,0.5,1.3,0.7
				c0.4,0.1,0.8,0.2,1.2,0.2c0.3,0,0.5,0,0.8-0.1c0.6-0.1,1.2-0.3,1.8-0.7c0.5-0.3,1.1-0.7,1.7-1.2c0.4-0.4,0.8-0.8,1.2-1.2l0.4-0.4
				c0.3-0.3,0.5-0.6,0.8-0.9c0.2-0.3,0.5-0.6,0.7-0.9c0.2-0.3,0.4-0.5,0.7-0.8c0.2-0.3,0.5-0.6,0.7-0.8l0.3-0.4L103-150.2z
				 M83.8-164.6c-0.2,0.3-0.4,0.6-0.6,0.9c-0.1,0.2-0.3,0.4-0.4,0.6l-0.5-0.2c0.4-0.9,0.8-1.6,1.3-2.5c0.4-0.8,0.9-1.4,1.2-1.7
				c0.2-0.2,0.4-0.3,0.5-0.5c0.1-0.1,0.3-0.2,0.4-0.3c-0.1,0.2-0.2,0.5-0.3,0.8c-0.2,0.4-0.4,0.8-0.7,1.4c-0.1,0.3-0.4,0.7-0.6,1.1
				L83.8-164.6z M80-150.5c-0.3-0.5-0.4-1.1-0.4-2c0-0.8,0.1-1.6,0.3-2.5c0.2-0.9,0.4-1.7,0.6-2.4c0.5-0.6,0.9-1.1,1.5-1.7
				c0.3-0.4,0.6-0.8,0.9-1.1c0.2-0.3,0.5-0.6,0.7-0.9c1.6,0.3,2.8,0.5,3.9,0.5c0.9,0,1.7,0,2.6-0.1c-0.9,2-1.6,3.6-2.3,5.1l0,0
				l-0.4,0.5c-0.5,0.7-1,1.3-1.6,2.1c-0.5,0.8-1.1,1.3-1.7,1.9l-0.1,0.1c-0.5,0.6-1.1,1.1-1.6,1.4c-0.6,0.3-1,0.3-1.4,0.2
				C80.7-149.6,80.2-149.8,80-150.5z M98.3-166.5c0,0,0,0.1,0,0.1c0,0.1,0,0.1,0,0.2c0,0.1-0.1,0.2-0.1,0.3c0,0.1,0,0.2-0.1,0.2
				c-0.3,0.6-0.6,1.3-1.2,2.3c-0.4,0.6-0.9,1.2-1.4,1.9c-0.2,0.2-0.4,0.5-0.6,0.7c-0.8,0.9-1.7,1.9-2.6,2.8
				c-0.4,0.4-0.8,0.8-1.2,1.2c0-0.1,0.1-0.2,0.1-0.3c0.2-0.4,0.3-0.8,0.5-1.2c0.5-1.1,1.1-2.3,1.6-3.3c0.2-0.4,0.4-0.7,0.6-1.1
				c0.3-0.5,0.6-1.1,0.9-1.6c0.4-0.8,0.9-1.3,1.3-1.9c0.4-0.5,0.8-0.9,1.1-1l0.1-0.1c0.1-0.1,0.2-0.1,0.3-0.1c0.1,0,0.1,0,0.2,0
				c0.2,0.1,0.2,0.1,0.3,0.2l0.1,0.2c0,0,0.1,0.1,0.1,0.2l0,0.1L98.3-166.5z M68.5-152.8c0,0.3-0.1,0.5-0.2,0.6
				c-0.2,0.3-0.4,0.4-0.6,0.6c-0.2,0.2-0.5,0.3-0.9,0.4c-0.4,0.1-0.7,0.1-1.2,0c-1-0.2-1.7-0.6-2.1-1.3c-0.4-0.7-0.5-1.5-0.4-2.5
				c0.2-0.9,0.6-1.7,1.2-2.3c0.5-0.6,1.1-1.1,1.8-1.6c0.3,0.5,0.7,1,1,1.4c0.1,0.3,0.3,0.5,0.5,0.8c0.2,0.3,0.3,0.6,0.5,0.8
				c0.2,0.6,0.4,1.2,0.5,1.6C68.6-153.8,68.6-153.4,68.5-152.8z"/>
		</g>
	</g>
	<g>
		<g opacity="0.25">
			<g>
				<path d="M-10.7,216.3c-1.1-0.2-1.9-0.5-2.5-1c-0.6-0.5-0.8-1.1-0.7-1.7c0.1-0.6,0.5-1.2,1.2-1.4c0.6-0.2,1.6-0.3,2.6-0.2
					c1,0.1,1.8,0.4,2.6,1c0.8,0.5,1.7,1,2.5,1.5c1.3-0.6,2.4-1.4,3.6-2.4c1.2-1.1,2.2-2.2,3.2-3.5c1-1.3,1.7-2.6,2.3-4
					c0.6-1.5,1.1-2.9,1.3-4.2c0.2-1.1,0.2-2,0.1-3c-0.1-0.8-0.3-1.6-0.5-2.3c-0.3-0.6-0.6-1.3-1.2-1.7s-1-0.8-1.5-1.2
					c-0.5-0.3-1.1-0.5-1.7-0.7c-0.5-0.2-1.2-0.3-1.7-0.4c-1.1-0.2-2.1-0.1-3.2,0.1c-1.1,0.2-1.9,0.6-2.8,1.2c-0.8,0.5-1.5,1.3-2,2.1
					c-0.5,0.8-0.8,1.8-1.1,2.8c-0.1,0.6-0.1,1.3,0,1.9c0.1,0.6,0.2,1.4,0.5,2c-0.1,0-0.3,0.1-0.4,0.2c-0.2,0.1-0.3,0.2-0.5,0.2
					c-0.2,0.1-0.4,0.2-0.6,0.2c-0.2-0.6-0.3-1.3-0.4-2c-0.1-0.6,0-1.4,0.1-2c0.2-1.2,0.6-2.3,1.3-3.4c0.6-1.1,1.4-1.9,2.3-2.5
					c1-0.7,2-1.2,3.2-1.5c1.2-0.3,2.4-0.3,3.8-0.2c0.7,0.1,1.5,0.3,2.2,0.5s1.5,0.5,2.1,1s1.3,0.8,1.9,1.5c0.6,0.5,1.1,1.3,1.5,2
					c0.4,0.7,0.6,1.6,0.8,2.5c0.1,1,0.1,2-0.1,3.2c-0.2,1.5-0.7,2.9-1.4,4.3c-0.7,1.4-1.6,2.8-2.6,4s-2.2,2.4-3.5,3.4
					s-2.6,1.8-4,2.4c0.8,0.5,1.7,1.1,2.4,1.5c0.8,0.4,1.7,0.7,2.6,0.8c0.6,0.1,1.3,0.1,1.9,0l0.1,0.8c-0.3,0.1-0.7,0.1-1.1,0.1
					s-0.7,0-1.1-0.1c-0.5-0.1-1.1-0.2-1.6-0.4c-0.5-0.2-1-0.4-1.5-0.6c-0.5-0.2-1-0.5-1.5-0.8c-0.5-0.3-1-0.6-1.4-1
					c-1,0.4-1.9,0.6-3,0.7C-8.8,216.4-9.7,216.4-10.7,216.3z M-10.6,215.4c0.7,0.1,1.6,0.1,2.3,0c0.7-0.1,1.6-0.3,2.3-0.6
					c-0.7-0.5-1.5-1-2.2-1.3c-0.7-0.4-1.5-0.6-2.2-0.7c-0.5-0.1-1,0-1.4,0.1c-0.4,0.2-0.6,0.4-0.7,0.8c0,0.3,0.1,0.6,0.3,1
					C-11.7,215.1-11.2,215.3-10.6,215.4z"/>
				<path d="M21.9,192c0.6,0,1.1,0.1,1.4,0.2c0.3,0.1,0.5,0.2,0.5,0.2l-0.3,0.7c0,0-0.2-0.1-0.5-0.2s-0.6-0.2-1.2-0.2
					c-1.5,0-2.8,0.3-3.9,1c-1.2,0.6-2.1,1.7-3,2.9c-0.8,1.2-1.5,2.6-1.9,4.3c-0.4,1.7-0.7,3.5-0.7,5.4c-0.1,1.9,0.1,3.7,0.5,5.2
					c0.4,1.6,1,2.9,1.7,3.9c0.7,1.1,1.6,1.9,2.6,2.5c1.1,0.6,2.2,1,3.6,1c1.2,0,2.3-0.3,3.4-1c1.1-0.6,2-1.6,2.9-2.9s1.5-2.6,2-4.4
					c0.5-1.7,0.7-3.6,0.8-5.6c0-1.8-0.1-3.3-0.4-4.7c-0.3-1.3-0.7-2.3-1.3-3.2c-0.5-0.8-1.2-1.5-1.9-1.9s-1.4-0.6-2.1-0.6
					c-1,0-1.9,0.3-2.6,1s-1.3,1.6-1.7,3l-0.8-0.2c0.4-1.5,1.2-2.5,2-3.3c0.8-0.7,1.9-1.1,3.1-1.1c0.7,0,1.6,0.2,2.3,0.6
					c0.8,0.4,1.5,1.1,2.1,2c0.6,1,1.2,2.1,1.5,3.5c0.4,1.4,0.5,3.1,0.5,5c0,1.2-0.1,2.4-0.3,3.6c-0.2,1.2-0.5,2.3-1,3.5
					c-0.4,1.1-0.8,2.1-1.5,3.1c-0.6,1-1.3,1.8-2.1,2.5c-0.8,0.7-1.7,1.3-2.8,1.6c-1.1,0.4-2.1,0.5-3.4,0.5c-1.3,0-2.5-0.3-3.7-1
					c-1.2-0.5-2.3-1.4-3.2-2.4c-1-1.1-1.7-2.4-2.2-4c-0.5-1.6-0.7-3.4-0.7-5.5c0-1.3,0.2-2.5,0.4-3.8c0.3-1.3,0.6-2.4,1.2-3.6
					c0.5-1.2,1.1-2.2,1.8-3.2s1.5-1.8,2.3-2.5c0.8-0.7,1.9-1.3,3-1.6C19.5,192.2,20.7,192,21.9,192z"/>
				<path d="M37,218.8h-2.5l2.5-24.2c-0.3,0.7-0.7,1.5-1.2,2.1c-0.4,0.6-0.7,1.3-1.1,1.7c-0.3,0.5-0.6,1-0.8,1.2
					c-0.2,0.3-0.3,0.4-0.3,0.4l-0.6-0.5c0.5-0.7,1.1-1.5,1.6-2.3c0.4-0.7,0.8-1.5,1.4-2.3c0.4-0.8,0.8-1.8,1.2-2.8l0.7,0.2L37,218.8
					z"/>
				<path d="M51.7,218.1c-1.1,0.1-2.1,0.1-3.2-0.1c-1.1-0.2-2-0.6-2.9-1.2c-0.8-0.5-1.6-1.3-2.2-2.1c-0.6-0.8-1-1.8-1.2-3
					c0-0.2,0-0.4,0-0.5c0-0.2,0-0.3,0.1-0.5l0.7,0.1c0,0.2-0.1,0.4,0,0.7c0.1,1.1,0.5,2,1.1,2.8c0.5,0.7,1.3,1.4,2,1.9
					c0.8,0.4,1.7,0.8,2.5,1c1,0.2,1.8,0.2,2.6,0.1c1.3-0.2,2.4-0.6,3.5-1.2c1-0.6,1.8-1.4,2.4-2.3c0.6-1,1.1-2,1.3-3.3
					c0.2-1.3,0.2-2.5,0-4c-0.2-1.4-0.5-2.5-1.2-3.7c-0.5-1.1-1.3-2-2.1-2.6c-0.8-0.7-1.8-1.2-3-1.5c-1.1-0.3-2.3-0.3-3.6-0.2
					c-0.7,0.1-1.4,0.3-2,0.6c-0.6,0.3-1.2,0.6-1.6,1c-0.4,0.4-0.8,0.7-1.2,1.2s-0.6,0.7-0.8,1.1c-0.2,0.3-0.4,0.7-0.6,1.2l-0.8-0.2
					c0.1-0.7,0.2-1.4,0.3-2c0.1-0.6,0.2-1.3,0.3-2c0.1-0.7,0.2-1.5,0.2-2.3c0.1-0.8,0.1-1.6,0.2-2.4c0.1-0.8,0-1.5,0-2.2l0.4-0.4
					c0.5,0,1.1,0,1.6-0.1c0.5,0,1-0.1,1.5-0.2c1.2-0.2,2.1-0.4,3-0.6c0.8-0.3,1.5-0.5,2.1-0.8c0.5-0.3,1-0.5,1.3-0.7
					c0.3-0.2,0.4-0.3,0.4-0.3l0.8,2c0,0-0.2,0.1-0.4,0.2c-0.3,0.1-0.6,0.2-1.1,0.3c-0.4,0.1-1,0.3-1.6,0.4c-0.6,0.1-1.2,0.2-1.9,0.3
					c-0.7,0.1-1.6,0.2-2.4,0.2c-0.8,0-1.7,0-2.8,0.1c0,0.2,0.1,0.5,0.1,1s0.1,1,0.1,1.6c0,0.6,0.1,1.4,0.1,2.1c0,0.7,0,1.6,0,2.4
					c1-0.8,1.9-1.5,2.9-1.9c1.1-0.4,2.1-0.7,3.2-0.8c0.5-0.1,1.1-0.1,1.7-0.1s1.4,0.1,2,0.3c0.7,0.2,1.4,0.5,2.1,0.8
					c0.7,0.4,1.4,1,2,1.6c0.6,0.6,1.2,1.5,1.6,2.3c0.4,1,0.7,2,1,3.4c0.2,1.6,0.1,3.1-0.2,4.4c-0.4,1.4-1,2.6-1.8,3.8
					c-0.8,1.2-1.9,2-3.1,2.8C54.6,217.3,53.2,217.9,51.7,218.1z"/>
			</g>
		</g>
		<g>
			<path fill="#FFFFFF" d="M4.5,191.3c-0.7-0.7-1.4-1.1-2-1.6c-0.6-0.4-1.4-0.8-2.3-1l-0.2-0.1c-0.7-0.2-1.4-0.4-2.1-0.5
				c-1.5-0.1-2.9-0.1-4,0.2c-1.4,0.4-2.5,0.9-3.3,1.5c-1,0.6-1.8,1.5-2.5,2.7c-0.7,1.1-1.1,2.3-1.3,3.6c-0.1,0.7-0.2,1.5-0.1,2.2
				c0.1,0.8,0.2,1.4,0.4,2.1l0.1,0.3h0.4c0.3,0,0.5-0.1,0.8-0.2c0.2,0,0.4-0.1,0.5-0.2l0.3-0.2c0,0,0.1-0.1,0.1-0.1h0.8l-0.4-0.7
				c-0.3-0.5-0.4-1.1-0.5-1.7l0-0.2c-0.1-0.6-0.1-1.2,0-1.7c0.2-1,0.6-1.9,1-2.6c0.6-0.9,1.2-1.5,1.8-2c0.7-0.5,1.5-0.9,2.6-1.1
				c1.2-0.2,2.1-0.3,3-0.1l0.2,0c0.4,0.1,1,0.2,1.4,0.4c0.6,0.2,1.1,0.4,1.6,0.7c0.3,0.2,0.6,0.4,0.9,0.7c0.2,0.1,0.3,0.3,0.5,0.4
				c0.4,0.3,0.7,0.9,1,1.5c0.2,0.7,0.4,1.4,0.5,2.2c0.1,1,0.1,1.9-0.1,2.8c-0.2,1.3-0.6,2.6-1.2,4.1c-0.7,1.6-1.5,2.9-2.3,3.9
				c-0.9,1.3-2,2.4-3.1,3.4c-1,0.9-2,1.6-3.2,2.2c-0.4-0.2-0.7-0.4-1.1-0.6c-0.4-0.2-0.8-0.5-1.2-0.7c-1-0.6-1.9-0.9-2.9-1
				c-1.1-0.1-2.1,0-2.9,0.2c-0.8,0.3-1.4,0.9-1.5,1.8c-0.1,0.8,0.2,1.5,1,2.2c0.7,0.5,1.6,0.8,2.8,1c1.1,0.1,2.2,0.1,3-0.3
				c1.1-0.1,1.9-0.3,2.8-0.6c0.4,0.3,0.7,0.5,1.2,0.8l0.4,0.3c0.4,0.2,0.7,0.5,1.1,0.6c0.3,0.1,0.5,0.2,0.7,0.3
				c0.2,0.1,0.5,0.2,0.8,0.3c0.6,0.2,1.2,0.4,1.6,0.4c0.4,0.1,0.9,0.1,1.2,0.1c0.3,0,0.8,0,1.2-0.1l0.4-0.1l-0.2-1.8l-0.5,0.1
				c-0.6,0.1-1.1,0.1-1.8,0c-0.8-0.1-1.6-0.3-2.5-0.8c-0.5-0.3-1.1-0.6-1.6-1c1.1-0.6,2.2-1.3,3.3-2.1c1.2-0.9,2.4-2.1,3.6-3.5
				c0.9-1.1,1.8-2.4,2.7-4.2c0.7-1.6,1.2-3,1.4-4.5c0.2-1.1,0.2-2.2,0.1-3.4c-0.2-1-0.4-1.9-0.9-2.7C5.6,192.7,5.2,191.9,4.5,191.3z
				 M-12.9,212.1c0.3-0.1,0.5-0.1,0.8-0.1c0.1,0,0.2,0,0.4,0c0.8,0.1,1.4,0.3,2.1,0.7c0.4,0.2,0.9,0.4,1.3,0.7
				c-0.4,0.1-0.8,0.2-1.3,0.3c-0.7,0.1-1.5,0.1-2.2,0c-0.6-0.1-1-0.3-1.3-0.5c-0.2-0.2-0.2-0.5-0.3-0.6
				C-13.2,212.3-13.1,212.2-12.9,212.1z"/>
			<path fill="#FFFFFF" d="M27.5,195.1c-0.7-1.1-1.4-1.8-2.3-2.2c-0.8-0.5-1.7-0.7-2.6-0.7c0,0-0.1,0-0.1,0l0.6-1.3l-0.4-0.2
				c0,0-0.2-0.1-0.6-0.2c-0.3-0.1-0.8-0.2-1.5-0.2c-0.8,0-1.6,0.1-2.4,0.2c-0.4,0-0.8,0.1-1.4,0.2c-1.2,0.4-2.3,1-3.2,1.7
				c-0.8,0.7-1.5,1.5-2.4,2.6c-0.7,0.9-1.3,2-1.9,3.3c-0.6,1.2-0.9,2.5-1.2,3.7c-0.2,1.3-0.4,2.6-0.4,3.9c0,2.3,0.2,4.1,0.8,5.7
				c0.6,1.7,1.3,3.1,2.3,4.2c0.9,1.1,2.1,2,3.3,2.6c1.2,0.7,2.6,1,3.9,1c1.1,0,2.4-0.1,3.5-0.6c1.1-0.3,2-0.8,2.9-1.7
				c1-0.8,1.7-1.8,2.2-2.6c0.7-1,1.1-2.1,1.5-3.2c0.4-1.2,0.8-2.4,1-3.6c0.2-1.1,0.3-2.4,0.3-3.7c0-1.7-0.1-3.6-0.5-5.1
				C28.8,197.4,28.3,196.2,27.5,195.1z M16,216.2c-1-0.6-1.8-1.3-2.5-2.4c-0.7-1-1.2-2.2-1.6-3.8c-0.4-1.5-0.6-3.3-0.5-5.1
				c0-1.6,0.2-3.3,0.7-5.3c0.4-1.7,1-3.1,1.8-4.2c1-1.3,1.9-2.2,2.8-2.7c1.1-0.6,2.3-0.9,3.7-0.9c0.4,0,0.7,0.1,1,0.2
				c0.2,0.1,0.3,0.1,0.4,0.1c-1,0.1-1.9,0.5-2.6,1.1c-1,0.9-1.8,2.1-2.2,3.5l-0.1,0.5l1.8,0.5l0.1-0.5c0.4-1.3,0.9-2.2,1.5-2.7
				c0.6-0.5,1.4-0.8,2.3-0.8c0.6,0,1.2,0.2,1.9,0.6c0.7,0.4,1.2,1,1.7,1.7c0.5,0.8,0.9,1.8,1.2,3c0.3,1.2,0.4,2.6,0.4,4.5
				c-0.1,2.4-0.4,4.1-0.8,5.5c-0.5,1.7-1.1,3-2,4.3c-0.8,1.2-1.7,2.1-2.7,2.7c-1,0.6-2.1,0.9-3.1,0.9C18.1,217.1,17,216.8,16,216.2z
				"/>
			<path fill="#FFFFFF" d="M36.5,190l-0.2,0.4l-0.9-0.2l-0.2,0.5c-0.3,0.8-0.7,1.8-1.1,2.6c-0.5,0.8-0.9,1.4-1.2,2.1l-0.1,0.2
				c-0.5,0.8-1,1.5-1.4,2.1l-0.4,0.6l1.4,1.1l0.3-0.3c0,0,0.1-0.1,0.3-0.4c0.3-0.3,0.6-0.7,0.9-1.2c0.2-0.2,0.4-0.5,0.6-0.9
				c0.2-0.3,0.3-0.5,0.5-0.8L32.6,218h3.6l0.9-27l0-0.4l-0.6-0.2L36.5,190z"/>
			<path fill="#FFFFFF" d="M58.6,200.2c-0.6-1.1-1.1-1.9-1.7-2.5c-0.8-0.8-1.4-1.3-2.2-1.7l-0.5-0.2c-0.6-0.2-1.1-0.5-1.7-0.6
				c-0.7-0.2-1.5-0.3-2.2-0.3c-0.6,0-1.2,0-1.7,0.1c-1,0.1-2,0.4-3.3,0.9c-0.7,0.3-1.4,0.8-2.2,1.3v-1.4c0-0.4,0-0.8-0.1-1.2
				c0-0.3,0-0.6,0-0.9c0-0.4,0-0.7-0.1-1c0-0.2,0-0.4,0-0.6c0-0.2,0-0.4,0-0.5c0.8-0.1,1.5-0.1,2.2-0.1c0.8,0,1.7-0.1,2.5-0.2
				c0.5-0.1,0.9-0.2,1.4-0.2l0.6-0.1c0.5-0.1,0.9-0.2,1.2-0.3c0.2,0,0.3-0.1,0.4-0.1c0.4-0.1,0.8-0.2,1.2-0.4l0.8-0.4l-1.3-3.1
				l-0.5,0.5c0,0-0.1,0.1-0.4,0.3c-0.2,0.1-0.4,0.2-0.6,0.4c-0.2,0.1-0.4,0.2-0.6,0.3c-0.4,0.2-0.9,0.4-1.5,0.6l-0.6,0.2
				c-0.7,0.2-1.7,0.4-3,0.6l-0.2,0c-0.4,0.1-0.7,0.2-1.2,0.2c-0.5,0.1-1,0.1-1.5,0.1h-0.2l-0.7,0.7v0.2c0,0.3,0,0.5,0,0.7
				c0,0.5,0,0.9,0,1.4c0,0.4-0.1,0.8-0.1,1.2c0,0.4,0,0.8-0.1,1.2c0,0.7-0.1,1.4-0.2,2.1l0,0.2c-0.1,0.7-0.2,1.4-0.3,2l-0.1,0.7
				c-0.1,0.4-0.1,0.8-0.2,1.3l-0.1,0.5l1.7,0.4l0.3-0.5c0.2-0.3,0.3-0.7,0.5-0.9c0.1-0.2,0.2-0.3,0.4-0.5c0.1-0.2,0.3-0.4,0.4-0.6
				c0.2-0.2,0.4-0.5,0.7-0.7c0.1-0.1,0.3-0.3,0.4-0.4c0.4-0.3,0.9-0.6,1.5-0.9c0.6-0.3,1.2-0.5,1.8-0.6c1.3-0.1,2.5-0.1,3.4,0.2
				c1.2,0.3,2,0.7,2.8,1.4c0.8,0.6,1.5,1.4,2,2.5c0.6,1,0.9,2.1,1.1,3.5c0.2,1.4,0.2,2.7,0,3.9c-0.2,1.2-0.6,2.2-1.2,3.1
				c-0.5,0.8-1.3,1.5-2.2,2.2c-1.1,0.6-2.2,0.9-3.3,1.1c-0.8,0.1-1.6,0.1-2.5-0.1c-0.8-0.1-1.6-0.5-2.3-0.9
				c-0.9-0.6-1.5-1.2-1.9-1.8c-0.4-0.5-0.9-1.4-1-2.6c0-0.1,0-0.2,0-0.3c0-0.1,0-0.2,0-0.3V209l-1.6-0.2l-0.2,0.3
				c-0.1,0.3-0.1,0.5-0.1,0.7l0,0.6c0.2,1.4,0.6,2.3,1.2,3.2c0.7,1,1.5,1.7,2.4,2.2c1,0.6,2,1,3,1.2c0.6,0.1,1.3,0.2,1.9,0.2
				c0.5,0,0.9,0,1.4-0.1c1.8-0.3,3.1-0.9,3.9-2c1.4-0.9,2.4-1.8,3.1-2.8c0.8-1.1,1.4-2.3,1.9-4c0.4-1.5,0.4-3.1,0.2-4.6
				C59.4,202.4,59.1,201.3,58.6,200.2z"/>
		</g>
	</g>
</g>
</svg>
